<svg width="80" height="80" viewBox="0 0 80 80" fill="none" xmlns="http://www.w3.org/2000/svg">
<g clip-path="url(#clip0_97_111)">
<path d="M7.78262 9.71846H6.71694C6.59329 9.71846 6.49305 9.61821 6.49305 9.49457V8.642H3.40384V9.49457C3.40384 9.61821 3.30359 9.71846 3.17995 9.71846H2.11426C1.99061 9.71846 1.89037 9.61821 1.89037 9.49457V9.30037H1.0486C0.924954 9.30037 0.824707 9.20013 0.824707 9.07648V6.84105C0.824707 6.71741 0.924954 6.61716 1.0486 6.61716H1.89034V6.42299C1.89034 6.29935 1.99059 6.1991 2.11423 6.1991H3.17992C3.30356 6.1991 3.40381 6.29935 3.40381 6.42299V7.27557H6.49305V6.42299C6.49305 6.29935 6.59329 6.1991 6.71694 6.1991H7.78262C7.90627 6.1991 8.00651 6.29935 8.00651 6.42299V6.61716H8.84826C8.9719 6.61716 9.07215 6.71741 9.07215 6.84105V9.07646C9.07215 9.2001 8.9719 9.30035 8.84826 9.30035H8.00651V9.49454C8.00651 9.61821 7.9063 9.71846 7.78262 9.71846ZM6.94085 9.27068H7.55876V6.64688H6.94085V9.27068ZM2.33815 9.27068H2.95606V6.64688H2.33815V9.27068ZM8.00651 8.85257H8.62437V7.06494H8.00651V8.85257ZM1.27249 8.85257H1.89034V7.06494H1.27249V8.85257ZM3.40384 8.19422H6.49307V7.72335H3.40384V8.19422ZM4.44526 6.82275C4.40801 6.82275 4.37026 6.81346 4.3355 6.79387C4.22778 6.73314 4.18972 6.59656 4.25042 6.48887C4.64987 5.78049 5.18917 5.18158 5.82364 4.72067C5.54675 4.33718 5.23042 3.98819 4.88104 3.67883C4.01293 4.61365 2.8281 5.24315 1.51163 5.40275C1.54079 5.52055 1.57608 5.63694 1.61753 5.75169C1.65954 5.86797 1.59934 5.99632 1.48303 6.03832C1.36666 6.08036 1.2384 6.0201 1.19639 5.90379C1.04048 5.47213 0.96142 5.01945 0.96142 4.5583C0.96142 2.35984 2.74999 0.571289 4.94846 0.571289C7.14689 0.571289 8.93543 2.35984 8.93543 4.5583C8.93543 4.95511 8.87655 5.34754 8.76038 5.72476C8.72397 5.84295 8.59862 5.90917 8.48052 5.87284C8.36233 5.83646 8.29606 5.71116 8.33244 5.59298C8.43543 5.25851 8.48765 4.91039 8.48765 4.5583C8.48765 4.42203 8.47993 4.28759 8.46487 4.15529C7.74084 4.23917 7.05428 4.47772 6.44505 4.84549C6.57695 5.0555 6.6974 5.27237 6.80532 5.49483C6.85927 5.60607 6.81284 5.74002 6.7016 5.79397C6.59035 5.84785 6.45638 5.8015 6.40245 5.69023C6.30246 5.48408 6.19253 5.28482 6.07331 5.09297C5.49598 5.51532 5.00493 6.06248 4.64052 6.70879C4.59933 6.78175 4.52343 6.82275 4.44526 6.82275ZM2.23877 2.28385C1.72125 2.89938 1.4092 3.69307 1.4092 4.5583C1.4092 4.69358 1.41687 4.82806 1.43212 4.96127C2.64272 4.82081 3.73352 4.24807 4.53504 3.3937C3.86068 2.87711 3.08281 2.49714 2.23877 2.28385ZM5.16971 3.34187C5.55103 3.67905 5.89557 4.06011 6.19432 4.47369C6.85474 4.07131 7.59973 3.8088 8.38584 3.71373C8.10634 2.57651 7.27571 1.65352 6.19454 1.24551C6.00359 2.02481 5.64839 2.73555 5.16971 3.34187ZM2.59475 1.91732C3.39746 2.15402 4.15958 2.54301 4.82473 3.05661C5.2661 2.49507 5.59253 1.83624 5.76563 1.11431C5.50328 1.05207 5.22958 1.01907 4.94846 1.01907C4.04559 1.01907 3.22067 1.35882 2.59475 1.91732Z" fill="white"/>
</g>
<path d="M19.3062 8.45508C19.4302 8.45508 19.5315 8.55613 19.5317 8.68066C19.5317 8.80512 19.4304 8.90625 19.3062 8.90625H18.6216C18.4966 8.90625 18.395 8.80512 18.395 8.68066C18.3952 8.55613 18.4968 8.45508 18.6216 8.45508H19.3062ZM19.6479 7.8584C19.7727 7.8584 19.8735 7.95928 19.8735 8.08398C19.8734 8.20884 19.7726 8.30957 19.6479 8.30957H18.2778C18.1531 8.30942 18.0523 8.20875 18.0522 8.08398C18.0522 7.95938 18.153 7.85855 18.2778 7.8584H19.6479ZM18.9692 2.79395C20.0888 2.79403 20.9995 3.70541 20.9995 4.8252C20.9994 5.28397 20.8494 5.71654 20.5649 6.07715C20.5152 6.14097 20.4578 6.20782 20.3979 6.27832C20.1961 6.51575 19.9708 6.78084 19.8931 7.06055C19.8795 7.11049 19.8726 7.20062 19.8735 7.32617V7.48633C19.8735 7.61086 19.7734 7.71266 19.6489 7.71289H18.2778C18.1531 7.71265 18.0522 7.61039 18.0522 7.48633V7.32812C18.0537 7.192 18.047 7.09645 18.0327 7.04297C17.9558 6.76124 17.7523 6.52495 17.5552 6.2959C17.4902 6.22099 17.4289 6.14909 17.3726 6.07715C17.0889 5.71628 16.9381 5.28375 16.938 4.8252C16.938 3.70536 17.8494 2.79395 18.9692 2.79395ZM16.895 6.58008C16.9826 6.492 17.126 6.492 17.2144 6.58008C17.3026 6.66842 17.3026 6.8121 17.2144 6.90039L16.5757 7.53809C16.5314 7.5821 16.4744 7.60447 16.4165 7.60449C16.3589 7.60449 16.3006 7.58237 16.2563 7.53809C16.1685 7.45005 16.1684 7.30697 16.2563 7.21875L16.895 6.58008ZM20.7241 6.58008C20.8125 6.49205 20.9554 6.49201 21.0435 6.58008L21.6812 7.21875C21.7693 7.30707 21.7694 7.45005 21.6812 7.53809C21.6371 7.58237 21.5794 7.60352 21.521 7.60352C21.4638 7.60345 21.406 7.58219 21.3618 7.53809L20.7241 6.89941C20.636 6.81158 20.636 6.66841 20.7241 6.58008ZM18.9692 3.24512C18.0983 3.24516 17.3901 3.95429 17.3901 4.8252C17.3902 5.18091 17.5069 5.51781 17.728 5.79883C17.7801 5.86548 17.8375 5.93111 17.8979 6.00098C18.1065 6.24316 18.3649 6.54365 18.4692 6.9248C18.4846 6.98444 18.5024 7.07534 18.5044 7.26074H19.4224C19.4248 7.08562 19.442 6.99881 19.4575 6.94238C19.5622 6.56556 19.8224 6.25894 20.0513 5.99023C20.1113 5.91959 20.1638 5.85763 20.2104 5.79883C20.4313 5.51782 20.5483 5.18164 20.5483 4.8252C20.5483 3.95427 19.8402 3.24512 18.9692 3.24512ZM16.2612 4.59961C16.3858 4.59961 16.4875 4.7007 16.4878 4.8252C16.488 4.95014 16.3859 5.05176 16.2612 5.05176H15.3589C15.2342 5.05176 15.1333 4.95014 15.1333 4.8252C15.1335 4.7007 15.2343 4.59961 15.3589 4.59961H16.2612ZM22.5796 4.59961C22.704 4.59973 22.8049 4.70078 22.8052 4.8252C22.8052 4.95007 22.7042 5.05164 22.5796 5.05176H21.6772C21.5525 5.05176 21.4507 4.95014 21.4507 4.8252C21.4509 4.7007 21.5527 4.59961 21.6772 4.59961H22.5796ZM16.2563 2.11328C16.3446 2.02526 16.4876 2.02537 16.5757 2.11328L17.2144 2.75098C17.3027 2.83905 17.3026 2.9832 17.2144 3.07129C17.1703 3.11558 17.1123 3.1377 17.0542 3.1377C16.9968 3.13768 16.9386 3.11556 16.894 3.07129L16.2563 2.43359C16.1681 2.34533 16.1682 2.20161 16.2563 2.11328ZM21.3618 2.11328C21.4494 2.02521 21.5933 2.02522 21.6812 2.11328C21.7695 2.20161 21.7695 2.34429 21.6812 2.43262L21.0435 3.07031C20.9995 3.11442 20.9423 3.13664 20.8843 3.13672C20.8267 3.13672 20.7686 3.11543 20.7241 3.07129C20.6366 2.98325 20.6367 2.84005 20.7241 2.75195L21.3618 2.11328ZM18.9692 0.989258C19.0941 0.989306 19.1947 1.09054 19.1948 1.21484V2.11816C19.1947 2.24298 19.0941 2.3437 18.9692 2.34375C18.8443 2.34375 18.7427 2.24311 18.7427 2.11816V1.21484C18.7428 1.09051 18.8444 0.989258 18.9692 0.989258Z" fill="white"/>
<g clip-path="url(#clip1_97_111)">
<path d="M37.4478 6.38189C37.2959 6.29288 37.1225 6.24583 36.9465 6.24583C36.7691 6.24583 36.5946 6.29356 36.4419 6.38386C36.378 6.42166 36.3135 6.45832 36.2485 6.49391C36.2394 6.40037 36.2157 6.30798 36.1773 6.2206L35.9225 5.64202C35.9978 5.16643 35.9704 4.70067 35.8409 4.25185L35.9745 4.00723C36.0198 4.02828 36.0667 4.04655 36.1151 4.06178C36.2036 4.08965 36.2942 4.10376 36.3844 4.10376C36.4357 4.10376 36.487 4.09912 36.5369 4.08998C36.8888 4.02561 37.1624 3.75822 37.2341 3.40879C37.2674 3.24664 37.3139 3.11216 37.3589 2.98209C37.4493 2.72078 37.5492 2.4324 37.4967 2.0534L37.7273 1.75881C37.8762 1.56858 37.9216 1.31933 37.8489 1.09204C37.7528 0.791946 37.4768 0.590335 37.1621 0.590335C37.1273 0.590335 37.0923 0.592867 37.0579 0.597893L36.9112 0.61933C36.8326 0.319233 36.5739 0.0972865 36.2653 0.0660686C36.2002 0.0594964 36.1337 0.0561523 36.0677 0.0561523C35.3406 0.0561523 34.7331 0.444278 34.4009 1.12104C34.2819 1.36326 34.1348 1.64418 33.9635 1.956C33.93 2.01698 33.8649 2.05487 33.7934 2.05487C33.7874 2.05487 33.7813 2.0546 33.7753 2.05406C33.5488 2.03413 33.3138 2.02402 33.0769 2.02402C32.5149 2.02402 31.1446 2.0861 30.5119 2.65881C30.4728 2.65671 30.434 2.65564 30.3959 2.65564C29.7991 2.65564 29.2635 2.90927 28.8469 3.38906C28.7101 3.54666 28.6348 3.74852 28.6347 3.95742C28.6346 4.16508 28.709 4.36623 28.8442 4.52384L29.4627 5.24479C29.5795 5.38093 29.7364 5.47317 29.9085 5.51009L29.6268 6.14976C29.5934 6.22577 29.5713 6.30575 29.5601 6.38702C29.5565 6.38493 29.5529 6.3829 29.5494 6.38081C29.3951 6.2894 29.2188 6.24108 29.0396 6.24108C28.8668 6.24108 28.696 6.28627 28.5458 6.37176C28.2344 6.54902 28.041 6.88169 28.041 7.24001C28.041 7.56456 28.1992 7.86978 28.4642 8.05681C29.2586 8.6175 30.0415 9.05513 30.7912 9.35754C31.585 9.67772 32.3275 9.84004 32.9982 9.84004C33.6743 9.84004 34.4167 9.67709 35.2048 9.35571C35.9401 9.05588 36.7175 8.61757 37.5156 8.05291C37.772 7.8715 37.9297 7.57598 37.9376 7.2622C37.9376 7.26179 37.9376 7.26139 37.9376 7.26104C37.9464 6.90102 37.7587 6.56414 37.4478 6.38189ZM33.0768 2.63958C33.2942 2.63958 33.5117 2.6488 33.7213 2.66726C33.7383 2.66875 33.7552 2.66952 33.772 2.66997C33.7565 3.3658 33.2742 3.92442 32.6809 3.92442C32.1366 3.92442 31.684 3.41856 31.6012 2.80365C32.0187 2.69432 32.5476 2.63958 33.0768 2.63958ZM29.3113 4.12317C29.2297 4.02807 29.2296 3.88721 29.3117 3.79261C29.6649 3.38571 30.0613 3.27118 30.3958 3.27118C30.4248 3.27118 30.4532 3.27204 30.4811 3.27364C30.4931 3.27432 30.5049 3.27466 30.5168 3.27466C30.6658 3.27466 30.8102 3.2212 30.9201 3.11954C30.9477 3.09404 30.9792 3.06967 31.0136 3.0462C31.1827 3.91066 31.8694 4.53987 32.6808 4.53987C32.9228 4.53987 33.1568 4.48474 33.3763 4.37599C33.5803 4.27495 33.7619 4.13235 33.9162 3.95214C34.2157 3.60235 34.3833 3.14227 34.3881 2.65667C34.3884 2.6181 34.3739 2.51366 34.361 2.43899C34.4162 2.38483 34.4644 2.32245 34.5029 2.25232C34.6395 2.0037 34.8068 1.69063 34.9533 1.3923C35.255 0.777681 35.7571 0.671656 36.0676 0.671656C36.1186 0.671656 36.1644 0.674517 36.2033 0.678441C36.2561 0.683776 36.3021 0.721063 36.316 0.776463C36.3207 0.795001 36.3203 0.814485 36.3168 0.833254L36.2596 1.13896C36.33 1.18547 36.3982 1.24179 36.4624 1.30688L37.1467 1.20692C37.1519 1.20617 37.157 1.20582 37.162 1.20582C37.2067 1.20582 37.2481 1.23423 37.2627 1.27966C37.2736 1.31378 37.2647 1.35124 37.2426 1.37944L36.8294 1.90728C37.0163 2.44 36.7579 2.6672 36.6311 3.28516C36.6108 3.38457 36.5322 3.46514 36.4261 3.48455C36.4123 3.48706 36.3983 3.48826 36.3843 3.48826C36.3558 3.48826 36.3273 3.48331 36.2999 3.47469C36.094 3.40986 35.9444 3.23148 35.9163 3.01742L35.8965 2.86609L35.2256 4.09425C35.2092 4.12872 35.1915 4.16268 35.1728 4.19612C35.327 4.59146 35.4164 5.10465 35.2825 5.71576L35.614 6.46859C35.6792 6.61681 35.6053 6.79012 35.4525 6.84388C35.4509 6.84446 35.4492 6.84506 35.4476 6.84564C35.4168 6.85644 35.3852 6.86164 35.354 6.86164C35.2616 6.86164 35.1726 6.81604 35.1199 6.73519L34.5138 5.80534C34.2858 5.71373 34.0306 5.53509 33.7871 5.20163C33.5634 5.26058 33.325 5.29283 33.0771 5.29283C32.7108 5.29283 32.3646 5.22289 32.0571 5.09898C31.8238 5.53855 31.5382 5.75299 31.2923 5.85546L30.749 6.68897C30.6963 6.7699 30.6073 6.8156 30.515 6.8156C30.4822 6.8156 30.449 6.80984 30.4169 6.79787C30.3925 6.78877 30.368 6.77951 30.3437 6.77012C30.1957 6.71311 30.1262 6.54301 30.1902 6.39786L30.5826 5.5066C30.5189 5.27139 30.4921 5.04838 30.4909 4.84091C30.4905 4.76632 30.4304 4.72219 30.3697 4.72219C30.3284 4.72219 30.2869 4.7425 30.2635 4.78739C30.261 4.79216 30.2586 4.79692 30.2562 4.80161C30.2329 4.84688 30.1944 4.88353 30.1466 4.90083C30.1243 4.90887 30.1015 4.91272 30.0791 4.91272C30.0221 4.91272 29.9674 4.88792 29.9298 4.8441L29.3113 4.12317ZM34.6404 7.12254C34.1057 7.25613 33.5542 7.32481 32.9982 7.32481C32.3948 7.32481 31.7967 7.24409 31.2198 7.08717C31.2354 7.06714 31.2506 7.04661 31.2646 7.02506L31.7159 6.33262C31.9028 6.22822 32.1143 6.06807 32.3141 5.82287C32.561 5.87964 32.8162 5.90829 33.0771 5.90829C33.2365 5.90829 33.3952 5.89727 33.5517 5.87545C33.7187 6.0464 33.8996 6.18405 34.0933 6.28737L34.6043 7.07131C34.6157 7.08892 34.6279 7.10592 34.6404 7.12254ZM37.3223 7.24633C37.3194 7.36764 37.2592 7.48039 37.1601 7.55049C35.659 8.61255 34.2147 9.22459 32.9982 9.22459C31.7973 9.22459 30.3209 8.6139 28.8192 7.55398C28.7174 7.48217 28.6565 7.36492 28.6565 7.24037C28.6565 7.10253 28.7305 6.97492 28.8503 6.90672C28.909 6.87328 28.9743 6.85662 29.0396 6.85662C29.1074 6.85662 29.1752 6.87458 29.2357 6.91039C30.3945 7.59694 31.6965 7.94029 32.9982 7.94029C34.2981 7.94029 35.5977 7.59813 36.7552 6.91366C36.8142 6.87877 36.8804 6.86131 36.9465 6.86131C37.0122 6.86131 37.0779 6.87852 37.1366 6.91291C37.2544 6.98195 37.3257 7.10978 37.3223 7.24633Z" fill="white"/>
</g>
<g clip-path="url(#clip2_97_111)">
<path d="M0.502441 14.0894C1.37864 14.331 2.37659 14.4829 3.40381 14.4829C4.43536 14.4829 5.40349 14.3609 6.30811 14.1196L6.35791 14.1118C6.40847 14.1088 6.45935 14.1214 6.50342 14.1479C6.56183 14.1833 6.60419 14.2406 6.61963 14.3071C6.71818 14.7344 6.74951 15.1889 6.74951 15.6323C6.74948 16.2969 6.6809 16.9464 6.5249 17.5415C7.54672 17.5391 8.53315 17.4182 9.396 17.1802L9.44678 17.1714C9.49755 17.168 9.54885 17.1801 9.59326 17.2065C9.65243 17.2419 9.69495 17.3005 9.71045 17.3677C9.80897 17.7949 9.84031 18.2486 9.84033 18.6919C9.84028 20.0929 9.48277 21.3717 8.89307 22.3071C8.30555 23.2388 7.46286 23.8628 6.49463 23.8628C5.5264 23.8628 4.68371 23.2388 4.09619 22.3071C3.8172 21.8646 3.59098 21.3447 3.4292 20.772H3.40381C2.43564 20.772 1.59289 20.1479 1.00537 19.2163C0.415696 18.281 0.0581857 17.002 0.0581055 15.6011C0.0581275 15.1578 0.089498 14.704 0.187988 14.2769L0.20459 14.228C0.225785 14.1818 0.260805 14.1422 0.305176 14.1157C0.364395 14.0805 0.43601 14.071 0.502441 14.0894ZM9.26514 17.7349C8.41014 17.9432 7.46353 18.0483 6.49463 18.0483C6.40655 18.0483 6.31862 18.0462 6.23096 18.0444C6.19906 18.0502 6.16642 18.0497 6.1333 18.0425C5.29621 18.0198 4.48242 17.919 3.73779 17.7388C3.69911 18.0122 3.66603 18.2895 3.65771 18.5659C3.6648 18.5892 3.67041 18.6136 3.67041 18.6392C3.67034 18.6677 3.66365 18.6946 3.65479 18.7202C3.65964 20.0292 3.99735 21.1998 4.5249 22.0366C5.05848 22.8828 5.76209 23.3569 6.49463 23.3569C7.22719 23.3569 7.93176 22.8829 8.46533 22.0366C8.99657 21.1938 9.33442 20.0121 9.33447 18.6919C9.33446 18.3627 9.31445 18.0397 9.26514 17.7349ZM7.59619 20.9214C7.67752 20.8696 7.78142 20.8694 7.86377 20.9194C7.94596 20.9696 7.9934 21.0618 7.98486 21.1577C7.91334 21.943 7.29972 22.6254 6.49561 22.6255C5.69142 22.6255 5.07787 21.943 5.00635 21.1577C4.99781 21.0619 5.04444 20.9696 5.12646 20.9194C5.20876 20.8693 5.31268 20.8697 5.39404 20.9214C5.69002 21.1097 6.07542 21.2222 6.49561 21.2222C6.91562 21.2221 7.30028 21.1096 7.59619 20.9214ZM7.32959 21.5981C7.06905 21.6823 6.78691 21.728 6.49561 21.728C6.20402 21.728 5.9214 21.6825 5.66064 21.5981C5.84003 21.9141 6.15461 22.1196 6.49561 22.1196C6.83644 22.1196 7.1502 21.9138 7.32959 21.5981ZM5.26416 19.3354C5.74741 19.3356 6.14209 19.7301 6.14209 20.2134C6.1418 20.3529 6.02776 20.4663 5.88818 20.4663C5.74893 20.4659 5.63554 20.3527 5.63525 20.2134C5.63525 20.0096 5.4679 19.8414 5.26416 19.8413C5.06041 19.8414 4.89209 20.0096 4.89209 20.2134C4.8918 20.3529 4.77873 20.4663 4.63916 20.4663C4.4997 20.4662 4.38652 20.3528 4.38623 20.2134C4.38623 19.7301 4.78091 19.3356 5.26416 19.3354ZM7.73975 19.3354C8.22297 19.3356 8.61768 19.7301 8.61768 20.2134C8.61738 20.3529 8.50332 20.4663 8.36377 20.4663C8.22441 20.4661 8.11113 20.3527 8.11084 20.2134C8.11084 20.0096 7.94346 19.8415 7.73975 19.8413C7.53589 19.8413 7.36768 20.0095 7.36768 20.2134C7.36739 20.3529 7.2543 20.4663 7.11475 20.4663C6.97517 20.4663 6.86211 20.3529 6.86182 20.2134C6.86182 19.73 7.25638 19.3354 7.73975 19.3354ZM0.632324 14.645C0.583167 14.9495 0.563982 15.2724 0.563965 15.6011C0.564045 16.9214 0.90275 18.103 1.43408 18.9458C1.94366 19.7539 2.60838 20.2207 3.30518 20.2612C3.21734 19.831 3.16423 19.3771 3.15186 18.9077C2.83091 18.9443 2.53909 19.0457 2.30322 19.1958C2.2219 19.2475 2.11796 19.2488 2.03564 19.1987C1.95334 19.1486 1.9069 19.0555 1.91553 18.9595C1.98288 18.2187 2.52793 17.5691 3.26123 17.4878C3.26639 17.4537 3.27073 17.4197 3.27588 17.3862C3.28686 17.3149 3.32759 17.2507 3.38818 17.2114C3.44877 17.1723 3.52374 17.161 3.59326 17.1802C4.32559 17.3822 5.14699 17.4991 6.00342 17.5317C6.16847 16.9592 6.24362 16.3125 6.24365 15.6323C6.24365 15.3025 6.22286 14.9787 6.17334 14.6733C5.29977 14.8823 4.37661 14.9888 3.40381 14.9888C2.4303 14.9888 1.48354 14.8572 0.632324 14.645ZM3.18896 18.0171C2.93339 18.0864 2.70931 18.2685 2.56885 18.519C2.75555 18.4582 2.95336 18.4172 3.15771 18.3979C3.16484 18.2696 3.17525 18.1422 3.18896 18.0171ZM2.79736 15.9331C2.93712 15.9331 3.05127 16.0463 3.05127 16.186C3.05112 16.6692 2.65649 17.0638 2.17334 17.064C1.69018 17.0638 1.29556 16.6692 1.29541 16.186C1.29541 16.0464 1.4087 15.9332 1.54834 15.9331C1.68809 15.9331 1.80127 16.0463 1.80127 16.186C1.80142 16.3897 1.96969 16.558 2.17334 16.5581C2.37699 16.558 2.54428 16.3897 2.54443 16.186C2.54443 16.0465 2.65794 15.9335 2.79736 15.9331ZM5.27002 15.9331C5.40962 15.9333 5.52393 16.0464 5.52393 16.186C5.52377 16.6691 5.12899 17.0636 4.646 17.064C4.16273 17.064 3.76822 16.6693 3.76807 16.186C3.76807 16.0463 3.88124 15.9331 4.021 15.9331C4.16059 15.9333 4.27393 16.0464 4.27393 16.186C4.27408 16.3898 4.44223 16.5581 4.646 16.5581C4.84949 16.5578 5.01694 16.3896 5.01709 16.186C5.01709 16.0464 5.13048 15.9334 5.27002 15.9331Z" fill="white"/>
</g>
<g clip-path="url(#clip3_97_111)">
<path d="M15.8144 21.2578C15.5418 21.2578 15.2856 21.364 15.0928 21.5567C14.695 21.9546 14.695 22.602 15.0928 22.9999C15.2856 23.1926 15.5418 23.2987 15.8144 23.2987C16.087 23.2987 16.3432 23.1926 16.536 22.9999C16.7287 22.8072 16.8349 22.5509 16.8349 22.2783C16.8349 22.0057 16.7287 21.7495 16.536 21.5567C16.3432 21.364 16.087 21.2578 15.8144 21.2578ZM16.171 22.6349C16.0758 22.7301 15.9491 22.7826 15.8144 22.7826C15.6797 22.7826 15.5531 22.7301 15.4578 22.6349C15.2612 22.4383 15.2612 22.1183 15.4578 21.9217C15.553 21.8265 15.6797 21.774 15.8144 21.774C15.9491 21.774 16.0757 21.8265 16.171 21.9217C16.2663 22.0169 16.3187 22.1436 16.3187 22.2783C16.3187 22.413 16.2663 22.5396 16.171 22.6349Z" fill="white"/>
<path d="M23.1438 21.8835C23.1378 21.6684 23.0423 21.4628 22.8819 21.3195L21.38 19.9775C21.4773 19.8766 21.5679 19.7698 21.6512 19.6574C21.6689 19.6394 21.6839 19.6187 21.6957 19.596C22.0706 19.065 22.286 18.4215 22.286 17.7452C22.286 16.8917 21.9414 15.9547 21.3641 15.2386C20.7309 14.4535 19.9181 14.021 19.0753 14.021C18.3429 14.021 17.6332 14.3478 17.0443 14.9487C16.5288 15.0627 16.0789 15.3001 15.7278 15.6512C15.1318 16.2472 14.8628 17.1277 14.9704 18.1306C15.0685 19.0451 15.4873 19.9515 16.0909 20.555C16.6427 21.1069 17.3664 21.4251 18.1148 21.4837L18.0246 23.0877C18.0125 23.3025 18.0904 23.5155 18.2382 23.6718C18.386 23.8282 18.5943 23.9179 18.8095 23.9179H19.3411C19.5563 23.9179 19.7645 23.8282 19.9124 23.6718C20.0602 23.5155 20.138 23.3025 20.1259 23.0877L20.0237 21.2696L21.396 22.8053C21.5394 22.9658 21.7449 23.0612 21.9601 23.0673C21.9673 23.0675 21.9746 23.0676 21.9818 23.0676C22.1893 23.0676 22.391 22.9844 22.538 22.8374L22.9139 22.4614C23.0661 22.3093 23.1499 22.0986 23.1438 21.8835ZM21.9745 22.5514C21.8996 22.5492 21.8308 22.5173 21.7809 22.4614L20.4063 20.9231C20.2524 20.7509 20.0389 20.6591 19.8205 20.6591C19.7093 20.6591 19.5968 20.6829 19.4903 20.7319C19.1684 20.8804 18.8267 20.9602 18.4847 20.9751L21.0516 18.4082C21.0367 18.7502 20.9569 19.0919 20.8084 19.4138C20.6629 19.7294 20.7397 20.0975 20.9995 20.3297L22.5379 21.7043C22.5938 21.7543 22.6257 21.8231 22.6279 21.898C22.63 21.973 22.6019 22.0435 22.5489 22.0964L22.1729 22.4724C22.12 22.5254 22.0495 22.5535 21.9745 22.5514ZM18.54 23.1167L18.6318 21.4828C18.9282 21.4584 19.2231 21.3925 19.5076 21.284L19.6106 23.1167C19.6148 23.1916 19.5888 23.2628 19.5373 23.3173C19.4858 23.3718 19.4161 23.4018 19.3411 23.4018H18.8095C18.7345 23.4018 18.6648 23.3718 18.6133 23.3173C18.5618 23.2628 18.5358 23.1915 18.54 23.1167ZM16.0927 16.0162C16.5761 15.5328 17.3076 15.3166 18.1521 15.4071C18.9532 15.493 19.7437 15.8564 20.2665 16.3793C20.6442 16.7571 20.8913 17.2308 20.9965 17.7334L17.8701 20.8598C17.8511 20.8788 17.8357 20.9001 17.8239 20.9227C17.3161 20.8193 16.8371 20.5712 16.4559 20.19C15.933 19.6671 15.5696 18.8767 15.4836 18.0756C15.393 17.231 15.6094 16.4996 16.0927 16.0162ZM20.9623 15.5626C21.468 16.1898 21.7699 17.0058 21.7699 17.7452C21.7699 18.1471 21.6789 18.5351 21.5143 18.8856C21.5812 18.5305 21.5872 18.1686 21.5347 17.8154C21.5345 17.7901 21.5305 17.7649 21.5228 17.7405C21.4124 17.0999 21.1097 16.4925 20.6315 16.0143C20.028 15.4108 19.1217 14.9919 18.2072 14.8939C18.1207 14.8846 18.0352 14.8783 17.9507 14.8746C18.3063 14.6538 18.6887 14.5372 19.0753 14.5372C19.7589 14.5372 20.4291 14.9013 20.9623 15.5626Z" fill="white"/>
</g>
<g clip-path="url(#clip4_97_111)">
<path d="M32.9902 14.5605C33.6032 14.5609 34.1006 15.0588 34.1006 15.6719C34.1004 15.9292 34.0113 16.1652 33.8643 16.3535C34.2297 16.4757 34.5595 16.6728 34.8389 16.9258C34.9985 16.5076 35.403 16.21 35.877 16.21C36.49 16.2103 36.9873 16.7082 36.9873 17.3213C36.9871 17.9342 36.4898 18.4313 35.877 18.4316C35.8144 18.4316 35.7531 18.425 35.6934 18.415C35.7301 18.5946 35.75 18.7804 35.75 18.9707C35.75 19.1601 35.7297 19.3448 35.6934 19.5234C35.753 19.5135 35.8145 19.5078 35.877 19.5078C36.4899 19.5082 36.9872 20.0061 36.9873 20.6191C36.9871 21.232 36.4898 21.7291 35.877 21.7295C35.4031 21.7295 34.9986 21.4325 34.8389 21.0146C34.668 21.1693 34.4791 21.3037 34.2734 21.4121L34.9043 22.9883C34.9627 23.1347 34.8914 23.3007 34.7451 23.3594C34.5988 23.4176 34.4317 23.3464 34.373 23.2002L33.7422 21.623C33.5029 21.6908 33.2512 21.7304 32.9902 21.7305C32.7283 21.7305 32.4754 21.6912 32.2354 21.623L31.6055 23.2002C31.5467 23.3464 31.3798 23.4179 31.2334 23.3594C31.0875 23.3006 31.0161 23.1345 31.0742 22.9883L31.7041 21.4121C31.4988 21.3038 31.3103 21.1691 31.1396 21.0146C30.98 21.4322 30.577 21.7293 30.1035 21.7295C29.4903 21.7295 28.9924 21.2323 28.9922 20.6191C28.9923 20.0059 29.4903 19.5078 30.1035 19.5078C30.1651 19.5078 30.2253 19.5138 30.2842 19.5234C30.2478 19.3449 30.2295 19.16 30.2295 18.9707C30.2295 18.7805 30.2475 18.5945 30.2842 18.415C30.2253 18.4247 30.1651 18.4316 30.1035 18.4316C29.4903 18.4316 28.9924 17.9344 28.9922 17.3213C28.9922 16.708 29.4902 16.21 30.1035 16.21C30.5772 16.2101 30.9801 16.5079 31.1396 16.9258C31.419 16.6729 31.7489 16.4758 32.1143 16.3535C31.9672 16.1653 31.8791 15.9291 31.8789 15.6719C31.8789 15.0586 32.3769 14.5605 32.9902 14.5605ZM32.4492 21.0889C32.6224 21.133 32.8034 21.1592 32.9902 21.1592C33.1762 21.1591 33.3559 21.1326 33.5283 21.0889L32.9893 19.7402L32.4492 21.0889ZM30.1035 20.0801C29.8059 20.0801 29.5646 20.3216 29.5645 20.6191C29.5647 20.9166 29.806 21.1572 30.1035 21.1572C30.4008 21.157 30.6414 20.9164 30.6416 20.6191C30.6415 20.3217 30.4009 20.0803 30.1035 20.0801ZM35.877 20.0801C35.5793 20.0801 35.338 20.3216 35.3379 20.6191C35.3381 20.9166 35.5794 21.1572 35.877 21.1572C36.1742 21.1569 36.4148 20.9164 36.415 20.6191C36.4149 20.3218 36.1743 20.0804 35.877 20.0801ZM32.9902 16.7822C31.7816 16.7822 30.8018 17.7621 30.8018 18.9707C30.8019 19.7894 31.2522 20.5016 31.918 20.877L32.7236 18.8643L32.7676 18.791C32.8208 18.7253 32.9018 18.6847 32.9893 18.6846C33.106 18.6846 33.2114 18.7559 33.2549 18.8643L34.0596 20.8779C34.7266 20.5029 35.1786 19.7902 35.1787 18.9707C35.1787 17.7623 34.1986 16.7826 32.9902 16.7822ZM30.1035 16.7822C29.8059 16.7822 29.5645 17.0236 29.5645 17.3213C29.5647 17.6187 29.806 17.8594 30.1035 17.8594C30.4008 17.8591 30.6414 17.6186 30.6416 17.3213C30.6416 17.0238 30.401 16.7825 30.1035 16.7822ZM35.877 16.7822C35.5793 16.7822 35.3379 17.0236 35.3379 17.3213C35.3381 17.6187 35.5794 17.8594 35.877 17.8594C36.1742 17.859 36.4148 17.6185 36.415 17.3213C36.415 17.0238 36.1743 16.7826 35.877 16.7822ZM32.9902 15.1328C32.6926 15.1328 32.4512 15.3742 32.4512 15.6719C32.4515 15.9692 32.6928 16.21 32.9902 16.21C33.2873 16.2096 33.528 15.969 33.5283 15.6719C33.5283 15.3745 33.2876 15.1332 32.9902 15.1328Z" fill="white"/>
</g>
<g clip-path="url(#clip5_97_111)">
<path d="M44.5359 6.39132H44.9483M44.5359 7.62844H44.9483M49.072 7.62844H49.4844M49.072 6.39132H49.4844M46.1854 9.07174V7.42225C46.1854 6.96675 46.5547 6.59751 47.0102 6.59751C47.4657 6.59751 47.8349 6.96675 47.8349 7.42225V9.07174M47.0102 2.06133H49.0061C49.0291 2.06133 49.0407 2.06133 49.0495 2.05684C49.0573 2.05289 49.0636 2.04658 49.0675 2.03882C49.072 2.03 49.072 2.01845 49.072 1.99536V0.890198C49.072 0.867101 49.072 0.855555 49.0675 0.846734C49.0636 0.838973 49.0573 0.832668 49.0495 0.828714C49.0407 0.824219 49.0291 0.824219 49.0061 0.824219H47.0762C47.0531 0.824219 47.0415 0.824219 47.0327 0.828714C47.0249 0.832668 47.0186 0.838973 47.0147 0.846734C47.0102 0.855555 47.0102 0.867101 47.0102 0.890198V2.06133ZM47.0102 2.06133V3.17099M47.0102 3.17099C47.0905 3.17099 47.1708 3.18272 47.2485 3.20617C47.4249 3.25942 47.5809 3.39983 47.8929 3.68064L49.072 4.74184L49.722 4.90431C50.0794 4.99367 50.2581 5.03833 50.3911 5.13796C50.5085 5.22588 50.6003 5.34349 50.6572 5.4787C50.7215 5.63194 50.7215 5.81611 50.7215 6.18452V7.75215C50.7215 8.21405 50.7215 8.44502 50.6316 8.62143C50.5526 8.77661 50.4264 8.90279 50.2712 8.98184C50.0948 9.07174 49.8638 9.07174 49.4019 9.07174H44.6184C44.1565 9.07174 43.9256 9.07174 43.7491 8.98184C43.594 8.90279 43.4678 8.77661 43.3887 8.62143C43.2988 8.44502 43.2988 8.21405 43.2988 7.75215V6.18452C43.2988 5.81611 43.2988 5.63194 43.3632 5.4787C43.42 5.34349 43.5118 5.22588 43.6292 5.13796C43.7623 5.03833 43.941 4.99367 44.2984 4.90431L44.9483 4.74184L46.1274 3.68064C46.4394 3.39983 46.5955 3.25942 46.7719 3.20617C46.8496 3.18272 46.9299 3.17099 47.0102 3.17099ZM47.0225 5.05103H47.0256M47.0225 5.36031C46.8517 5.36031 46.7133 5.22184 46.7133 5.05103C46.7133 4.88023 46.8517 4.74175 47.0225 4.74175C47.1934 4.74175 47.3318 4.88023 47.3318 5.05103C47.3318 5.22184 47.1934 5.36031 47.0225 5.36031Z" stroke="white" stroke-width="0.466484" stroke-linecap="round" stroke-linejoin="round"/>
</g>
<g clip-path="url(#clip6_97_111)">
<path d="M61.9875 7.86465C61.9875 8.1162 61.8225 8.4461 61.6122 8.57393L61.0308 8.94919C60.4906 9.28321 59.7401 8.90795 59.7401 8.23991V6.03372C59.7401 5.74094 59.5751 5.36568 59.406 5.15949L57.8225 3.49351C57.6122 3.2832 57.4473 2.91207 57.4473 2.66052V1.70381C57.4473 1.20484 57.8225 0.82959 58.2803 0.82959H63.7813C64.239 0.82959 64.6143 1.20484 64.6143 1.66258V2.57804C64.6143 2.91206 64.404 3.32856 64.1978 3.53475M64.2761 7.06053L63.8637 6.64816M62.7091 6.81308C63.4379 6.81308 64.0287 6.22228 64.0287 5.49349C64.0287 4.76471 63.4379 4.1739 62.7091 4.1739C61.9803 4.1739 61.3895 4.76471 61.3895 5.49349C61.3895 6.22228 61.9803 6.81308 62.7091 6.81308Z" stroke="white" stroke-width="0.618558" stroke-linecap="round" stroke-linejoin="round"/>
</g>
<g clip-path="url(#clip7_97_111)">
<path d="M75.0522 0.514648C77.5002 0.514986 79.4849 2.50017 79.4849 4.94824C79.4847 7.39615 77.5001 9.38052 75.0522 9.38086C74.3438 9.38086 73.6724 9.21417 73.0776 8.91797C72.9893 8.87407 72.8987 8.86466 72.8228 8.88477L71.9048 9.13086C71.2765 9.29894 70.7016 8.72408 70.8696 8.0957L71.1147 7.17773C71.1351 7.10157 71.1257 7.01055 71.0815 6.92188C70.7854 6.32716 70.6187 5.65669 70.6187 4.94824C70.6187 2.49996 72.604 0.514648 75.0522 0.514648ZM75.0522 1.13379C72.9456 1.13379 71.2378 2.84158 71.2378 4.94824C71.2378 5.55888 71.3807 6.13549 71.6353 6.64648C71.7245 6.82588 71.7662 7.03607 71.7319 7.24707L71.7124 7.33789L71.4663 8.25586C71.4217 8.42418 71.5762 8.57827 71.7446 8.5332L72.6626 8.28711C72.9033 8.22284 73.1491 8.26223 73.354 8.36426C73.865 8.61871 74.4416 8.7627 75.0522 8.7627C77.1585 8.76236 78.8665 7.05453 78.8667 4.94824C78.8667 2.84179 77.1586 1.13413 75.0522 1.13379ZM73.4058 4.53613C73.6334 4.53624 73.8179 4.72056 73.8179 4.94824C73.8178 5.17583 73.6334 5.36025 73.4058 5.36035H73.4019C73.1743 5.36016 72.9899 5.17578 72.9897 4.94824C72.9897 4.72062 73.1743 4.53633 73.4019 4.53613H73.4058ZM75.0513 4.53613C75.279 4.53613 75.4634 4.7205 75.4634 4.94824C75.4633 5.1759 75.2789 5.36035 75.0513 5.36035H75.0474C74.82 5.36001 74.6354 5.17569 74.6353 4.94824C74.6353 4.72071 74.8199 4.53647 75.0474 4.53613H75.0513ZM76.7007 4.53613C76.9284 4.53613 77.1128 4.7205 77.1128 4.94824C77.1127 5.1759 76.9284 5.36035 76.7007 5.36035H76.6968C76.4694 5.35997 76.2848 5.17566 76.2847 4.94824C76.2847 4.72073 76.4694 4.53651 76.6968 4.53613H76.7007Z" fill="white"/>
</g>
<g clip-path="url(#clip8_97_111)">
<path d="M43.7953 20.2058C43.4796 20.4484 43.2988 20.7301 43.2988 21.0305C43.2988 21.9415 44.9605 22.68 47.0102 22.68C49.0599 22.68 50.7215 21.9415 50.7215 21.0305C50.7215 20.7301 50.5408 20.4484 50.225 20.2058M47.0102 16.7006V18.7625M45.9792 17.7316H48.0411M49.4844 17.8232C49.4844 19.2403 48.3767 20.389 47.0102 21.0305C45.6437 20.389 44.5359 19.2403 44.5359 17.8232C44.5359 16.4061 45.6437 15.2573 47.0102 15.2573C48.3767 15.2573 49.4844 16.4061 49.4844 17.8232Z" stroke="white" stroke-width="0.618558" stroke-linecap="round" stroke-linejoin="round"/>
</g>
<g clip-path="url(#clip9_97_111)">
<path fill-rule="evenodd" clip-rule="evenodd" d="M63.7115 15.8757C63.7115 16.1491 63.6029 16.4113 63.4095 16.6046C63.2162 16.798 62.954 16.9066 62.6805 16.9066C62.4071 16.9066 62.1449 16.798 61.9516 16.6046C61.7582 16.4113 61.6496 16.1491 61.6496 15.8757C61.6496 15.6022 61.7582 15.34 61.9516 15.1467C62.1449 14.9533 62.4071 14.8447 62.6805 14.8447C62.954 14.8447 63.2162 14.9533 63.4095 15.1467C63.6029 15.34 63.7115 15.6022 63.7115 15.8757ZM63.2991 15.8757C63.2991 16.0397 63.2339 16.197 63.1179 16.313C63.0019 16.429 62.8446 16.4942 62.6805 16.4942C62.5165 16.4942 62.3592 16.429 62.2432 16.313C62.1272 16.197 62.062 16.0397 62.062 15.8757C62.062 15.7116 62.1272 15.5543 62.2432 15.4383C62.3592 15.3223 62.5165 15.2571 62.6805 15.2571C62.8446 15.2571 63.0019 15.3223 63.1179 15.4383C63.2339 15.5543 63.2991 15.7116 63.2991 15.8757ZM61.5086 16.6122C61.2139 16.4715 60.909 16.4697 60.6587 16.4994C59.9698 16.581 59.4562 16.979 59.1191 17.3303C58.8416 17.6194 58.636 17.9309 58.5385 18.0788L58.537 18.0808C58.5164 18.1117 58.5032 18.1319 58.4943 18.1447C58.4033 18.2789 58.3686 18.4436 58.3977 18.6031C58.4268 18.7627 58.5175 18.9044 58.6501 18.9978C58.7827 19.0912 58.9467 19.1287 59.1067 19.1024C59.2667 19.076 59.41 18.9879 59.5057 18.8569C59.5304 18.8218 59.5572 18.7818 59.5845 18.7406L59.5855 18.739C59.6803 18.5963 59.8003 18.4165 59.9678 18.2338C59.8449 18.5746 59.7286 18.9018 59.7045 18.9845C59.6778 19.0776 59.6719 19.1755 59.6873 19.2711C59.6966 19.3299 59.7119 19.3783 59.7232 19.4101C59.7459 19.474 59.7752 19.5309 59.7979 19.5728C59.8451 19.6594 59.9071 19.7555 59.9706 19.8478C60.0999 20.0365 60.2721 20.2662 60.4407 20.4849C60.5898 20.6788 60.7414 20.8715 60.8655 21.0293L60.9158 21.0928C60.9826 21.1777 61.0376 21.248 61.0781 21.3004L61.0921 21.319C61.0921 21.319 61.1032 21.3629 61.11 21.3922C61.1333 21.4924 61.1605 21.6245 61.1898 21.7724L61.2473 22.0687L61.248 22.0718C61.2865 22.272 61.3251 22.4722 61.355 22.6072C61.3718 22.6873 61.4043 22.7632 61.4506 22.8306C61.497 22.898 61.5562 22.9555 61.6249 22.9999C61.6937 23.0442 61.7705 23.0745 61.851 23.089C61.9315 23.1034 62.0141 23.1018 62.094 23.0841C62.1738 23.0664 62.2494 23.0331 62.3163 22.986C62.3832 22.939 62.4401 22.8791 62.4837 22.8099C62.5273 22.7407 62.5567 22.6635 62.5703 22.5829C62.5839 22.5022 62.5813 22.4197 62.5628 22.34C62.5368 22.2219 62.503 22.0478 62.4655 21.8524C62.4457 21.7489 62.4247 21.64 62.4034 21.5328C62.3762 21.3921 62.3467 21.2519 62.315 21.1122C62.3017 21.0539 62.2869 20.996 62.2706 20.9386L62.2702 20.9371C62.2499 20.8629 62.2211 20.7914 62.1842 20.7239C62.1478 20.6645 62.1077 20.6075 62.064 20.5532L62.0583 20.5458C62.0133 20.4872 61.9541 20.4117 61.888 20.3276L61.8377 20.2641L61.8372 20.2635C61.7078 20.0994 61.5791 19.9348 61.4511 19.7697L61.862 18.9233C62.109 19.0968 62.3998 19.1972 62.7012 19.2132C63.2115 19.2406 63.6572 19.0169 63.8251 18.9328L63.8304 18.9301C63.8498 18.9202 63.8628 18.9136 63.8723 18.9095C63.9458 18.8748 64.0117 18.826 64.0663 18.7659C64.1209 18.7058 64.1632 18.6354 64.1906 18.559C64.2181 18.4825 64.2302 18.4014 64.2263 18.3203C64.2224 18.2391 64.2025 18.1595 64.1679 18.0861C64.1332 18.0126 64.0844 17.9467 64.0243 17.8921C63.9641 17.8374 63.8938 17.7952 63.8174 17.7678C63.7409 17.7403 63.6598 17.7282 63.5787 17.7321C63.4975 17.736 63.4179 17.7558 63.3445 17.7905C63.3208 17.8015 63.2974 17.8127 63.2744 17.8241C63.0836 17.9163 62.9282 17.9866 62.7671 17.9779C62.6995 17.9742 62.6245 17.9546 62.5362 17.8837C62.4403 17.8068 62.304 17.6491 62.1645 17.3289C62.029 17.0183 61.8191 16.7602 61.5086 16.6122ZM61.0921 21.319C61.0898 21.3099 61.0941 21.3262 61.0921 21.319V21.319ZM60.7073 16.9089C60.9207 16.8835 61.1362 16.8915 61.3311 16.9843C61.5311 17.0796 61.6803 17.2503 61.7863 17.4936C61.9445 17.8565 62.1162 18.0755 62.2781 18.2054C62.4374 18.3332 62.5962 18.3816 62.7451 18.3897C63.0212 18.4045 63.2653 18.2866 63.4385 18.2027L63.4533 18.1957L63.5203 18.1635C63.5696 18.1415 63.6255 18.1397 63.676 18.1584C63.7266 18.1772 63.7678 18.2149 63.7908 18.2637C63.8139 18.3125 63.8169 18.3683 63.7992 18.4193C63.7816 18.4702 63.7447 18.5122 63.6964 18.5363L63.6471 18.5606L63.6455 18.5614C63.4797 18.6447 63.1185 18.8227 62.723 18.8014C62.4929 18.7891 62.2506 18.712 62.0201 18.5272C61.9894 18.5025 61.9597 18.4766 61.9311 18.4495C61.9075 18.4273 61.879 18.411 61.848 18.4019C61.817 18.3927 61.7842 18.391 61.7524 18.3969C61.7206 18.4027 61.6906 18.416 61.6649 18.4356C61.6391 18.4552 61.6184 18.4806 61.6042 18.5097L61.0245 19.7041C61.0078 19.7385 61.001 19.7769 61.0048 19.815C61.0087 19.853 61.023 19.8892 61.0463 19.9196L61.0944 19.9821C61.2403 20.1717 61.389 20.3606 61.5133 20.5186L61.5139 20.5196L61.5638 20.5829C61.6302 20.6674 61.6882 20.7408 61.7315 20.7973L61.7335 20.7998C61.7704 20.8478 61.8092 20.899 61.8263 20.9287C61.8486 20.9678 61.8642 21.0181 61.8746 21.0536C61.8869 21.0965 61.9001 21.1485 61.9133 21.2056C61.9399 21.3198 61.9694 21.4633 61.9989 21.6126C62.0199 21.719 62.0407 21.8268 62.0607 21.9301L62.0612 21.9334C62.0983 22.1252 62.1327 22.3047 62.1601 22.4291C62.1703 22.4818 62.1594 22.5364 62.13 22.5813C62.1005 22.6261 62.0546 22.6577 62.0022 22.6693C61.9498 22.6809 61.8949 22.6716 61.8492 22.6434C61.8036 22.6152 61.7707 22.5702 61.7577 22.5181C61.729 22.3893 61.6917 22.1944 61.6523 21.9907V21.9903L61.5944 21.6924C61.5649 21.5439 61.5366 21.4062 61.5119 21.299C61.5019 21.2553 61.4908 21.2118 61.4787 21.1687C61.4717 21.1449 61.4606 21.1225 61.4457 21.1027L61.4049 21.0489C61.3502 20.9782 61.2952 20.9078 61.2399 20.8377L61.19 20.7744C61.0481 20.5949 60.9072 20.4147 60.7673 20.2336C60.5999 20.0159 60.4333 19.7936 60.3108 19.615C60.2566 19.5377 60.2063 19.4577 60.1599 19.3755C60.1414 19.3419 60.1252 19.3071 60.1115 19.2713C60.1039 19.2505 60.0983 19.2291 60.0948 19.2072C60.0887 19.1712 60.0907 19.1343 60.1005 19.0992C60.1257 19.013 60.2917 18.5499 60.4463 18.1223L60.5972 17.7058C60.6112 17.6673 60.6134 17.6254 60.6036 17.5857C60.5937 17.5459 60.5722 17.51 60.5418 17.4825C60.5115 17.455 60.4736 17.4371 60.433 17.4313C60.3925 17.4254 60.3511 17.4317 60.3141 17.4495C60.0865 17.5588 59.8865 17.7216 59.7141 17.9012C59.4966 18.128 59.3471 18.3528 59.244 18.508L59.242 18.5107C59.2135 18.554 59.1898 18.5895 59.1686 18.6196C59.1371 18.6643 59.0891 18.6946 59.0352 18.704C58.9813 18.7133 58.926 18.7009 58.8813 18.6694C58.8365 18.6379 58.8062 18.5899 58.7969 18.536C58.7875 18.4821 58.8 18.4268 58.8315 18.3821C58.8444 18.3637 58.8614 18.3381 58.8795 18.3105L58.8814 18.3078C58.9779 18.1614 59.1663 17.8765 59.4166 17.6159C59.722 17.2975 60.1531 16.9748 60.7073 16.9089Z" fill="white"/>
<path fill-rule="evenodd" clip-rule="evenodd" d="M59.91 20.16C59.888 20.1294 59.858 20.1054 59.8232 20.0906C59.7885 20.0759 59.7504 20.071 59.713 20.0764C59.6757 20.0818 59.6405 20.0974 59.6114 20.1214C59.5823 20.1454 59.5604 20.1769 59.548 20.2126L59.4397 20.5235L58.5952 20.3252C58.4366 20.2905 58.2707 20.3197 58.1334 20.4062C57.9961 20.4928 57.8983 20.6299 57.8611 20.7879C57.824 20.9459 57.8505 21.1122 57.9348 21.2509C58.0192 21.3896 58.1547 21.4896 58.3121 21.5293L59.6993 21.8555C59.8482 21.8905 60.0048 21.8691 60.1388 21.7954C60.2728 21.7217 60.3748 21.601 60.4251 21.4565L60.5261 21.1662C60.5369 21.1349 60.5401 21.1015 60.5353 21.0688C60.5306 21.0361 60.518 21.005 60.4987 20.9781L59.91 20.16ZM59.7682 20.8344L59.8069 20.7229L60.1014 21.132L60.0354 21.321C60.0186 21.3691 59.9847 21.4093 59.9401 21.4339C59.8954 21.4584 59.8433 21.4656 59.7937 21.454L58.4065 21.128C58.3537 21.1151 58.3081 21.0819 58.2797 21.0356C58.2513 20.9892 58.2423 20.9336 58.2547 20.8806C58.2672 20.8277 58.3 20.7819 58.346 20.753C58.3921 20.7242 58.4477 20.7147 58.5007 20.7266L59.5263 20.9674C59.5759 20.9791 59.6281 20.9719 59.6728 20.9474C59.7174 20.9228 59.7514 20.8826 59.7682 20.8344Z" fill="white"/>
</g>
<g clip-path="url(#clip10_97_111)">
<path d="M79.1914 22.1916H78.8384V21.1975C78.8384 21.0255 78.6989 20.886 78.5269 20.886C78.3915 20.886 78.2766 20.9726 78.2337 21.0933V18.9611C78.643 18.8292 78.9401 18.4448 78.9401 17.9922C78.9401 17.8276 78.8579 17.6739 78.721 17.5826L75.0636 15.1404V14.9865H75.7215C75.7417 14.9865 75.7605 14.9756 75.7704 14.958C75.7804 14.9403 75.7801 14.9186 75.7697 14.9013L75.6242 14.6595L75.7697 14.4177C75.7801 14.4004 75.7804 14.3787 75.7704 14.361C75.7605 14.3434 75.7417 14.3325 75.7215 14.3325H75.0636C75.0636 14.1604 74.9242 14.021 74.7522 14.021C74.5801 14.021 74.4407 14.1604 74.4407 14.3325V15.1646L70.8196 17.5826C70.6828 17.6739 70.6006 17.8276 70.6006 17.9922C70.6006 18.4448 70.8976 18.8292 71.307 18.9611V22.0668C71.307 22.2388 71.4464 22.3782 71.6184 22.3782C71.7538 22.3782 71.8688 22.2916 71.9117 22.171V22.503C71.9117 22.675 72.0511 22.8145 72.2231 22.8145H72.8876C73.0596 22.8145 73.199 22.675 73.199 22.503C73.199 22.331 73.0596 22.1916 72.8876 22.1916H72.5346V21.1975C72.5346 21.0255 72.3951 20.886 72.2231 20.886C72.0877 20.886 71.9728 20.9726 71.9299 21.0933V18.9613C72.0054 18.9369 72.077 18.9041 72.1438 18.8637C72.2972 18.9566 72.477 19.01 72.6691 19.01C72.855 19.01 73.0294 18.9598 73.1796 18.8723C73.1791 18.8737 73.3928 19.6131 73.3928 19.6131C73.4211 19.715 73.5139 19.7855 73.6197 19.7855H73.7928L73.7923 19.0063C73.8136 19.0123 74.0343 18.9795 74.2279 18.8624C74.2911 18.9006 74.3587 18.9322 74.4296 18.9564V22.1289C74.4296 22.2924 74.5494 22.4357 74.7119 22.4537C74.9039 22.4749 75.0665 22.3251 75.0665 22.1372L75.0691 22.5833C75.0691 22.7591 75.2116 22.9017 75.3875 22.9017H76.0585C76.2219 22.9017 76.3653 22.7819 76.3833 22.6195C76.4045 22.4274 76.2546 22.2648 76.0668 22.2648H75.7059V21.2568C75.7059 21.0933 75.5862 20.9499 75.4237 20.932C75.2316 20.9108 75.0691 21.0606 75.0691 21.2484L75.0668 18.9672C75.1501 18.9419 75.229 18.9066 75.3021 18.8624C75.4583 18.9569 75.6367 18.997 75.7048 19.0058L75.7045 19.7855H75.8615C75.9673 19.7855 76.0601 19.7149 76.0884 19.613C76.0884 19.613 76.3447 18.8646 76.3463 18.8637C76.4997 18.9565 76.6795 19.01 76.8716 19.01C77.0636 19.01 77.2434 18.9565 77.3969 18.8637C77.4636 18.904 77.5353 18.9369 77.6107 18.9612V22.0667C77.6107 22.2388 77.7502 22.3782 77.9222 22.3782C78.0576 22.3782 78.1725 22.2916 78.2154 22.1709V22.503C78.2154 22.675 78.3549 22.8144 78.5269 22.8144H79.1913C79.3633 22.8144 79.5028 22.675 79.5028 22.503C79.5028 22.331 79.3634 22.1916 79.1914 22.1916ZM77.9222 18.5175C77.6321 18.5175 77.3969 18.2823 77.3969 17.9922L74.7703 15.5368L76.3463 17.9922C76.3463 18.2823 76.1111 18.5175 75.821 18.5175C75.5308 18.5175 75.2957 18.2823 75.2957 17.9922L74.7703 15.5368L74.245 17.9922C74.245 18.2824 74.0098 18.5175 73.7197 18.5175C73.4295 18.5175 73.1944 18.2822 73.1944 17.9922L74.7703 15.5368L72.1438 17.9922C72.1438 18.2823 71.9085 18.5175 71.6184 18.5175C71.3282 18.5175 71.0931 18.2822 71.0931 17.9922L74.7703 15.5368L78.4475 17.9922C78.4475 18.2823 78.2123 18.5175 77.9222 18.5175Z" fill="white"/>
<path d="M76.4019 23.4778C76.2976 23.517 76.1848 23.5386 76.0669 23.5386H75.3875C75.136 23.5386 74.9071 23.4405 74.7363 23.281C74.6717 23.2207 74.6151 23.1519 74.5692 23.0758C74.3341 23.0311 74.1292 22.8999 73.9891 22.7168V23.281H73.4306C73.2671 23.281 73.1237 23.4008 73.1058 23.5633C73.0846 23.7554 73.2345 23.9179 73.4223 23.9179H76.0998C76.2577 23.9179 76.4079 23.7904 76.4244 23.6334C76.4302 23.5779 76.4215 23.525 76.4019 23.4778Z" fill="white"/>
</g>
<path d="M6.50616 34.7081L8.13189 36.3338M1.64941 32.6962C1.64921 31.339 2.60779 30.1706 3.93891 29.9056C5.27005 29.6406 6.603 30.3529 7.12253 31.6067C7.6421 32.8606 7.20356 34.3069 6.07513 35.0611C4.94671 35.8152 3.4427 35.6673 2.48288 34.7076C1.94929 34.1743 1.64948 33.4507 1.64941 32.6962Z" stroke="white" stroke-width="0.694558" stroke-linecap="round" stroke-linejoin="round"/>
<path d="M17.3194 32.1656V36.2893M17.3194 32.1656L15.6699 32.1656V36.2893H17.3194M17.3194 32.1656L19.4619 29.666C19.6652 29.4288 19.9851 29.3268 20.2882 29.4026L20.3077 29.4075C20.8611 29.5458 21.1103 30.1905 20.794 30.6651L19.7936 32.1656H21.6742C22.1947 32.1656 22.585 32.6417 22.483 33.152L21.9881 35.6263C21.911 36.0118 21.5725 36.2893 21.1794 36.2893H17.3194" stroke="white" stroke-width="0.618558" stroke-linecap="round" stroke-linejoin="round"/>
<g clip-path="url(#clip11_97_111)">
<path d="M23.4691 60.644C23.448 60.4754 23.417 60.3054 23.3769 60.1388C23.3769 60.1387 23.3769 60.1389 23.3769 60.1388C22.8347 57.8955 20.6967 56.4208 18.4035 56.7087C18.1637 56.7389 17.9257 56.7881 17.6963 56.8549C17.6959 56.855 17.6955 56.8551 17.695 56.8553C17.6932 56.8558 17.6914 56.8563 17.6896 56.8569C16.668 57.156 15.7798 57.8114 15.1882 58.7032C14.5888 59.6066 14.3333 60.6972 14.4684 61.7742C14.5344 62.2994 14.6889 62.8027 14.9275 63.27C14.9299 63.2752 14.9324 63.2802 14.9352 63.2852C15.3558 64.1024 16.0074 64.7658 16.8201 65.2038C17.4841 65.5617 18.2149 65.7454 18.9611 65.7454C19.1513 65.7454 19.3424 65.7335 19.5337 65.7095C19.5928 65.7021 19.6539 65.6931 19.7209 65.682C20.8773 65.4883 21.9011 64.8631 22.6039 63.9216C23.3087 62.9772 23.616 61.8133 23.4691 60.644ZM18.4615 57.1698C18.6337 57.1482 18.8049 57.1377 18.9744 57.1377C20.6771 57.1377 22.2049 58.2025 22.7902 59.8025C22.1747 59.5877 21.5348 59.4702 20.8803 59.4521C20.7673 59.0902 20.4296 58.8303 20.0336 58.8303C19.9659 58.8303 19.8986 58.8384 19.8331 58.8535C19.433 58.2175 18.9176 57.6517 18.3205 57.1902C18.3674 57.1826 18.4144 57.1757 18.4615 57.1698ZM20.4561 59.7175C20.4561 59.8933 20.3503 60.0478 20.1858 60.1117C20.1379 60.1305 20.0867 60.14 20.0336 60.14C19.8248 60.14 19.6494 59.9907 19.6165 59.784C19.613 59.7626 19.6112 59.7402 19.6112 59.7175C19.6112 59.5591 19.6988 59.4153 19.8405 59.3419C19.9 59.3108 19.965 59.2951 20.0337 59.2951C20.2582 59.2951 20.4434 59.4704 20.4553 59.6941C20.4554 59.6961 20.4555 59.698 20.4557 59.6999C20.4561 59.7058 20.4561 59.7116 20.4561 59.7175ZM19.5387 65.2399C19.5174 65.2429 19.4965 65.2458 19.4761 65.2483C17.8215 65.456 16.1985 64.6231 15.3997 63.1684C15.8599 62.2603 16.5463 61.4834 17.3908 60.9168C17.4973 60.8453 17.5258 60.701 17.4543 60.5944C17.3828 60.4878 17.2384 60.4594 17.1318 60.5309C16.3212 61.0748 15.6459 61.7982 15.1573 62.6412C15.046 62.3445 14.9696 62.035 14.9296 61.7163C14.6834 59.755 15.8542 57.9289 17.7238 57.3325C18.4025 57.7898 18.9851 58.3874 19.4225 59.0744C19.2672 59.2215 19.1697 59.4209 19.1504 59.6381C18.916 59.6961 18.6842 59.7672 18.4592 59.8509C18.3389 59.8956 18.2776 60.0294 18.3223 60.1497C18.3571 60.2433 18.4458 60.3012 18.5401 60.3012C18.567 60.3012 18.5944 60.2964 18.621 60.2865C18.8198 60.2127 19.0241 60.1492 19.2309 60.0969C19.3735 60.4015 19.6808 60.6048 20.0337 60.6048C20.0597 60.6048 20.0855 60.6036 20.1112 60.6013C20.1972 60.8994 20.2605 61.2055 20.2992 61.5145C20.4636 62.8222 20.2006 64.1079 19.5387 65.2399ZM20.1377 65.1097C20.3734 64.639 20.5494 64.1422 20.6627 63.6271C20.8191 62.9158 20.852 62.1855 20.7604 61.4565C20.7173 61.1126 20.6459 60.7717 20.5484 60.4403C20.7256 60.315 20.8501 60.1299 20.8984 59.9178C21.606 59.9412 22.2949 60.0899 22.9507 60.361C22.9746 60.4741 22.9938 60.5883 23.008 60.7018C23.2596 62.7058 22.0236 64.5503 20.1377 65.1097Z" fill="white"/>
<path d="M18.1623 60.219C18.1053 60.1041 17.9659 60.057 17.8509 60.114C17.8128 60.1328 17.7749 60.1521 17.7373 60.1717C17.6235 60.231 17.5792 60.3713 17.6385 60.4851C17.68 60.5647 17.7609 60.6102 17.8448 60.6102C17.881 60.6102 17.9177 60.6017 17.952 60.5839C17.9868 60.5657 18.0219 60.5479 18.0572 60.5304C18.1722 60.4734 18.2192 60.334 18.1623 60.219Z" fill="white"/>
</g>
<g clip-path="url(#clip12_97_111)">
<path d="M4.94884 45.5264C4.40319 45.5264 3.95915 45.9705 3.95915 46.5161C3.95915 47.0618 4.40319 47.5058 4.94884 47.5058C5.49448 47.5058 5.93853 47.0618 5.93853 46.5161C5.93853 45.9705 5.4945 45.5264 4.94884 45.5264ZM4.94884 47.011C4.67551 47.011 4.45399 46.7894 4.45399 46.5161C4.45399 46.2428 4.67551 46.0213 4.94884 46.0213C5.22216 46.0213 5.44368 46.2428 5.44368 46.5161C5.44368 46.7894 5.22216 47.011 4.94884 47.011Z" fill="white"/>
<path d="M9.86185 49.7963L8.93947 47.4903L9.3769 46.1778C9.42722 46.0269 9.40197 45.8609 9.30894 45.7319C9.21608 45.603 9.06664 45.5264 8.90761 45.5264H6.92822C6.76922 45.5264 6.61978 45.6029 6.52674 45.7319C6.43371 45.8609 6.40848 46.0269 6.45878 46.1778L6.89621 47.4903L6.23774 49.1367L5.92369 47.8806C5.8686 47.6604 5.67081 47.5058 5.44368 47.5058L4.94884 47.5058L4.45399 47.5058C4.22686 47.5058 4.02908 47.6604 3.97399 47.8806L3.87931 48.259L3.45639 45.9327C3.41367 45.6975 3.20864 45.5264 2.96947 45.5264H0.990086C0.750917 45.5264 0.546039 45.6975 0.503319 45.9328L0.00847297 48.6545C-0.0177578 48.7988 0.0213467 48.9474 0.115368 49.0601C0.209388 49.1727 0.348603 49.2377 0.495239 49.2377H0.811439L0.991729 51.5038C1.01218 51.761 1.22678 51.9594 1.48491 51.9594H2.47461C2.73276 51.9594 2.94751 51.761 2.96796 51.5038L3.1481 49.2378H3.4643C3.52731 49.2378 3.58735 49.2205 3.64459 49.1977L3.47899 49.8601C3.44205 50.0079 3.4752 50.1646 3.56905 50.2847C3.66289 50.4046 3.80675 50.4749 3.95915 50.4749V51.4646C3.95915 51.7379 4.18067 51.9594 4.45399 51.9594H5.44368C5.71701 51.9594 5.93853 51.7379 5.93853 51.4646V50.4749C6.02629 50.4749 6.10761 50.4462 6.18184 50.4035C6.25722 50.4483 6.34299 50.4749 6.43338 50.4749H6.92822V51.4646C6.92822 51.7379 7.14974 51.9594 7.42307 51.9594H8.41276C8.68609 51.9594 8.90761 51.7379 8.90761 51.4646V50.4749H9.40246C9.56674 50.4749 9.72014 50.3934 9.81219 50.2575C9.90424 50.1216 9.92288 49.9487 9.86185 49.7963ZM2.69102 48.7429L2.47461 51.4646H1.48491L1.26851 48.7429H0.49522L0.990067 46.0213H2.96945L3.4643 48.7429H2.69102ZM5.44368 49.98V51.4646H4.45399V49.98H3.95915L4.45399 48.0007H5.44368L5.93853 49.98H5.44368ZM8.41276 49.98V51.4646H7.42307V49.98H6.43338L7.42307 47.5058L6.92822 46.0213H8.90761L8.41276 47.5058L9.40246 49.98H8.41276Z" fill="white"/>
<path d="M7.91792 42.0625C7.09927 42.0625 6.43338 42.7284 6.43338 43.547C6.43338 44.3657 7.09927 45.0316 7.91792 45.0316C8.73656 45.0316 9.40246 44.3657 9.40246 43.547C9.40246 42.7284 8.73656 42.0625 7.91792 42.0625ZM7.91792 44.5367C7.37129 44.5367 6.92822 44.0937 6.92822 43.547C6.92822 43.0004 7.37129 42.5573 7.91792 42.5573C8.46455 42.5573 8.90761 43.0004 8.90761 43.547C8.90761 44.0937 8.46457 44.5367 7.91792 44.5367Z" fill="white"/>
<path d="M1.97976 42.0625C1.16129 42.0625 0.49522 42.7284 0.49522 43.547C0.49522 44.3657 1.16129 45.0316 1.97976 45.0316C2.7984 45.0316 3.4643 44.3657 3.4643 43.547C3.4643 42.7284 2.7984 42.0625 1.97976 42.0625ZM1.97976 44.5367C1.43313 44.5367 0.990067 44.0937 0.990067 43.547C0.990067 43.0004 1.43313 42.5573 1.97976 42.5573C2.52639 42.5573 2.96945 43.0004 2.96945 43.547C2.96945 44.0937 2.52641 44.5367 1.97976 44.5367Z" fill="white"/>
</g>
<g clip-path="url(#clip13_97_111)">
<path d="M23.4831 49.8192V48.7808C23.4831 48.6815 23.4367 48.5879 23.3575 48.5279L22.3613 47.7719C21.871 47.3999 21.2622 47.1951 20.6468 47.1951H19.8454C19.6701 47.1951 19.5279 47.3373 19.5279 47.5126C19.5279 47.6176 19.5105 47.7186 19.479 47.8131L18.9194 47.4367L18.9718 47.3589C19.0696 47.2134 19.031 47.0161 18.8855 46.9182C18.74 46.8203 18.5427 46.8589 18.4448 47.0044L17.9857 47.687C17.8878 47.8325 17.9264 48.0298 18.0719 48.1277C18.1263 48.1643 18.1879 48.1818 18.2489 48.1818C18.351 48.1818 18.4513 48.1326 18.5126 48.0415L18.565 47.9637L19.0867 48.3146C18.9393 48.4086 18.7646 48.4633 18.5773 48.4633H17.788C17.7802 48.2948 17.6416 48.1604 17.4712 48.1604H16.6624C16.5116 48.1604 16.3784 48.0552 16.3429 47.9092L16.2364 47.2477C16.2086 47.0745 16.0455 46.9568 15.8725 46.9846C15.8628 46.9862 15.8535 46.9883 15.8442 46.9907C15.7601 46.843 15.6299 46.7249 15.4732 46.656V43.6624C15.4732 43.1292 15.0393 42.6953 14.5061 42.6953C14.3307 42.6953 14.1885 42.8375 14.1885 43.0129C14.1885 43.1882 14.3307 43.3304 14.5061 43.3304C14.6891 43.3304 14.8381 43.4793 14.8381 43.6624V46.6561C14.559 46.7787 14.3635 47.0576 14.3635 47.3815V49.874C14.1564 50.0182 14.0205 50.2578 14.0205 50.5287C14.0205 50.9683 14.3781 51.3259 14.8177 51.3259H23.1202C23.5598 51.3259 23.9174 50.9683 23.9174 50.5287C23.9174 50.2198 23.7407 49.9515 23.4831 49.8192ZM14.9986 47.3815C14.9986 47.2949 15.0691 47.2245 15.1557 47.2245C15.2422 47.2245 15.3127 47.2949 15.3127 47.3815V47.7993C15.3127 48.5156 15.8954 49.0984 16.6117 49.0984H18.5773C19.3429 49.0984 19.9835 48.553 20.131 47.8302H20.6468C21.1244 47.8302 21.5969 47.9892 21.9773 48.2779L22.848 48.9385V49.7315H14.9986V47.3815ZM23.1202 50.6908H14.8177C14.7283 50.6908 14.6556 50.6181 14.6556 50.5287C14.6556 50.4393 14.7283 50.3666 14.8177 50.3666H23.1202C23.2096 50.3666 23.2823 50.4393 23.2823 50.5287C23.2823 50.6181 23.2096 50.6908 23.1202 50.6908Z" fill="white"/>
</g>
<g clip-path="url(#clip14_97_111)">
<path d="M8.11419 57.929C7.99462 57.807 7.7988 57.8051 7.67683 57.9247C7.55485 58.0442 7.55291 58.24 7.67249 58.362L7.89334 58.1455L8.11419 57.929ZM7.64836 63.7266C7.5277 63.8475 7.5279 64.0434 7.64881 64.164C7.76971 64.2847 7.96554 64.2845 8.08619 64.1636L7.86728 63.9451L7.64836 63.7266ZM1.84531 64.1979C1.96728 64.3175 2.1631 64.3155 2.28267 64.1936C2.40225 64.0716 2.40031 63.8758 2.27834 63.7562L2.06182 63.9771L1.84531 64.1979ZM2.25392 58.3322C2.37482 58.2115 2.37502 58.0157 2.25435 57.8948C2.13369 57.7739 1.93787 57.7737 1.81697 57.8944L2.03544 58.1133L2.25392 58.3322ZM6.92928 59.1773C6.80585 59.0592 6.61007 59.0636 6.492 59.187C6.37394 59.3104 6.37828 59.5062 6.50172 59.6243L6.7155 59.4008L6.92928 59.1773ZM6.48806 62.4382C6.36357 62.5552 6.35747 62.7509 6.47443 62.8754C6.59139 62.9999 6.78712 63.006 6.9116 62.889L6.69983 62.6636L6.48806 62.4382ZM3.00726 62.9093C3.13301 63.0249 3.32866 63.0167 3.44426 62.8909C3.55986 62.7652 3.55162 62.5695 3.42587 62.4539L3.21656 62.6816L3.00726 62.9093ZM3.41206 59.6085C3.53678 59.4917 3.54327 59.296 3.42656 59.1713C3.30985 59.0466 3.11413 59.0401 2.98941 59.1568L3.20074 59.3826L3.41206 59.6085ZM5.63151 60.3934L5.44847 60.6427L5.44847 60.6427L5.63151 60.3934ZM5.63151 61.6708L5.44847 61.4215L5.44847 61.4215L5.63151 61.6708ZM5.33547 61.8749L5.17028 61.6135L5.17019 61.6135L5.33547 61.8749ZM5.06599 62.0321L4.91752 61.7608L4.91749 61.7608L5.06599 62.0321ZM4.34796 62.223L4.52114 61.9667L4.52111 61.9667L4.34796 62.223ZM4.13765 61.4101L4.4463 61.3903L4.4463 61.3903L4.13765 61.4101ZM4.13765 60.6541L4.4463 60.674L4.4463 60.674L4.13765 60.6541ZM4.34796 59.8413L4.52109 60.0976L4.52112 60.0975L4.34796 59.8413ZM5.06599 60.0322L4.91749 60.3035L4.91753 60.3035L5.06599 60.0322ZM5.33547 60.1893L5.17023 60.4507L5.17028 60.4508L5.33547 60.1893ZM7.89334 58.1455L7.67249 58.362C8.3473 59.0504 8.76287 59.9924 8.76287 61.0321H9.07215H9.38143C9.38143 59.824 8.89777 58.7283 8.11419 57.929L7.89334 58.1455ZM9.07215 61.0321H8.76287C8.76287 62.0841 8.33736 63.0362 7.64836 63.7266L7.86728 63.9451L8.08619 64.1636C8.88619 63.3619 9.38143 62.2545 9.38143 61.0321H9.07215ZM2.06182 63.9771L2.27834 63.7562C1.57177 63.0635 1.13399 62.0992 1.13399 61.0321H0.824707H0.515428C0.515428 62.2721 1.02497 63.3937 1.84531 64.1979L2.06182 63.9771ZM0.824707 61.0321H1.13399C1.13399 59.9773 1.56171 59.023 2.25392 58.3322L2.03544 58.1133L1.81697 57.8944C1.01325 58.6965 0.515428 59.8065 0.515428 61.0321H0.824707ZM6.7155 59.4008L6.50172 59.6243C6.88302 59.989 7.11348 60.4833 7.11348 61.0248H7.42276H7.73204C7.73204 60.3016 7.42295 59.6495 6.92928 59.1773L6.7155 59.4008ZM7.42276 61.0248H7.11348C7.11348 61.5727 6.87754 62.0723 6.48806 62.4382L6.69983 62.6636L6.9116 62.889C7.41557 62.4155 7.73204 61.7566 7.73204 61.0248H7.42276ZM3.21656 62.6816L3.42587 62.4539C3.02633 62.0867 2.78357 61.5804 2.78357 61.0248H2.4743H2.16502C2.16502 61.7671 2.49065 62.4344 3.00726 62.9093L3.21656 62.6816ZM2.4743 61.0248H2.78357C2.78357 60.4755 3.02076 59.9746 3.41206 59.6085L3.20074 59.3826L2.98941 59.1568C2.48315 59.6306 2.16502 60.2911 2.16502 61.0248H2.4743ZM5.63151 60.3934L5.44847 60.6427C5.64246 60.7851 5.75424 60.8686 5.82333 60.941C5.87879 60.9991 5.87634 61.0184 5.87634 61.0321H6.18562H6.4949C6.4949 60.8139 6.40009 60.6494 6.27085 60.514C6.15524 60.3928 5.98997 60.2729 5.81455 60.1441L5.63151 60.3934ZM6.18562 61.0321H5.87634C5.87634 61.0458 5.87879 61.0651 5.82333 61.1232C5.75424 61.1957 5.64246 61.2791 5.44847 61.4215L5.63151 61.6708L5.81455 61.9201C5.98997 61.7913 6.15524 61.6714 6.27085 61.5502C6.40009 61.4148 6.4949 61.2503 6.4949 61.0321H6.18562ZM5.63151 61.6708L5.44847 61.4215C5.34998 61.4939 5.25508 61.5599 5.17028 61.6135L5.33547 61.8749L5.50066 62.1364C5.60176 62.0725 5.70917 61.9975 5.81455 61.9201L5.63151 61.6708ZM5.33547 61.8749L5.17019 61.6135C5.09591 61.6605 5.00959 61.7104 4.91752 61.7608L5.06599 62.0321L5.21445 62.3034C5.31364 62.2491 5.41198 62.1925 5.50075 62.1363L5.33547 61.8749ZM5.06599 62.0321L4.91749 61.7608C4.72184 61.8679 4.61389 61.9254 4.5356 61.9508C4.50191 61.9616 4.49293 61.9596 4.49869 61.96C4.50219 61.9603 4.50743 61.9611 4.51313 61.9631C4.51871 61.9651 4.52151 61.967 4.52114 61.9667L4.34796 62.223L4.17479 62.4792C4.3622 62.6059 4.5573 62.5938 4.7259 62.5393C4.8732 62.4917 5.04164 62.398 5.21448 62.3034L5.06599 62.0321ZM4.34796 62.223L4.52111 61.9667C4.52065 61.9664 4.52127 61.9668 4.52199 61.9676C4.52263 61.9683 4.52169 61.9675 4.51954 61.9636C4.51453 61.9547 4.50469 61.9325 4.49444 61.8849C4.47226 61.7818 4.46195 61.634 4.4463 61.3903L4.13765 61.4101L3.82901 61.4299C3.84338 61.6537 3.85558 61.8564 3.88974 62.015C3.92597 62.1834 3.99826 62.3599 4.17482 62.4792L4.34796 62.223ZM4.13765 61.4101L4.4463 61.3903C4.43806 61.262 4.43304 61.1395 4.43304 61.0321H4.12376H3.81448C3.81448 61.1571 3.82026 61.2938 3.82901 61.4299L4.13765 61.4101ZM4.12376 61.0321H4.43304C4.43304 60.9248 4.43806 60.8022 4.4463 60.674L4.13765 60.6541L3.82901 60.6343C3.82026 60.7705 3.81448 60.9071 3.81448 61.0321H4.12376ZM4.13765 60.6541L4.4463 60.674C4.46195 60.4302 4.47226 60.2824 4.49444 60.1794C4.50469 60.1318 4.51452 60.1096 4.51954 60.1006C4.52169 60.0967 4.52262 60.0959 4.52198 60.0967C4.52126 60.0975 4.52064 60.0979 4.52109 60.0976L4.34796 59.8413L4.17483 59.585C3.99826 59.7043 3.92597 59.8809 3.88974 60.0492C3.85558 60.2078 3.84338 60.4106 3.82901 60.6343L4.13765 60.6541ZM4.34796 59.8413L4.52112 60.0975C4.52149 60.0973 4.51869 60.0992 4.51312 60.1011C4.50742 60.1031 4.50218 60.104 4.49869 60.1042C4.49294 60.1046 4.50192 60.1026 4.53561 60.1135C4.61389 60.1388 4.72185 60.1964 4.91749 60.3035L5.06599 60.0322L5.21448 59.7609C5.04163 59.6662 4.87319 59.5726 4.7259 59.5249C4.55729 59.4704 4.36221 59.4584 4.1748 59.585L4.34796 59.8413ZM5.06599 60.0322L4.91753 60.3035C5.00956 60.3538 5.0959 60.4038 5.17023 60.4507L5.33547 60.1893L5.50072 59.9279C5.41199 59.8718 5.31367 59.8151 5.21444 59.7608L5.06599 60.0322ZM5.33547 60.1893L5.17028 60.4508C5.25508 60.5044 5.34998 60.5704 5.44847 60.6427L5.63151 60.3934L5.81455 60.1441C5.70917 60.0667 5.60176 59.9917 5.50067 59.9278L5.33547 60.1893Z" fill="white"/>
</g>
<g clip-path="url(#clip15_97_111)">
<path d="M7.33992 78.0209L6.59765 74.6395L8.04095 73.1962C8.65951 72.5776 8.8657 71.7529 8.65951 71.3405C8.24714 71.1343 7.4224 71.3405 6.80384 71.9591L5.36054 73.4024L1.97909 72.6601C1.7729 72.6189 1.60795 72.7013 1.52548 72.8663L1.40177 73.0725C1.31929 73.2787 1.36053 73.4848 1.52548 73.6085L3.71105 75.0519L2.8863 76.289H1.64919L1.23682 76.7013L2.47393 77.5261L3.29868 78.7632L3.71105 78.3508V77.1137L4.94816 76.289L6.39147 78.4745C6.51518 78.6395 6.72136 78.6807 6.92755 78.5983L7.13374 78.5158C7.29868 78.3921 7.38116 78.2271 7.33992 78.0209Z" stroke="white" stroke-width="0.549829" stroke-linecap="round" stroke-linejoin="round"/>
</g>
<g clip-path="url(#clip16_97_111)">
<path d="M22.8228 74.324H21.4737V72.9748C21.4737 71.9327 20.627 71.0859 19.5848 71.0859C19.4358 71.0859 19.315 71.2067 19.315 71.3558V72.705H17.9658C16.9237 72.705 16.077 73.5516 16.077 74.5938C16.077 74.7428 16.1978 74.8636 16.3468 74.8636H17.696V75.3378L15.0819 77.9519C14.7663 78.2675 14.7663 78.7811 15.0819 79.0967C15.3976 79.4123 15.9112 79.4123 16.2267 79.0967L18.0339 77.2896C18.3754 77.78 18.9432 78.1017 19.5848 78.1017C19.7338 78.1017 19.8546 77.9808 19.8546 77.8318V76.4826H21.2038C22.2453 76.4826 23.0927 75.6353 23.0927 74.5938C23.0927 74.4448 22.9719 74.324 22.8228 74.324ZM19.8546 72.9748V71.6526C20.4621 71.776 20.934 72.3166 20.934 72.9748V74.324H20.3481C20.266 74.0924 20.0813 73.9109 19.8546 73.8305V72.9748H19.8546ZM15.8452 78.7151C15.7399 78.8203 15.5687 78.8203 15.4635 78.7151C15.3583 78.6099 15.3583 78.4387 15.4635 78.3335L17.696 76.101V76.2128C17.696 76.4096 17.7263 76.5994 17.7823 76.7779L15.8452 78.7151ZM19.315 77.5349C18.6999 77.4095 18.2356 76.8644 18.2356 76.2128V74.8636H18.8215C18.9015 75.0892 19.0835 75.275 19.315 75.3571C19.315 75.437 19.315 77.4474 19.315 77.5349ZM19.315 73.8305C19.0863 73.9115 18.9026 74.0952 18.8215 74.324H17.9658H16.6436C16.7669 73.7166 17.3075 73.2446 17.9658 73.2446H19.315V73.8305ZM19.5848 74.8636C19.436 74.8636 19.315 74.7426 19.315 74.5938C19.315 74.445 19.436 74.324 19.5848 74.324C19.7336 74.324 19.8546 74.445 19.8546 74.5938C19.8546 74.7426 19.7336 74.8636 19.5848 74.8636ZM21.2038 75.943H19.8546V75.3571C20.077 75.2783 20.2648 75.0986 20.3481 74.8636H21.2038H22.5259C22.4005 75.4787 21.8554 75.943 21.2038 75.943Z" fill="white"/>
</g>
<g clip-path="url(#clip17_97_111)">
<path d="M35.2573 61.3872C35.5978 61.1463 35.9825 61.0694 36.3276 61.1938C36.7545 61.3478 37.0103 61.7677 37.0103 62.2837C37.0103 62.6538 36.7938 62.9884 36.5747 63.2407C36.3469 63.5031 36.0671 63.7327 35.8452 63.896C35.6892 64.0108 35.5137 64.1538 35.2573 64.1538C35.0012 64.1537 34.8263 64.0107 34.6704 63.896C34.4485 63.7327 34.1677 63.5031 33.9399 63.2407C33.7209 62.9884 33.5054 62.6537 33.5054 62.2837C33.5054 61.7678 33.7604 61.3479 34.187 61.1938C34.532 61.0695 34.9169 61.1465 35.2573 61.3872ZM32.1655 63.1958C32.336 63.1961 32.4751 63.3348 32.4751 63.5054C32.4751 63.676 32.3361 63.8146 32.1655 63.8149H29.2788C29.108 63.8149 28.9692 63.6762 28.9692 63.5054C28.9693 63.3346 29.108 63.1958 29.2788 63.1958H32.1655ZM36.1177 61.7759C35.9787 61.7258 35.7382 61.7463 35.4741 62.0063L35.2573 61.7856L35.0405 62.0063C34.7765 61.7463 34.5359 61.7258 34.397 61.7759C34.2648 61.8237 34.1235 61.972 34.1235 62.2837C34.1235 62.4227 34.2139 62.6123 34.4077 62.8354C34.5927 63.0484 34.8317 63.2462 35.0366 63.397C35.1326 63.4676 35.1798 63.5019 35.2173 63.522C35.242 63.5352 35.249 63.5347 35.2573 63.5347C35.2657 63.5347 35.2725 63.5352 35.2974 63.522C35.335 63.5019 35.3819 63.4678 35.478 63.397C35.683 63.2461 35.9228 63.0486 36.1079 62.8354C36.3017 62.6123 36.3911 62.4227 36.3911 62.2837C36.3911 61.9717 36.25 61.8236 36.1177 61.7759ZM32.1655 61.5454C32.3359 61.5457 32.4749 61.6846 32.4751 61.855C32.4751 62.0256 32.3361 62.1642 32.1655 62.1646H29.2788C29.108 62.1646 28.9692 62.0258 28.9692 61.855C28.9695 61.6844 29.1081 61.5454 29.2788 61.5454H32.1655ZM35.4741 62.0063C35.3537 62.1248 35.1609 62.1249 35.0405 62.0063L35.2573 61.7866L35.4741 62.0063ZM36.7017 59.896C36.8721 59.8963 37.0111 60.0351 37.0112 60.2056C37.0112 60.3762 36.8722 60.5148 36.7017 60.5151H29.2788C29.108 60.5151 28.9692 60.3764 28.9692 60.2056C28.9694 60.0349 29.1081 59.896 29.2788 59.896H36.7017ZM36.7017 58.2476C36.8721 58.2479 37.0111 58.3866 37.0112 58.5571C37.0112 58.7277 36.8722 58.8664 36.7017 58.8667H29.2788C29.108 58.8667 28.9692 58.7279 28.9692 58.5571C28.9694 58.3864 29.1081 58.2476 29.2788 58.2476H36.7017Z" fill="white"/>
</g>
<g clip-path="url(#clip18_97_111)">
<path d="M51.0738 63.5607V58.7411C51.0738 58.2722 50.6922 57.8906 50.2233 57.8906H43.7972C43.3282 57.8906 42.9466 58.2722 42.9466 58.7411V63.5607H42.4741V64.1278H43.9861V63.5607H43.5136V58.7411C43.5136 58.5848 43.6408 58.4576 43.7972 58.4576H44.9312V60.4763C44.8702 60.5453 44.8366 60.6329 44.8367 60.7257C44.8367 60.9341 45.0063 61.1037 45.2147 61.1037C45.4231 61.1037 45.5927 60.9341 45.5927 60.7257C45.5927 60.6302 45.5568 60.5431 45.4982 60.4765V58.4576H46.2542V60.4763C46.1933 60.5453 46.1596 60.6329 46.1597 60.7257C46.1597 60.9341 46.3293 61.1037 46.5377 61.1037C46.7461 61.1037 46.9157 60.9341 46.9157 60.7257C46.9157 60.6302 46.8798 60.5431 46.8212 60.4765V58.4576H48.2387V63.5607H47.7662V64.1278H51.5463V63.5607H51.0738ZM50.5068 63.5607H48.8057V62.9937H50.5068V63.5607ZM50.5068 62.4267H48.8057V61.8597H50.5068V62.4267ZM50.5068 61.2927H48.8057V60.7257H50.5068V61.2927ZM50.5068 60.1587H48.8057V59.5917H50.5068V60.1587ZM50.5068 59.0246H48.8057V58.4576H50.2233C50.3796 58.4576 50.5068 58.5848 50.5068 58.7411V59.0246Z" fill="white"/>
</g>
<g clip-path="url(#clip19_97_111)">
<path d="M60 58.4526C60 58.8628 59.8371 59.2561 59.5471 59.5461C59.2571 59.8361 58.8638 59.999 58.4536 59.999C58.0435 59.999 57.6502 59.8361 57.3602 59.5461C57.0701 59.2561 56.9072 58.8628 56.9072 58.4526C56.9072 58.0425 57.0701 57.6492 57.3602 57.3592C57.6502 57.0692 58.0435 56.9062 58.4536 56.9062C58.8638 56.9062 59.2571 57.0692 59.5471 57.3592C59.8371 57.6492 60 58.0425 60 58.4526ZM57.4227 58.4526C57.4227 58.7261 57.5313 58.9883 57.7246 59.1816C57.918 59.375 58.1802 59.4836 58.4536 59.4836C58.727 59.4836 58.9893 59.375 59.1826 59.1816C59.3759 58.9883 59.4846 58.7261 59.4846 58.4526C59.4846 58.1792 59.3759 57.917 59.1826 57.7237C58.9893 57.5303 58.727 57.4217 58.4536 57.4217C58.1802 57.4217 57.918 57.5303 57.7246 57.7237C57.5313 57.917 57.4227 58.1792 57.4227 58.4526Z" fill="white"/>
<path d="M61.5464 59.999H61.8041C62.0542 59.999 62.2957 60.0899 62.4838 60.2547C62.6718 60.4195 62.7936 60.647 62.8263 60.8949L64.4294 60.1825C64.5079 60.1476 64.5938 60.1328 64.6795 60.1395C64.7651 60.1462 64.8477 60.1742 64.9198 60.221C64.9919 60.2677 65.0511 60.3318 65.0921 60.4072C65.1331 60.4827 65.1546 60.5673 65.1547 60.6532V64.4996C65.1546 64.5854 65.1331 64.6699 65.0921 64.7453C65.0511 64.8207 64.9919 64.8847 64.9199 64.9314C64.8479 64.9782 64.7654 65.0062 64.6798 65.013C64.5943 65.0197 64.5084 65.005 64.4299 64.9702L62.8263 64.2578C62.7936 64.5057 62.6718 64.7332 62.4838 64.8981C62.2957 65.0629 62.0542 65.1537 61.8041 65.1537H57.9382C57.6647 65.1537 57.4025 65.0451 57.2092 64.8517C57.0158 64.6584 56.9072 64.3962 56.9072 64.1228V61.03C56.9072 60.7566 57.0158 60.4943 57.2092 60.301C57.4025 60.1077 57.6647 59.999 57.9382 59.999H61.5464ZM64.6392 64.499V60.6537L62.8351 61.4552V63.6975L64.6392 64.499ZM57.4227 61.03V64.1228C57.4227 64.2595 57.477 64.3906 57.5737 64.4872C57.6703 64.5839 57.8014 64.6382 57.9382 64.6382H61.8041C61.9409 64.6382 62.072 64.5839 62.1686 64.4872C62.2653 64.3906 62.3196 64.2595 62.3196 64.1228V61.03C62.3196 60.8933 62.2653 60.7621 62.1686 60.6655C62.072 60.5688 61.9409 60.5145 61.8041 60.5145H57.9382C57.8014 60.5145 57.6703 60.5688 57.5737 60.6655C57.477 60.7621 57.4227 60.8933 57.4227 61.03Z" fill="white"/>
<path d="M61.5464 59.999C61.9565 59.999 62.3499 59.8361 62.6399 59.5461C62.9299 59.2561 63.0928 58.8628 63.0928 58.4526C63.0928 58.0425 62.9299 57.6492 62.6399 57.3592C62.3499 57.0692 61.9565 56.9062 61.5464 56.9062C61.1363 56.9062 60.743 57.0692 60.4529 57.3592C60.1629 57.6492 60 58.0425 60 58.4526C60 58.8628 60.1629 59.2561 60.4529 59.5461C60.743 59.8361 61.1363 59.999 61.5464 59.999ZM60.5155 58.4526C60.5155 58.1792 60.6241 57.917 60.8174 57.7237C61.0108 57.5303 61.273 57.4217 61.5464 57.4217C61.8198 57.4217 62.0821 57.5303 62.2754 57.7237C62.4687 57.917 62.5773 58.1792 62.5773 58.4526C62.5773 58.7261 62.4687 58.9883 62.2754 59.1816C62.0821 59.375 61.8198 59.4836 61.5464 59.4836C61.273 59.4836 61.0108 59.375 60.8174 59.1816C60.6241 58.9883 60.5155 58.7261 60.5155 58.4526Z" fill="white"/>
</g>
<g clip-path="url(#clip20_97_111)">
<path d="M29.1522 71.0259L36.2739 78.1476C36.409 78.2827 36.485 78.466 36.485 78.6571C36.485 78.8483 36.409 79.0315 36.2739 79.1667C36.1387 79.3018 35.9555 79.3776 35.7644 79.3776C35.5733 79.3776 35.39 79.3018 35.2548 79.1667L33.5151 77.397C33.4013 77.2814 33.3374 77.1257 33.3373 76.9635V76.8566C33.3373 76.7746 33.3211 76.6935 33.2895 76.6179C33.2579 76.5423 33.2116 76.4738 33.1533 76.4162L32.9287 76.2088C32.8524 76.1385 32.7597 76.0884 32.659 76.0633C32.5584 76.0381 32.453 76.0387 32.3526 76.065C32.1944 76.1063 32.028 76.1055 31.8702 76.0627C31.7123 76.0199 31.5683 75.9365 31.4526 75.8209L29.8013 74.1693C28.8216 73.1897 28.4611 71.7104 29.1522 71.0259Z" stroke="white" stroke-width="0.582172" stroke-linejoin="round"/>
<path d="M35.7729 70.7217L34.2797 72.2149C34.1648 72.3298 34.0736 72.4662 34.0114 72.6163C33.9493 72.7664 33.9172 72.9273 33.9172 73.0898V73.377C33.9173 73.4177 33.9092 73.4579 33.8937 73.4955C33.8781 73.533 33.8553 73.5671 33.8266 73.5958L33.608 73.8145M34.2265 74.433L34.4451 74.2144C34.4739 74.1857 34.508 74.1629 34.5455 74.1473C34.5831 74.1317 34.6233 74.1237 34.664 74.1237H34.9512C35.1137 74.1237 35.2746 74.0917 35.4247 74.0296C35.5748 73.9674 35.7112 73.8762 35.8261 73.7613L37.3193 72.2681M36.5461 71.4949L34.9997 73.0413M31.9069 77.2165L29.9794 79.1549C29.8344 79.2999 29.6377 79.3813 29.4327 79.3813C29.2277 79.3813 29.031 79.2999 28.886 79.1549C28.7411 79.0099 28.6597 78.8133 28.6597 78.6083C28.6597 78.4033 28.7411 78.2066 28.886 78.0616L30.5152 76.4433" stroke="white" stroke-width="0.582172" stroke-linecap="round" stroke-linejoin="round"/>
</g>
<g clip-path="url(#clip21_97_111)">
<path d="M51.6498 78.1445H51.0312V73.8146C51.1132 73.8146 51.1919 73.782 51.2499 73.724C51.3079 73.666 51.3405 73.5873 51.3405 73.5053C51.3405 73.4233 51.3079 73.3446 51.2499 73.2866C51.1919 73.2286 51.1132 73.196 51.0312 73.196H49.1755V71.9589C49.2575 71.9589 49.3362 71.9263 49.3942 71.8683C49.4522 71.8103 49.4848 71.7316 49.4848 71.6496C49.4848 71.5676 49.4522 71.4889 49.3942 71.4309C49.3362 71.3729 49.2575 71.3403 49.1755 71.3403H43.6085C43.5265 71.3403 43.4478 71.3729 43.3898 71.4309C43.3318 71.4889 43.2992 71.5676 43.2992 71.6496C43.2992 71.7316 43.3318 71.8103 43.3898 71.8683C43.4478 71.9263 43.5265 71.9589 43.6085 71.9589V78.1445H42.9899C42.9079 78.1445 42.8293 78.1771 42.7712 78.2351C42.7132 78.2931 42.6807 78.3717 42.6807 78.4537C42.6807 78.5358 42.7132 78.6144 42.7712 78.6724C42.8293 78.7304 42.9079 78.763 42.9899 78.763H51.6498C51.7318 78.763 51.8104 78.7304 51.8684 78.6724C51.9264 78.6144 51.959 78.5358 51.959 78.4537C51.959 78.3717 51.9264 78.2931 51.8684 78.2351C51.8104 78.1771 51.7318 78.1445 51.6498 78.1445ZM50.4126 73.8146V78.1445H49.1755V73.8146H50.4126ZM44.2271 71.9589H48.557V78.1445H47.6291V76.2888C47.6291 76.2068 47.5965 76.1281 47.5385 76.0701C47.4805 76.0121 47.4019 75.9795 47.3198 75.9795H45.4642C45.3821 75.9795 45.3035 76.0121 45.2455 76.0701C45.1875 76.1281 45.1549 76.2068 45.1549 76.2888V78.1445H44.2271V71.9589ZM47.0106 78.1445H45.7735V76.5981H47.0106V78.1445ZM44.8456 73.196C44.8456 73.114 44.8782 73.0353 44.9362 72.9773C44.9942 72.9193 45.0729 72.8867 45.1549 72.8867H45.7735C45.8555 72.8867 45.9341 72.9193 45.9921 72.9773C46.0501 73.0353 46.0827 73.114 46.0827 73.196C46.0827 73.278 46.0501 73.3567 45.9921 73.4147C45.9341 73.4727 45.8555 73.5053 45.7735 73.5053H45.1549C45.0729 73.5053 44.9942 73.4727 44.9362 73.4147C44.8782 73.3567 44.8456 73.278 44.8456 73.196ZM46.7013 73.196C46.7013 73.114 46.7339 73.0353 46.7919 72.9773C46.8499 72.9193 46.9285 72.8867 47.0106 72.8867H47.6291C47.7112 72.8867 47.7898 72.9193 47.8478 72.9773C47.9058 73.0353 47.9384 73.114 47.9384 73.196C47.9384 73.278 47.9058 73.3567 47.8478 73.4147C47.7898 73.4727 47.7112 73.5053 47.6291 73.5053H47.0106C46.9285 73.5053 46.8499 73.4727 46.7919 73.4147C46.7339 73.3567 46.7013 73.278 46.7013 73.196ZM44.8456 74.7424C44.8456 74.6604 44.8782 74.5817 44.9362 74.5237C44.9942 74.4657 45.0729 74.4331 45.1549 74.4331H45.7735C45.8555 74.4331 45.9341 74.4657 45.9921 74.5237C46.0501 74.5817 46.0827 74.6604 46.0827 74.7424C46.0827 74.8244 46.0501 74.9031 45.9921 74.9611C45.9341 75.0191 45.8555 75.0517 45.7735 75.0517H45.1549C45.0729 75.0517 44.9942 75.0191 44.9362 74.9611C44.8782 74.9031 44.8456 74.8244 44.8456 74.7424ZM46.7013 74.7424C46.7013 74.6604 46.7339 74.5817 46.7919 74.5237C46.8499 74.4657 46.9285 74.4331 47.0106 74.4331H47.6291C47.7112 74.4331 47.7898 74.4657 47.8478 74.5237C47.9058 74.5817 47.9384 74.6604 47.9384 74.7424C47.9384 74.8244 47.9058 74.9031 47.8478 74.9611C47.7898 75.0191 47.7112 75.0517 47.6291 75.0517H47.0106C46.9285 75.0517 46.8499 75.0191 46.7919 74.9611C46.7339 74.9031 46.7013 74.8244 46.7013 74.7424Z" fill="white"/>
</g>
<g clip-path="url(#clip22_97_111)">
<path d="M61.0309 73.1962C61.0309 73.1962 61.3728 71.2725 63.3015 70.936C63.638 70.877 63.9176 71.1612 63.9176 71.5026V76.4977C63.9176 76.7253 63.732 76.9068 63.5052 76.9319C61.3967 77.1661 61.0309 79.1756 61.0309 79.1756M61.0309 73.1962V79.1756M61.0309 73.1962C60.2759 72.5311 59.2961 72.1641 58.2817 72.1653C58.2055 72.1653 58.1299 72.1674 58.0549 72.1715C57.5914 72.1958 57.3596 72.2082 57.1336 72.4469C56.9072 72.6857 56.9072 72.9797 56.9072 73.5686V76.9748C56.9072 77.4828 56.9072 77.7364 56.9984 77.8787C57.0403 77.9515 57.1006 78.0119 57.1732 78.054C57.3155 78.1447 57.6375 78.1447 58.2817 78.1447C59.2931 78.1421 60.2706 78.5086 61.0309 79.1756M61.0309 79.1756C61.7912 78.5086 62.7688 78.1425 63.7802 78.1451C64.4244 78.1451 64.7464 78.1451 64.8887 78.0544C64.974 77.9995 65.0087 77.9645 65.0635 77.8791C65.1547 77.7369 65.1547 77.4832 65.1547 76.9752V73.569C65.1547 72.9801 65.1547 72.6861 64.9283 72.4474C64.7019 72.2086 64.3806 72.19 63.9176 72.1653" stroke="white" stroke-width="0.463919" stroke-linecap="round" stroke-linejoin="round"/>
</g>
<g clip-path="url(#clip23_97_111)">
<path d="M57.4593 32.9754H59.3809L60.6181 34.2125L61.8552 31.7383L62.6799 32.9754H64.6016M61.0309 31.0084C60.3175 29.3919 58.6556 29.264 57.8803 29.9527C57.2494 30.5011 56.9484 31.8743 57.5216 33.1238C58.5154 35.2723 61.0309 36.4228 61.0309 36.4228C61.0309 36.4228 63.5463 35.2929 64.5401 33.1444C65.1133 31.9073 64.8123 30.5383 64.1814 29.9733C63.4061 29.264 61.7443 29.3919 61.0309 31.0084Z" stroke="white" stroke-width="0.576987" stroke-linecap="round" stroke-linejoin="round"/>
</g>
<g clip-path="url(#clip24_97_111)">
<path d="M72.9238 35.6884H73.8272M73.2115 31.7982L73.6639 29.5883M75.7649 31.1139L76.2173 28.904M71.0681 32.3729H79.161V36.7784C79.161 36.9659 79.0865 37.1457 78.9539 37.2783C78.8213 37.4109 78.6415 37.4854 78.454 37.4854H71.7743C71.5868 37.4854 71.407 37.4109 71.2744 37.2783C71.1419 37.1457 71.0674 36.9659 71.0674 36.7784L71.0681 32.3729ZM71.0674 32.3729L78.8831 30.2783L78.5438 29.0129C78.5199 28.9231 78.4784 28.839 78.4219 28.7652C78.3654 28.6915 78.295 28.6296 78.2145 28.5832C78.1341 28.5367 78.0453 28.5065 77.9532 28.4943C77.8611 28.4822 77.7676 28.4883 77.6778 28.5124L71.2279 30.2415C71.0469 30.2901 70.8926 30.4085 70.7989 30.5707C70.7052 30.733 70.6797 30.9258 70.7281 31.1068L71.0674 32.3729Z" stroke="white" stroke-width="0.494846" stroke-linecap="round" stroke-linejoin="round"/>
</g>
<g clip-path="url(#clip25_97_111)">
<path d="M77.9385 60.206H77.5262M76.2891 61.4431C76.2891 62.1263 75.7352 62.6802 75.0519 62.6802C74.3687 62.6802 73.8148 62.1263 73.8148 61.4431C73.8148 60.7598 74.3687 60.206 75.0519 60.206C75.7352 60.206 76.2891 60.7598 76.2891 61.4431ZM74.1357 64.7421H75.9682C77.2552 64.7421 77.899 64.7421 78.3612 64.439C78.5607 64.3083 78.7325 64.1396 78.8668 63.9425C79.1757 63.4889 79.1757 62.8567 79.1757 61.5932C79.1757 60.3297 79.1757 59.6975 78.8668 59.2439C78.7325 59.0468 78.5607 58.8781 78.3612 58.7474C78.0643 58.5523 77.6924 58.4827 77.1229 58.4579C76.8511 58.4579 76.6173 58.2559 76.5641 57.994C76.5235 57.8022 76.4178 57.6303 76.2651 57.5074C76.1123 57.3845 75.9218 57.318 75.7258 57.3194H74.3781C73.9707 57.3194 73.6198 57.6018 73.5398 57.994C73.4866 58.2559 73.2528 58.4579 72.981 58.4579C72.4119 58.4827 72.04 58.5528 71.7427 58.7474C71.5433 58.8781 71.3716 59.0468 71.2375 59.2439C70.9282 59.6975 70.9282 60.3293 70.9282 61.5932C70.9282 62.8571 70.9282 63.4884 71.2371 63.9425C71.3707 64.1388 71.5422 64.3074 71.7427 64.439C72.2049 64.7421 72.8486 64.7421 74.1357 64.7421Z" stroke="white" stroke-width="0.618558" stroke-linecap="round"/>
</g>
<g clip-path="url(#clip26_97_111)">
<path d="M65.9603 50.4374C65.9235 50.3524 65.8397 50.2974 65.747 50.2974H63.6412C63.8697 50.053 64.0645 49.7771 64.2162 49.4802C64.4745 48.9744 64.6055 48.428 64.6055 47.8563C64.6055 47.7279 64.5014 47.6238 64.3731 47.6238H57.6888C57.5605 47.6238 57.4564 47.7279 57.4564 47.8563C57.4564 47.9529 57.4605 48.0487 57.4679 48.1437H56.8877C56.7318 48.1437 56.5855 48.2044 56.476 48.3143C56.3661 48.4243 56.3055 48.5705 56.3055 48.726C56.3055 49.337 56.8024 49.8341 57.4133 49.8341H58.0534C58.1628 49.9981 58.2859 50.1532 58.4207 50.2974H56.315C56.2224 50.2974 56.1385 50.3525 56.1017 50.4374C56.0649 50.5225 56.082 50.6212 56.1454 50.6888C56.5872 51.1603 57.2112 51.4307 57.8573 51.4307H64.2046C64.8508 51.4307 65.4748 51.1603 65.9166 50.6888C65.98 50.6212 65.9971 50.5225 65.9603 50.4374ZM56.7703 48.726C56.7703 48.6947 56.7825 48.6652 56.8051 48.6427C56.8269 48.6207 56.8563 48.6086 56.8877 48.6086H57.5353C57.5912 48.8701 57.6768 49.1242 57.7916 49.3692H57.4133C57.0588 49.3692 56.7703 49.0806 56.7703 48.726ZM57.9297 48.0887H64.1321C64.0686 48.96 63.6491 49.7518 62.957 50.2974H59.1048C58.4128 49.7518 57.9932 48.96 57.9297 48.0887ZM64.2046 50.9659H57.8573C57.5602 50.9659 57.2688 50.8945 57.0076 50.7623H65.0544C64.7932 50.8945 64.5018 50.9659 64.2046 50.9659Z" fill="white"/>
<path d="M59.4761 45.1217L60.6631 45.6843C61.0197 45.8534 61.2498 46.2034 61.2638 46.5977C61.2682 46.7232 61.3714 46.822 61.4959 46.8219C61.4987 46.8219 61.5015 46.8219 61.5043 46.8218C61.6326 46.8173 61.7329 46.7096 61.7284 46.5813C61.7083 46.0126 61.3764 45.508 60.8622 45.2642L59.6752 44.7016C59.2691 44.5091 59.0954 44.0222 59.2879 43.6162C59.3811 43.4195 59.5453 43.2709 59.7503 43.1977C59.9554 43.1246 60.1766 43.1356 60.3733 43.2289C60.4893 43.2839 60.6279 43.2344 60.6829 43.1184C60.7378 43.0024 60.6884 42.8637 60.5724 42.8088C60.2635 42.6623 59.916 42.645 59.5941 42.7599C59.2721 42.8748 59.0142 43.1082 58.8677 43.4171C58.5655 44.0548 58.8384 44.8195 59.4761 45.1217Z" fill="white"/>
<path d="M61.472 43.2856C61.7953 42.9736 62.3122 42.9828 62.6242 43.3061C62.9359 43.629 62.9271 44.1451 62.6049 44.4572L61.7679 45.2417C61.6742 45.3295 61.6694 45.4766 61.7572 45.5703C61.803 45.6192 61.8649 45.6438 61.9269 45.6438C61.9839 45.6438 62.041 45.623 62.0858 45.581L62.9242 44.7952C62.925 44.7944 62.9258 44.7937 62.9266 44.7929C63.4344 44.3028 63.4488 43.491 62.9587 42.9832C62.4687 42.4755 61.6569 42.461 61.1491 42.9511C61.0567 43.0402 61.0541 43.1874 61.1433 43.2798C61.2324 43.3721 61.3796 43.3747 61.472 43.2856Z" fill="white"/>
<path d="M60.7612 46.6013C60.8687 46.5313 60.8992 46.3872 60.8291 46.2797C60.759 46.1721 60.615 46.1416 60.5075 46.2117C60.2361 46.3884 60.1029 46.7191 60.1758 47.0345L60.2005 47.1414C60.2254 47.2489 60.321 47.3216 60.4268 47.3216C60.4441 47.3216 60.4617 47.3196 60.4794 47.3155C60.6044 47.2866 60.6824 47.1618 60.6535 47.0367L60.6288 46.9298C60.5996 46.8039 60.6528 46.6719 60.7612 46.6013Z" fill="white"/>
</g>
<g clip-path="url(#clip27_97_111)">
<path d="M76.5981 51.0319H73.5053M76.5981 51.0319C76.9383 51.0319 77.2166 50.7535 77.2166 50.4133V46.3927C77.2166 46.0525 76.9383 45.7741 76.5981 45.7741H73.5053C73.1651 45.7741 72.8867 46.0525 72.8867 46.3927V50.4133C72.8867 50.7535 73.1651 51.0319 73.5053 51.0319M76.5981 51.0319V51.6504M73.5053 51.0319V51.6504M72.8867 47.6298H77.2166M73.8146 42.3721H76.2888M74.1238 42.3721H75.9795V45.7741H74.1238V42.3721Z" stroke="white" stroke-width="0.494846" stroke-miterlimit="10" stroke-linecap="round" stroke-linejoin="round"/>
</g>
<g clip-path="url(#clip28_97_111)">
<path d="M77.4729 71.0654C76.8807 70.7251 76.1779 70.633 75.518 70.8092C74.8581 70.9853 74.2947 71.4154 73.9508 72.0056L73.8568 72.1683C73.8364 72.2035 73.8232 72.2423 73.8178 72.2827C73.8125 72.323 73.8151 72.364 73.8256 72.4033C73.8361 72.4426 73.8543 72.4794 73.8791 72.5117C73.9039 72.544 73.9348 72.571 73.97 72.5913L75.608 73.5328L74.6003 75.2938C73.7034 75.4107 72.9426 75.9928 72.4601 76.7747C72.6899 76.723 72.9307 76.7605 73.1337 76.8798C73.5834 76.2773 74.2348 75.8914 74.9331 75.8914C75.6315 75.8914 76.2828 76.2773 76.7319 76.8804C76.9351 76.761 77.1762 76.7234 77.4061 76.7753C76.9317 76.0052 76.1875 75.4299 75.3092 75.3L76.1436 73.8402L77.9003 74.8497C77.9712 74.8904 78.0552 74.9014 78.1342 74.8803C78.2131 74.8592 78.2805 74.8077 78.3216 74.7371L78.4162 74.5738C78.5857 74.2818 78.6957 73.9591 78.74 73.6243C78.7843 73.2895 78.7619 72.9493 78.6742 72.6232C78.5865 72.2971 78.4351 71.9916 78.2288 71.7242C78.0226 71.4569 77.7661 71.233 77.4729 71.0654ZM74.5508 72.2122C74.7767 71.8752 75.1012 71.6163 75.4799 71.4709C75.8586 71.3255 76.273 71.3007 76.6663 71.4C76.4525 71.5086 76.2481 71.6348 76.0552 71.7773C75.744 72.0124 75.5034 72.2784 75.2541 72.6167L74.5508 72.2122ZM76.4275 72.2709C76.5995 72.141 76.8005 72.021 77.0597 71.8949C77.0931 72.1423 77.1005 72.3544 77.0746 72.5617C77.0399 72.8338 76.9459 73.1177 76.748 73.4746L75.7941 72.926C76.0045 72.6476 76.1944 72.4466 76.4275 72.2703M77.9387 74.1582L77.2843 73.7821C77.5131 73.372 77.6412 73.0107 77.6882 72.6384C77.7129 72.4429 77.7135 72.2493 77.6987 72.0507C77.9387 72.3409 78.0891 72.6946 78.1318 73.0688C78.1744 73.4429 78.1073 73.8214 77.9387 74.1582ZM72.9581 77.5831C72.9369 77.5195 72.8957 77.4644 72.8405 77.4263C72.7854 77.3881 72.7193 77.3689 72.6523 77.3716C72.5853 77.3742 72.521 77.3986 72.469 77.441C72.4171 77.4834 72.3803 77.5415 72.3642 77.6066C72.2863 77.9233 72.1422 78.0891 71.9844 78.185C71.8156 78.287 71.596 78.3291 71.3405 78.3291C71.2585 78.3291 71.1798 78.3617 71.1218 78.4197C71.0638 78.4777 71.0312 78.5563 71.0312 78.6384C71.0312 78.7204 71.0638 78.7991 71.1218 78.8571C71.1798 78.9151 71.2585 78.9476 71.3405 78.9476C71.6523 78.9476 71.9999 78.8982 72.3042 78.7145C72.4552 78.6229 72.5882 78.5035 72.6976 78.3526C73.2921 79.0206 74.3554 79.0169 74.9337 78.3408C75.522 79.0293 76.6137 79.0213 77.2014 78.3161C77.3625 78.512 77.5647 78.67 77.7936 78.7792C78.0226 78.8883 78.2727 78.9458 78.5263 78.9476C78.6083 78.9476 78.687 78.9151 78.745 78.8571C78.803 78.7991 78.8356 78.7204 78.8356 78.6384C78.8356 78.5563 78.803 78.4777 78.745 78.4197C78.687 78.3617 78.6083 78.3291 78.5263 78.3291C78.0834 78.3291 77.6424 78.0396 77.497 77.5862C77.477 77.5242 77.438 77.4701 77.3854 77.4317C77.3328 77.3932 77.2695 77.3723 77.2043 77.3719C77.1392 77.3716 77.0756 77.3918 77.0227 77.4297C76.9697 77.4677 76.9301 77.5213 76.9094 77.5831C76.6218 78.4497 75.5053 78.4349 75.2257 77.6202C75.2047 77.5595 75.1652 77.5067 75.1128 77.4694C75.0604 77.4321 74.9977 77.4121 74.9334 77.4121C74.8691 77.4121 74.8064 77.4321 74.754 77.4694C74.7016 77.5067 74.6622 77.5595 74.6412 77.6202C74.3609 78.4349 73.2451 78.4497 72.9581 77.5831Z" fill="white"/>
</g>
<defs>
<clipPath id="clip0_97_111">
<rect width="9.89693" height="9.89693" fill="white"/>
</clipPath>
<clipPath id="clip1_97_111">
<rect width="9.89693" height="9.89693" fill="white" transform="translate(28.041)"/>
</clipPath>
<clipPath id="clip2_97_111">
<rect width="9.89693" height="9.89693" fill="white" transform="translate(0 14.021)"/>
</clipPath>
<clipPath id="clip3_97_111">
<rect width="9.89693" height="9.89693" fill="white" transform="translate(14.0205 14.021)"/>
</clipPath>
<clipPath id="clip4_97_111">
<rect width="9.89693" height="9.89693" fill="white" transform="translate(28.041 14.021)"/>
</clipPath>
<clipPath id="clip5_97_111">
<rect width="9.89693" height="9.89693" fill="white" transform="translate(42.062)"/>
</clipPath>
<clipPath id="clip6_97_111">
<rect width="9.89693" height="9.89693" fill="white" transform="translate(56.0825)"/>
</clipPath>
<clipPath id="clip7_97_111">
<rect width="9.89693" height="9.89693" fill="white" transform="translate(70.103)"/>
</clipPath>
<clipPath id="clip8_97_111">
<rect width="9.89693" height="9.89693" fill="white" transform="translate(42.062 14.021)"/>
</clipPath>
<clipPath id="clip9_97_111">
<rect width="9.89693" height="9.89693" fill="white" transform="translate(56.0825 14.021)"/>
</clipPath>
<clipPath id="clip10_97_111">
<rect width="9.89693" height="9.89693" fill="white" transform="translate(70.103 14.021)"/>
</clipPath>
<clipPath id="clip11_97_111">
<rect width="9.89693" height="9.89693" fill="white" transform="translate(14.0205 56.082)"/>
</clipPath>
<clipPath id="clip12_97_111">
<rect width="9.89693" height="9.89693" fill="white" transform="translate(0 42.0625)"/>
</clipPath>
<clipPath id="clip13_97_111">
<rect width="9.89693" height="9.89693" fill="white" transform="translate(14.0205 42.0625)"/>
</clipPath>
<clipPath id="clip14_97_111">
<rect width="9.89693" height="9.89693" fill="white" transform="translate(0 56.0835)"/>
</clipPath>
<clipPath id="clip15_97_111">
<rect width="9.89693" height="9.89693" fill="white" transform="translate(0 70.1025)"/>
</clipPath>
<clipPath id="clip16_97_111">
<rect width="9.89693" height="9.89693" fill="white" transform="translate(14.0205 70.1025)"/>
</clipPath>
<clipPath id="clip17_97_111">
<rect width="9.89693" height="9.89693" fill="white" transform="translate(28.041 56.082)"/>
</clipPath>
<clipPath id="clip18_97_111">
<rect width="9.89693" height="9.89693" fill="white" transform="translate(42.062 56.0835)"/>
</clipPath>
<clipPath id="clip19_97_111">
<rect width="9.89693" height="9.89693" fill="white" transform="translate(56.0825 56.082)"/>
</clipPath>
<clipPath id="clip20_97_111">
<rect width="9.89693" height="9.89693" fill="white" transform="translate(28.041 70.1025)"/>
</clipPath>
<clipPath id="clip21_97_111">
<rect width="9.89693" height="9.89693" fill="white" transform="translate(42.062 70.1025)"/>
</clipPath>
<clipPath id="clip22_97_111">
<rect width="9.89693" height="9.89693" fill="white" transform="translate(56.0825 70.1025)"/>
</clipPath>
<clipPath id="clip23_97_111">
<rect width="9.89693" height="9.89693" fill="white" transform="translate(56.0825 28.0415)"/>
</clipPath>
<clipPath id="clip24_97_111">
<rect width="9.89693" height="9.89693" fill="white" transform="translate(70.103 28.0415)"/>
</clipPath>
<clipPath id="clip25_97_111">
<rect width="9.89693" height="9.89693" fill="white" transform="translate(70.103 56.082)"/>
</clipPath>
<clipPath id="clip26_97_111">
<rect width="9.89693" height="9.89693" fill="white" transform="translate(56.0825 42.0625)"/>
</clipPath>
<clipPath id="clip27_97_111">
<rect width="9.89693" height="9.89693" fill="white" transform="translate(70.103 42.0625)"/>
</clipPath>
<clipPath id="clip28_97_111">
<rect width="9.89693" height="9.89693" fill="white" transform="translate(70.103 70.103)"/>
</clipPath>
</defs>
</svg>
