<svg width="40" height="40" viewBox="0 0 40 40" fill="none" xmlns="http://www.w3.org/2000/svg">
<path d="M0 20C0 8.95431 8.95431 0 20 0C31.0457 0 40 8.95431 40 20C40 31.0457 31.0457 40 20 40C8.95431 40 0 31.0457 0 20Z" fill="#4D14BE" fill-opacity="0.15"/>
<path opacity="0.4" d="M19.9999 8.3335C16.9433 8.3335 14.4583 10.8185 14.4583 13.8752C14.4583 16.8735 16.8033 19.3002 19.8599 19.4052C19.9533 19.3935 20.0466 19.3935 20.1166 19.4052C20.1399 19.4052 20.1516 19.4052 20.1749 19.4052C20.1866 19.4052 20.1866 19.4052 20.1983 19.4052C23.1849 19.3002 25.5299 16.8735 25.5416 13.8752C25.5416 10.8185 23.0566 8.3335 19.9999 8.3335Z" fill="#4D14BE"/>
<path d="M25.9278 22.5084C22.6728 20.3384 17.3645 20.3384 14.0862 22.5084C12.6045 23.5 11.7878 24.8417 11.7878 26.2767C11.7878 27.7117 12.6045 29.0417 14.0745 30.0217C15.7078 31.1184 17.8545 31.6667 20.0011 31.6667C22.1478 31.6667 24.2945 31.1184 25.9278 30.0217C27.3978 29.03 28.2145 27.7 28.2145 26.2534C28.2028 24.8184 27.3978 23.4884 25.9278 22.5084Z" fill="#4D14BE"/>
</svg>
