<svg width="16" height="16" viewBox="0 0 16 16" fill="none" xmlns="http://www.w3.org/2000/svg">
<path d="M9.33341 2.66683C9.33341 3.40321 8.73648 4.00016 8.00008 4.00016C7.26368 4.00016 6.66675 3.40321 6.66675 2.66683C6.66675 1.93045 7.26368 1.3335 8.00008 1.3335C8.73648 1.3335 9.33341 1.93045 9.33341 2.66683Z" fill="#CE0FB5" stroke="#CE0FB5" stroke-linecap="round" stroke-linejoin="round"/>
<path d="M6.66688 10.6665V13.3332C6.66688 13.9617 6.66688 14.276 6.86215 14.4712C7.05741 14.6665 7.37168 14.6665 8.00021 14.6665C8.62875 14.6665 8.94301 14.6665 9.13828 14.4712C9.33355 14.276 9.33355 13.9617 9.33355 13.3332V10.6665L9.50695 10.667C10.5419 10.6668 11.0593 10.6668 11.2619 10.3431C11.4644 10.0195 11.2209 9.5817 10.7339 8.70617L9.53395 6.54889C9.23181 6.00566 8.64195 5.66638 7.99981 5.6665C7.35795 5.66662 6.76841 6.00584 6.46635 6.54884L5.26631 8.70617C4.77928 9.5817 4.53577 10.0194 4.73829 10.3431C4.94081 10.6668 5.45828 10.6668 6.49323 10.667L6.66688 10.6665Z" fill="#CE0FB5" stroke="#CE0FB5" stroke-linecap="round" stroke-linejoin="round"/>
</svg>
