<svg width="133" height="30" viewBox="0 0 133 30" fill="none" xmlns="http://www.w3.org/2000/svg">
<g clip-path="url(#clip0_24_463)">
<path d="M2.91854 3.64429H2.51891C2.47254 3.64429 2.43495 3.6067 2.43495 3.56033V3.24062H1.2765V3.56033C1.2765 3.6067 1.23891 3.64429 1.19254 3.64429H0.792907C0.746541 3.64429 0.708948 3.6067 0.708948 3.56033V3.48751H0.393285C0.346919 3.48751 0.309326 3.44992 0.309326 3.40355V2.56527C0.309326 2.5189 0.346919 2.48131 0.393285 2.48131H0.708938V2.4085C0.708938 2.36213 0.74653 2.32454 0.792896 2.32454H1.19253C1.2389 2.32454 1.27649 2.36213 1.27649 2.4085V2.72821H2.43495V2.4085C2.43495 2.36213 2.47254 2.32454 2.51891 2.32454H2.91854C2.96491 2.32454 3.0025 2.36213 3.0025 2.4085V2.48131H3.31815C3.36452 2.48131 3.40211 2.5189 3.40211 2.56527V3.40354C3.40211 3.44991 3.36452 3.4875 3.31815 3.4875H3.0025V3.56032C3.0025 3.6067 2.96492 3.64429 2.91854 3.64429ZM2.60288 3.47638H2.83459V2.49245H2.60288V3.47638ZM0.876865 3.47638H1.10858V2.49245H0.876865V3.47638ZM3.0025 3.31958H3.23419V2.64923H3.0025V3.31958ZM0.477243 3.31958H0.708938V2.64923H0.477243V3.31958ZM1.2765 3.0727H2.43496V2.89613H1.2765V3.0727ZM1.66703 2.5584C1.65306 2.5584 1.63891 2.55492 1.62587 2.54757C1.58548 2.5248 1.5712 2.47358 1.59397 2.4332C1.74376 2.16756 1.94599 1.94297 2.18392 1.77013C2.08009 1.62632 1.96146 1.49545 1.83045 1.37944C1.50491 1.72999 1.0606 1.96605 0.566922 2.02591C0.577857 2.07008 0.591091 2.11373 0.606634 2.15676C0.622387 2.20036 0.599813 2.24849 0.556196 2.26424C0.512559 2.28001 0.464461 2.25741 0.448708 2.2138C0.390241 2.05192 0.360593 1.88217 0.360593 1.70924C0.360593 0.884815 1.03131 0.214111 1.85573 0.214111C2.68014 0.214111 3.35084 0.884815 3.35084 1.70924C3.35084 1.85804 3.32876 2.0052 3.2852 2.14666C3.27154 2.19098 3.22454 2.21581 3.18025 2.20219C3.13593 2.18855 3.11108 2.14156 3.12472 2.09724C3.16334 1.97182 3.18293 1.84127 3.18293 1.70924C3.18293 1.65814 3.18003 1.60772 3.17438 1.55811C2.90287 1.58956 2.64541 1.67902 2.41695 1.81693C2.46641 1.89569 2.51158 1.97701 2.55205 2.06043C2.57228 2.10215 2.55487 2.15238 2.51316 2.17261C2.47144 2.19282 2.4212 2.17544 2.40098 2.13371C2.36348 2.0564 2.32225 1.98168 2.27755 1.90974C2.06105 2.06812 1.87691 2.2733 1.74025 2.51567C1.72481 2.54303 1.69634 2.5584 1.66703 2.5584ZM0.839598 0.856321C0.645528 1.08714 0.528511 1.38478 0.528511 1.70924C0.528511 1.75997 0.531386 1.8104 0.537106 1.86035C0.991081 1.80768 1.40013 1.5929 1.7007 1.27251C1.44782 1.07879 1.15611 0.936302 0.839598 0.856321ZM1.9387 1.25308C2.08169 1.37952 2.21089 1.52242 2.32293 1.67751C2.57058 1.52662 2.84996 1.42817 3.14475 1.39252C3.03993 0.966066 2.72845 0.619946 2.32301 0.466942C2.2514 0.759181 2.1182 1.02571 1.9387 1.25308ZM0.973093 0.718871C1.27411 0.807636 1.5599 0.953503 1.80933 1.1461C1.97484 0.935526 2.09726 0.688467 2.16217 0.417742C2.06379 0.394402 1.96115 0.382029 1.85573 0.382029C1.51715 0.382029 1.20781 0.509436 0.973093 0.718871Z" fill="white"/>
</g>
<g clip-path="url(#clip1_24_463)">
<path d="M7.2395 3.1709C7.28608 3.1709 7.32446 3.2091 7.32446 3.25586C7.32427 3.30236 7.28596 3.33984 7.2395 3.33984H6.98267C6.93608 3.33967 6.8979 3.30225 6.89771 3.25586C6.89771 3.20921 6.93596 3.17108 6.98267 3.1709H7.2395ZM7.36841 2.94727C7.41503 2.94732 7.45224 2.98465 7.45239 3.03125C7.45239 3.07807 7.41512 3.11615 7.36841 3.11621H6.85474C6.80788 3.11621 6.76978 3.07811 6.76978 3.03125C6.76992 2.98462 6.80797 2.94727 6.85474 2.94727H7.36841ZM7.11353 1.04785C7.53335 1.04787 7.87524 1.38965 7.87524 1.80957C7.87522 1.98164 7.81883 2.14405 7.71216 2.2793C7.69356 2.30317 7.67204 2.32813 7.64966 2.35449C7.57395 2.44356 7.48934 2.5435 7.46021 2.64844C7.45516 2.66724 7.45202 2.70117 7.45239 2.74805V2.80762C7.45236 2.8543 7.41509 2.8925 7.36841 2.89258H6.85474C6.80788 2.89258 6.76978 2.85419 6.76978 2.80762V2.74805C6.77032 2.69746 6.76822 2.66171 6.76294 2.6416C6.7341 2.53599 6.65716 2.44719 6.58325 2.36133C6.55891 2.33329 6.536 2.30622 6.51489 2.2793C6.40849 2.14395 6.35183 1.98156 6.35181 1.80957C6.35181 1.38963 6.69359 1.04785 7.11353 1.04785ZM6.33618 2.46777C6.36903 2.4348 6.42222 2.43476 6.45532 2.46777C6.48831 2.50091 6.4884 2.55481 6.45532 2.58789L6.21606 2.82715C6.19955 2.8435 6.17805 2.85148 6.15649 2.85156C6.13488 2.85156 6.11256 2.84376 6.09595 2.82715C6.06294 2.79418 6.06305 2.74016 6.09595 2.70703L6.33618 2.46777ZM7.77173 2.46777C7.80482 2.43477 7.85783 2.43483 7.89087 2.46777L8.13013 2.70703C8.16325 2.74015 8.16325 2.79412 8.13013 2.82715C8.11367 2.84354 8.0923 2.85155 8.07056 2.85156C8.04919 2.85156 8.02755 2.84351 8.01099 2.82715L7.77173 2.58691C7.73874 2.55397 7.73871 2.50088 7.77173 2.46777ZM7.11353 1.2168C6.78695 1.21683 6.52173 1.48299 6.52173 1.80957C6.52173 1.94299 6.56476 2.0694 6.64771 2.1748C6.66727 2.19984 6.68945 2.22377 6.71216 2.25C6.79035 2.3408 6.88684 2.45378 6.92603 2.59668C6.93177 2.61901 6.93894 2.65316 6.9397 2.72266H7.28345C7.28439 2.65697 7.29128 2.62464 7.29712 2.60352C7.33631 2.46242 7.43307 2.34773 7.5188 2.24707C7.54135 2.22053 7.56181 2.19689 7.57935 2.1748C7.66212 2.06943 7.70532 1.94321 7.70532 1.80957C7.70532 1.48297 7.44012 1.2168 7.11353 1.2168ZM6.0979 1.72461C6.14466 1.72461 6.18285 1.76281 6.18286 1.80957C6.18295 1.85643 6.14466 1.89453 6.0979 1.89453H5.76001C5.71325 1.89453 5.67505 1.85643 5.67505 1.80957C5.67506 1.76281 5.71325 1.72461 5.76001 1.72461H6.0979ZM8.46704 1.72461C8.5138 1.72461 8.55199 1.76281 8.552 1.80957C8.552 1.85643 8.5138 1.89453 8.46704 1.89453H8.12915C8.08239 1.89453 8.04419 1.85643 8.04419 1.80957C8.0442 1.76281 8.08239 1.72461 8.12915 1.72461H8.46704ZM6.09595 0.791992C6.12901 0.759021 6.18302 0.759134 6.21606 0.791992L6.45532 1.03125C6.48841 1.06425 6.48835 1.11833 6.45532 1.15137C6.4389 1.16788 6.41743 1.17666 6.39575 1.17676C6.37423 1.17676 6.35191 1.16798 6.33521 1.15137L6.09595 0.912109C6.06314 0.878961 6.06293 0.825012 6.09595 0.791992ZM8.01099 0.792969C8.04371 0.760065 8.09716 0.759343 8.13013 0.791992C8.16325 0.825116 8.16325 0.878986 8.13013 0.912109L7.89185 1.15137C7.87533 1.16798 7.8531 1.17676 7.8313 1.17676C7.80975 1.17671 7.78838 1.16792 7.77173 1.15137C7.73892 1.11837 7.73898 1.06527 7.77173 1.03223L8.01099 0.792969ZM7.11353 0.371094C7.16038 0.371098 7.19849 0.409387 7.19849 0.456055V0.793945C7.19849 0.840799 7.16038 0.878902 7.11353 0.878906C7.06683 0.878906 7.02883 0.841552 7.02856 0.794922V0.456055C7.02856 0.409385 7.06667 0.371094 7.11353 0.371094Z" fill="white"/>
</g>
<g clip-path="url(#clip2_24_463)">
<path d="M14.0429 2.39339C13.9859 2.36001 13.9209 2.34236 13.8549 2.34236C13.7884 2.34236 13.723 2.36026 13.6657 2.39413C13.6417 2.4083 13.6176 2.42205 13.5932 2.43539C13.5898 2.40032 13.5809 2.36567 13.5665 2.3329L13.4709 2.11594C13.4992 1.93759 13.4889 1.76293 13.4403 1.59462L13.4904 1.50289C13.5074 1.51078 13.525 1.51763 13.5432 1.52335C13.5763 1.5338 13.6103 1.53909 13.6441 1.53909C13.6634 1.53909 13.6826 1.53735 13.7013 1.53392C13.8333 1.50978 13.9359 1.40951 13.9628 1.27848C13.9753 1.21767 13.9927 1.16724 14.0096 1.11846C14.0435 1.02047 14.0809 0.912331 14.0613 0.770206L14.1477 0.659736C14.2036 0.588401 14.2206 0.494929 14.1933 0.409699C14.1573 0.297162 14.0538 0.221558 13.9358 0.221558C13.9227 0.221558 13.9096 0.222508 13.8967 0.224393L13.8417 0.232431C13.8122 0.119895 13.7152 0.0366655 13.5995 0.0249588C13.5751 0.0224943 13.5501 0.0212402 13.5254 0.0212402C13.2527 0.0212402 13.0249 0.166787 12.9003 0.420572C12.8557 0.511405 12.8006 0.616751 12.7363 0.73368C12.7238 0.756549 12.6993 0.770757 12.6725 0.770757C12.6703 0.770757 12.668 0.770655 12.6657 0.770452C12.5808 0.762979 12.4927 0.759188 12.4038 0.759188C12.1931 0.759188 11.6792 0.782471 11.442 0.997236C11.4273 0.996445 11.4127 0.996047 11.3985 0.996047C11.1747 0.996047 10.9738 1.09116 10.8176 1.27108C10.7663 1.33018 10.738 1.40587 10.738 1.48421C10.738 1.56208 10.7659 1.63751 10.8166 1.69662L11.0485 1.96698C11.0923 2.01803 11.1511 2.05262 11.2157 2.06646L11.1101 2.30634C11.0975 2.33484 11.0892 2.36484 11.085 2.39531C11.0837 2.39453 11.0823 2.39376 11.081 2.39298C11.0232 2.3587 10.9571 2.34058 10.8898 2.34058C10.825 2.34058 10.761 2.35753 10.7047 2.38959C10.5879 2.45606 10.5154 2.58081 10.5154 2.71518C10.5154 2.83689 10.5747 2.95134 10.6741 3.02148C10.972 3.23174 11.2656 3.39585 11.5467 3.50925C11.8444 3.62932 12.1228 3.69019 12.3743 3.69019C12.6279 3.69019 12.9063 3.62908 13.2018 3.50857C13.4775 3.39613 13.7691 3.23177 14.0683 3.02002C14.1645 2.95199 14.2236 2.84117 14.2266 2.7235C14.2266 2.72335 14.2266 2.7232 14.2266 2.72307C14.2299 2.58806 14.1595 2.46173 14.0429 2.39339ZM12.4038 0.990023C12.4853 0.990023 12.5669 0.993481 12.6455 1.0004C12.6518 1.00096 12.6582 1.00125 12.6645 1.00142C12.6587 1.26236 12.4778 1.47184 12.2553 1.47184C12.0512 1.47184 11.8815 1.28214 11.8504 1.05155C12.007 1.01055 12.2054 0.990023 12.4038 0.990023ZM10.9917 1.54637C10.9612 1.51071 10.9611 1.45788 10.9919 1.42241C11.1243 1.26982 11.273 1.22687 11.3984 1.22687C11.4093 1.22687 11.42 1.22719 11.4304 1.2278C11.4349 1.22805 11.4394 1.22818 11.4438 1.22818C11.4997 1.22818 11.5538 1.20813 11.595 1.17001C11.6054 1.16045 11.6172 1.15131 11.6301 1.14251C11.6935 1.46668 11.951 1.70263 12.2553 1.70263C12.3461 1.70263 12.4338 1.68196 12.5161 1.64117C12.5926 1.60329 12.6607 1.54981 12.7186 1.48223C12.8309 1.35106 12.8937 1.17853 12.8955 0.996431C12.8957 0.98197 12.8902 0.942805 12.8854 0.914803C12.9061 0.894492 12.9241 0.871101 12.9386 0.844803C12.9898 0.75157 13.0525 0.634169 13.1075 0.522293C13.2206 0.291813 13.4089 0.252054 13.5253 0.252054C13.5445 0.252054 13.5616 0.253126 13.5762 0.254598C13.596 0.256599 13.6133 0.270581 13.6185 0.291356C13.6203 0.298308 13.6201 0.305614 13.6188 0.312653L13.5974 0.427291C13.6237 0.444732 13.6493 0.465854 13.6734 0.490261L13.93 0.452778C13.9319 0.452495 13.9339 0.452365 13.9357 0.452365C13.9525 0.452365 13.968 0.46302 13.9735 0.480055C13.9776 0.492849 13.9742 0.506897 13.966 0.517472L13.811 0.715413C13.8811 0.91518 13.7842 1.00038 13.7367 1.23212C13.729 1.2694 13.6996 1.29961 13.6598 1.30689C13.6546 1.30783 13.6494 1.30828 13.6441 1.30828C13.6334 1.30828 13.6227 1.30642 13.6125 1.30319C13.5353 1.27888 13.4791 1.21199 13.4686 1.13171L13.4612 1.07496L13.2096 1.53552C13.2034 1.54845 13.1968 1.56119 13.1898 1.57373C13.2476 1.72198 13.2811 1.91442 13.2309 2.14359L13.3552 2.4259C13.3797 2.48148 13.352 2.54647 13.2947 2.56663C13.2941 2.56685 13.2934 2.56707 13.2928 2.56729C13.2813 2.57134 13.2694 2.57329 13.2577 2.57329C13.2231 2.57329 13.1897 2.55619 13.17 2.52587L12.9427 2.17718C12.8572 2.14283 12.7615 2.07584 12.6702 1.95079C12.5863 1.9729 12.4969 1.98499 12.4039 1.98499C12.2665 1.98499 12.1367 1.95876 12.0214 1.9123C11.9339 2.07713 11.8268 2.15755 11.7346 2.19598L11.5309 2.50854C11.5111 2.53889 11.4777 2.55603 11.4431 2.55603C11.4308 2.55603 11.4184 2.55387 11.4063 2.54938C11.3972 2.54597 11.388 2.54249 11.3789 2.53897C11.3234 2.51759 11.2973 2.45381 11.3213 2.39938L11.4685 2.06515C11.4446 1.97695 11.4345 1.89332 11.4341 1.81552C11.4339 1.78755 11.4114 1.771 11.3886 1.771C11.3732 1.771 11.3576 1.77862 11.3488 1.79545C11.3479 1.79724 11.347 1.79902 11.3461 1.80078C11.3373 1.81776 11.3229 1.8315 11.305 1.83799C11.2966 1.84101 11.2881 1.84245 11.2796 1.84245C11.2583 1.84245 11.2378 1.83315 11.2237 1.81672L10.9917 1.54637ZM12.9902 2.67113C12.7896 2.72123 12.5828 2.74698 12.3743 2.74698C12.1481 2.74698 11.9238 2.71671 11.7074 2.65786C11.7133 2.65035 11.719 2.64266 11.7242 2.63457L11.8935 2.37491C11.9635 2.33576 12.0428 2.27571 12.1178 2.18376C12.2104 2.20504 12.3061 2.21579 12.4039 2.21579C12.4637 2.21579 12.5232 2.21166 12.5819 2.20347C12.6445 2.26758 12.7124 2.3192 12.785 2.35794L12.9766 2.65192C12.9809 2.65852 12.9855 2.6649 12.9902 2.67113ZM13.9959 2.71755C13.9948 2.76304 13.9722 2.80533 13.935 2.83161C13.3721 3.22988 12.8305 3.4594 12.3743 3.4594C11.924 3.4594 11.3703 3.23039 10.8072 2.83292C10.769 2.80599 10.7462 2.76202 10.7462 2.71532C10.7462 2.66363 10.7739 2.61577 10.8189 2.5902C10.8409 2.57766 10.8654 2.57141 10.8899 2.57141C10.9153 2.57141 10.9407 2.57814 10.9634 2.59158C11.3979 2.84903 11.8862 2.97779 12.3743 2.97779C12.8618 2.97779 13.3491 2.84948 13.7832 2.5928C13.8053 2.57972 13.8301 2.57317 13.8549 2.57317C13.8796 2.57317 13.9042 2.57962 13.9262 2.59252C13.9704 2.61841 13.9971 2.66635 13.9959 2.71755Z" fill="white"/>
</g>
<g clip-path="url(#clip3_24_463)">
<path d="M0.187744 5.28296C0.516339 5.37361 0.891358 5.43041 1.27661 5.43042C1.6633 5.43039 2.02636 5.3851 2.36548 5.29468L2.40259 5.29272C2.41512 5.29446 2.42765 5.29879 2.43872 5.30542C2.46053 5.31864 2.47588 5.34016 2.48169 5.36499C2.51867 5.52525 2.53051 5.69574 2.53052 5.86206C2.5305 6.11105 2.5028 6.35389 2.44458 6.5769C2.82859 6.5762 3.19947 6.53156 3.52368 6.44214L3.56177 6.44019C3.57417 6.4419 3.58594 6.44636 3.59692 6.45288C3.61904 6.46608 3.63502 6.48738 3.64087 6.51245C3.67782 6.6727 3.6897 6.84323 3.6897 7.00952C3.68964 7.53479 3.55629 8.01427 3.33521 8.36499C3.11496 8.71425 2.79872 8.94784 2.43579 8.948C2.0728 8.94798 1.75668 8.71423 1.53638 8.36499C1.4317 8.19895 1.34711 8.00371 1.28638 7.78882H1.27661C0.913599 7.78877 0.597492 7.55511 0.377197 7.20581C0.156118 6.85505 0.0217405 6.37566 0.0217285 5.85034C0.0217363 5.68403 0.0335741 5.51353 0.0705566 5.35327L0.0861816 5.31909C0.0936511 5.30882 0.103373 5.30034 0.114502 5.2937C0.136559 5.28056 0.162968 5.27628 0.187744 5.28296ZM3.47388 6.64917C3.15343 6.72721 2.7989 6.76828 2.43579 6.76831C2.40283 6.76831 2.36997 6.76606 2.33716 6.76538C2.32363 6.76781 2.31016 6.76722 2.29614 6.76343C1.98359 6.7543 1.67969 6.71748 1.40161 6.65015C1.38656 6.75629 1.37491 6.86411 1.37231 6.97144C1.3735 6.97743 1.37622 6.98365 1.37622 6.98999C1.37617 6.99901 1.37277 7.00713 1.37036 7.01538C1.37141 7.508 1.49815 7.94866 1.69653 8.26343C1.89661 8.58071 2.16112 8.75852 2.43579 8.75854C2.71034 8.75839 2.97408 8.58057 3.17407 8.26343C3.37329 7.94741 3.50019 7.50456 3.50024 7.00952C3.50024 6.88561 3.49252 6.76386 3.47388 6.64917ZM2.94946 7.84448C2.98012 7.86337 2.99765 7.89844 2.99438 7.93433C2.96748 8.2287 2.73723 8.48405 2.43579 8.48413C2.13431 8.4841 1.90411 8.22872 1.8772 7.93433C1.87393 7.89841 1.89141 7.86335 1.92212 7.84448C1.95296 7.82571 1.99221 7.82612 2.02271 7.84546C2.13367 7.91603 2.27829 7.95775 2.43579 7.95776C2.59333 7.95774 2.73791 7.91608 2.84888 7.84546C2.87939 7.82609 2.9186 7.82567 2.94946 7.84448ZM2.74731 8.09741C2.64982 8.12884 2.54475 8.14818 2.43579 8.14819C2.32649 8.14819 2.22104 8.12902 2.12329 8.09741C2.19046 8.21644 2.30757 8.29466 2.43579 8.29468C2.56385 8.29462 2.68013 8.21622 2.74731 8.09741ZM1.97388 7.25073C2.15509 7.25078 2.30298 7.39861 2.30298 7.57983C2.30283 7.63205 2.26048 7.67446 2.20825 7.67456C2.15603 7.67445 2.11367 7.63205 2.11353 7.57983C2.11353 7.50342 2.05028 7.44024 1.97388 7.44019C1.89753 7.4403 1.83423 7.50346 1.83423 7.57983C1.83408 7.63212 1.79182 7.67456 1.7395 7.67456C1.68728 7.67445 1.64492 7.63205 1.64478 7.57983C1.64478 7.39864 1.79271 7.25085 1.97388 7.25073ZM2.90259 7.25073C3.08368 7.25093 3.23169 7.39869 3.23169 7.57983C3.23154 7.63196 3.18907 7.67431 3.13696 7.67456C3.08465 7.67456 3.04238 7.63212 3.04224 7.57983C3.04224 7.50351 2.97887 7.44039 2.90259 7.44019C2.82614 7.44019 2.76294 7.50339 2.76294 7.57983C2.76279 7.63203 2.72041 7.67442 2.66821 7.67456C2.6159 7.67456 2.57363 7.63212 2.57349 7.57983C2.57349 7.39857 2.72133 7.25073 2.90259 7.25073ZM0.236572 5.48999C0.217937 5.60464 0.211188 5.72647 0.211182 5.85034C0.211194 6.34533 0.33821 6.7882 0.537354 7.10425C0.728371 7.40724 0.978236 7.58111 1.2395 7.59644C1.20671 7.43563 1.18752 7.26599 1.18286 7.09058C1.06212 7.10431 0.952167 7.14257 0.863525 7.19897C0.833128 7.21811 0.793668 7.21857 0.762939 7.19995C0.732302 7.18117 0.714933 7.1459 0.718018 7.11011C0.743227 6.8328 0.947593 6.59144 1.22192 6.5603C1.22399 6.54651 1.22571 6.5328 1.22778 6.51929L1.24243 6.48218C1.24959 6.47117 1.2595 6.46117 1.27075 6.45386C1.2933 6.43942 1.32108 6.43513 1.34692 6.44214C1.6209 6.51772 1.92875 6.55969 2.24927 6.57202C2.31089 6.35776 2.34105 6.11644 2.34106 5.86206C2.34106 5.73782 2.33346 5.61568 2.3147 5.50073C1.98716 5.57909 1.64135 5.62082 1.27661 5.62085C0.911275 5.62084 0.555954 5.56968 0.236572 5.48999ZM1.19458 6.75659C1.09908 6.78305 1.01552 6.8521 0.963135 6.94604C1.03396 6.92292 1.10922 6.90936 1.18677 6.9021C1.18935 6.85314 1.18947 6.80431 1.19458 6.75659ZM1.04907 5.97534C1.10139 5.97545 1.1438 6.01773 1.1438 6.07007C1.14354 6.25108 0.995753 6.39912 0.814697 6.39917C0.633774 6.39896 0.485856 6.25098 0.485596 6.07007C0.485596 6.01779 0.528096 5.97555 0.580322 5.97534C0.63273 5.97534 0.675049 6.01766 0.675049 6.07007C0.675312 6.14617 0.738586 6.2095 0.814697 6.20972C0.890939 6.20966 0.95408 6.14627 0.954346 6.07007C0.954346 6.01779 0.996846 5.97555 1.04907 5.97534ZM1.97681 5.97534C2.02896 5.97564 2.07153 6.01785 2.07153 6.07007C2.07127 6.25096 1.92332 6.39892 1.74243 6.39917C1.56133 6.39917 1.41359 6.25111 1.41333 6.07007C1.41333 6.01766 1.45565 5.97534 1.50806 5.97534C1.5603 5.97554 1.60278 6.01778 1.60278 6.07007C1.60305 6.1463 1.66615 6.20972 1.74243 6.20972C1.81851 6.20947 1.88182 6.14615 1.88208 6.07007C1.88208 6.01766 1.9244 5.97534 1.97681 5.97534Z" fill="white"/>
</g>
<g clip-path="url(#clip4_24_463)">
<path d="M5.93034 7.97162C5.82812 7.97162 5.73203 8.01142 5.65975 8.08371C5.51055 8.23291 5.51055 8.47569 5.65975 8.62489C5.73203 8.69716 5.82812 8.73696 5.93034 8.73696C6.03256 8.73696 6.12866 8.69715 6.20093 8.62489C6.2732 8.55262 6.31301 8.45651 6.31301 8.35429C6.31301 8.25208 6.2732 8.15598 6.20093 8.08371C6.12866 8.01143 6.03256 7.97162 5.93034 7.97162ZM6.06406 8.48802C6.02835 8.52373 5.98086 8.5434 5.93034 8.5434C5.87982 8.5434 5.83234 8.52373 5.79661 8.48802C5.72289 8.41428 5.72289 8.29431 5.79661 8.22057C5.83233 8.18485 5.87981 8.16518 5.93034 8.16518C5.98085 8.16518 6.02834 8.18485 6.06406 8.22056C6.09978 8.25629 6.11945 8.30377 6.11945 8.35429C6.11945 8.40481 6.09978 8.4523 6.06406 8.48802Z" fill="white"/>
<path d="M8.67887 8.20625C8.67662 8.12559 8.6408 8.0485 8.58063 7.99473L8.01744 7.49148C8.05392 7.45368 8.08789 7.4136 8.11912 7.37148C8.12577 7.36469 8.13139 7.35694 8.13582 7.34844C8.2764 7.14929 8.3572 6.90801 8.3572 6.65439C8.3572 6.33432 8.22794 5.98293 8.01146 5.71442C7.77404 5.41998 7.46923 5.25781 7.15318 5.25781C6.87851 5.25781 6.61237 5.38035 6.39154 5.60569C6.19823 5.64844 6.02952 5.73749 5.89785 5.86915C5.67437 6.09264 5.57351 6.42283 5.61384 6.79892C5.65063 7.14186 5.80769 7.48173 6.03402 7.70805C6.24097 7.915 6.51233 8.03433 6.793 8.0563L6.75918 8.65782C6.75464 8.73839 6.78384 8.81823 6.83927 8.87687C6.8947 8.93551 6.97278 8.96914 7.05349 8.96914H7.25286C7.33356 8.96914 7.41164 8.93552 7.46707 8.87687C7.5225 8.81823 7.5517 8.73839 7.54716 8.65782L7.50884 7.97602L8.02343 8.55191C8.07719 8.61209 8.15428 8.6479 8.23496 8.65017C8.23769 8.65024 8.2404 8.65028 8.24312 8.65028C8.32092 8.65028 8.39655 8.61908 8.45168 8.56395L8.59265 8.42297C8.64972 8.36591 8.68114 8.28692 8.67887 8.20625ZM8.24039 8.45669C8.21229 8.4559 8.18649 8.44392 8.16776 8.42296L7.65229 7.84609C7.59458 7.78151 7.5145 7.74708 7.43261 7.74708C7.39092 7.74708 7.34874 7.75601 7.30881 7.77442C7.1881 7.8301 7.05994 7.86001 6.9317 7.86561L7.8943 6.90301C7.8887 7.03125 7.85878 7.15941 7.80309 7.28013C7.74851 7.39848 7.77732 7.53651 7.87476 7.62359L8.45164 8.13906C8.4726 8.15779 8.48457 8.18359 8.48538 8.21169C8.48616 8.2398 8.47566 8.26623 8.45576 8.2861L8.31479 8.42708C8.29493 8.44696 8.2685 8.45749 8.24039 8.45669ZM6.95243 8.66869L6.98687 8.05597C7.098 8.04683 7.20858 8.02214 7.31529 7.98145L7.35392 8.6687C7.35549 8.69677 7.34573 8.72348 7.32641 8.74391C7.30709 8.76435 7.28097 8.77559 7.25286 8.77559H7.05349C7.02538 8.77559 6.99925 8.76435 6.97992 8.7439C6.96062 8.72347 6.95085 8.69676 6.95243 8.66869ZM6.03472 6.00602C6.21599 5.82475 6.49028 5.74367 6.80698 5.77759C7.1074 5.80981 7.40381 5.9461 7.59987 6.14218C7.74153 6.28383 7.83419 6.46149 7.87361 6.64997L6.70123 7.82236C6.6941 7.82949 6.68833 7.83746 6.68388 7.84595C6.49346 7.80716 6.31384 7.71414 6.1709 7.57119C5.97482 7.37511 5.83852 7.0787 5.80631 6.77828C5.77232 6.46155 5.85345 6.18729 6.03472 6.00602ZM7.86078 5.83592C8.05043 6.07113 8.16364 6.37711 8.16364 6.65439C8.16364 6.80511 8.12952 6.95058 8.06781 7.08205C8.09289 6.94887 8.09512 6.81314 8.07546 6.6807C8.07537 6.67121 8.07386 6.66176 8.07099 6.65262C8.02957 6.41239 7.91609 6.18464 7.73676 6.00531C7.51044 5.77898 7.17058 5.62191 6.82764 5.58513C6.7952 5.58166 6.76315 5.5793 6.73144 5.57792C6.86481 5.4951 7.00818 5.45137 7.15318 5.45137C7.40954 5.45137 7.66084 5.58794 7.86078 5.83592Z" fill="white"/>
</g>
<g clip-path="url(#clip5_24_463)">
<path d="M12.3711 5.45972C12.601 5.45987 12.7871 5.64681 12.7871 5.87671C12.787 5.9736 12.7518 6.06091 12.6963 6.13159C12.8343 6.17732 12.959 6.25104 13.0645 6.34644C13.1245 6.18972 13.2765 6.07788 13.4541 6.07788C13.6838 6.07817 13.87 6.26517 13.8701 6.49487C13.87 6.72456 13.6838 6.9106 13.4541 6.91089C13.4302 6.91089 13.4066 6.90793 13.3838 6.90405C13.3977 6.97163 13.4062 7.04137 13.4062 7.11304C13.4062 7.18422 13.3985 7.2539 13.3848 7.32104C13.4072 7.31728 13.4306 7.31519 13.4541 7.31519C13.6838 7.31547 13.8701 7.50239 13.8701 7.73218C13.87 7.96186 13.6838 8.14791 13.4541 8.14819C13.2762 8.14819 13.1243 8.03659 13.0645 7.87964C13.0005 7.93758 12.9295 7.98745 12.8525 8.02808L13.0898 8.61987C13.1115 8.67443 13.0845 8.73627 13.0303 8.75854C12.9753 8.78053 12.9126 8.75393 12.8906 8.69897L12.6543 8.10815C12.5642 8.13377 12.4694 8.14818 12.3711 8.14819C12.2728 8.14818 12.178 8.13375 12.0879 8.10815L11.8525 8.69897C11.8306 8.75386 11.7678 8.78038 11.7129 8.75854C11.6582 8.73648 11.6316 8.67465 11.6533 8.61987L11.8896 8.02808C11.812 7.98712 11.7402 7.9372 11.6758 7.87866C11.6163 8.03565 11.4669 8.14801 11.2891 8.14819C11.0592 8.14819 10.8722 7.96204 10.8721 7.73218C10.8721 7.50222 11.0591 7.31519 11.2891 7.31519C11.3121 7.31521 11.3345 7.3184 11.3564 7.32202C11.3426 7.25463 11.3359 7.1845 11.3359 7.11304C11.336 7.04149 11.3426 6.97152 11.3564 6.90405C11.3344 6.90767 11.3121 6.91087 11.2891 6.91089C11.0592 6.91089 10.8722 6.72473 10.8721 6.49487C10.8722 6.265 11.0592 6.07788 11.2891 6.07788C11.4663 6.07806 11.6159 6.19014 11.6758 6.34644C11.781 6.25099 11.9061 6.17751 12.0439 6.13159C11.9887 6.06106 11.9542 5.97319 11.9541 5.87671C11.9541 5.64681 12.1412 5.45988 12.3711 5.45972ZM11.2891 7.53003C11.1775 7.53003 11.087 7.62059 11.0869 7.73218C11.0871 7.84367 11.1775 7.93433 11.2891 7.93433C11.4004 7.93409 11.4911 7.84352 11.4912 7.73218C11.4912 7.62073 11.4005 7.53027 11.2891 7.53003ZM13.4541 7.53003C13.3425 7.53003 13.252 7.62059 13.252 7.73218C13.2521 7.84367 13.3426 7.93433 13.4541 7.93433C13.5654 7.93404 13.6561 7.84349 13.6562 7.73218C13.6562 7.62076 13.5655 7.53031 13.4541 7.53003ZM12.168 7.90698C12.233 7.92356 12.3009 7.93334 12.3711 7.93335C12.441 7.93334 12.5085 7.92342 12.5732 7.90698L12.3711 7.40015L12.168 7.90698ZM12.3711 6.29272C11.918 6.29278 11.551 6.65999 11.5508 7.11304C11.5508 7.42044 11.7196 7.68837 11.9697 7.82886L12.2725 7.073L12.2881 7.04565C12.308 7.02124 12.3385 7.00573 12.3711 7.00562C12.4146 7.00577 12.4544 7.0327 12.4707 7.073L12.7725 7.82788C13.0222 7.68731 13.1914 7.42023 13.1914 7.11304C13.1912 6.65999 12.8242 6.29278 12.3711 6.29272ZM11.2891 6.29272C11.1775 6.29272 11.0871 6.38337 11.0869 6.49487C11.0871 6.60636 11.1775 6.69702 11.2891 6.69702C11.4004 6.69679 11.4911 6.60622 11.4912 6.49487C11.4911 6.38352 11.4004 6.29296 11.2891 6.29272ZM13.4541 6.29272C13.3426 6.29272 13.2521 6.38337 13.252 6.49487C13.2521 6.60636 13.3426 6.69702 13.4541 6.69702C13.5654 6.69674 13.6561 6.60619 13.6562 6.49487C13.6561 6.38355 13.5654 6.29301 13.4541 6.29272ZM12.3711 5.67456C12.2596 5.67472 12.1689 5.76518 12.1689 5.87671C12.1692 5.98574 12.2561 6.0741 12.3643 6.07788H12.377C12.4857 6.07477 12.573 5.98618 12.5732 5.87671C12.5732 5.76518 12.4826 5.67472 12.3711 5.67456Z" fill="white"/>
</g>
<g clip-path="url(#clip6_24_463)">
<path d="M16.701 2.39699H16.8556M16.701 2.8609H16.8556M18.402 2.8609H18.5566M18.402 2.39699H18.5566M17.3195 3.40214V2.78358C17.3195 2.61277 17.458 2.47431 17.6288 2.47431C17.7996 2.47431 17.9381 2.61277 17.9381 2.78358V3.40214M17.6288 0.773244H18.3773C18.3859 0.773244 18.3903 0.773244 18.3936 0.771558C18.3965 0.770075 18.3988 0.767711 18.4003 0.7648C18.402 0.761493 18.402 0.757163 18.402 0.748501V0.334068C18.402 0.325407 18.402 0.321077 18.4003 0.317769C18.3988 0.314859 18.3965 0.312495 18.3936 0.311012C18.3903 0.309326 18.3859 0.309326 18.3773 0.309326H17.6536C17.6449 0.309326 17.6406 0.309326 17.6373 0.311012C17.6343 0.312495 17.632 0.314859 17.6305 0.317769C17.6288 0.321077 17.6288 0.325407 17.6288 0.334068V0.773244ZM17.6288 0.773244V1.18937M17.6288 1.18937C17.6589 1.18937 17.689 1.19376 17.7182 1.20256C17.7843 1.22253 17.8428 1.27518 17.9598 1.38048L18.402 1.77843L18.6457 1.83936C18.7798 1.87287 18.8468 1.88961 18.8967 1.92698C18.9407 1.95994 18.9751 2.00405 18.9964 2.05475C19.0206 2.11222 19.0206 2.18128 19.0206 2.31943V2.9073C19.0206 3.08051 19.0206 3.16712 18.9869 3.23327C18.9572 3.29147 18.9099 3.33878 18.8517 3.36843C18.7855 3.40214 18.6989 3.40214 18.5257 3.40214H16.7319C16.5587 3.40214 16.4721 3.40214 16.4059 3.36843C16.3477 3.33878 16.3004 3.29147 16.2708 3.23327C16.2371 3.16712 16.2371 3.08051 16.2371 2.9073V2.31943C16.2371 2.18128 16.2371 2.11222 16.2612 2.05475C16.2825 2.00405 16.3169 1.95994 16.361 1.92698C16.4109 1.88961 16.4779 1.87287 16.6119 1.83936L16.8556 1.77843L17.2978 1.38048C17.4148 1.27518 17.4733 1.22253 17.5394 1.20256C17.5686 1.19376 17.5987 1.18937 17.6288 1.18937ZM17.6335 1.89438H17.6346M17.6335 2.01036C17.5694 2.01036 17.5175 1.95843 17.5175 1.89438C17.5175 1.83033 17.5694 1.7784 17.6335 1.7784C17.6975 1.7784 17.7494 1.83033 17.7494 1.89438C17.7494 1.95843 17.6975 2.01036 17.6335 2.01036Z" stroke="white" stroke-width="0.174931" stroke-linecap="round" stroke-linejoin="round"/>
</g>
<g clip-path="url(#clip7_24_463)">
<path d="M23.2453 2.94893C23.2453 3.04326 23.1834 3.16698 23.1046 3.21491L22.8865 3.35563C22.684 3.48089 22.4025 3.34017 22.4025 3.08966V2.26234C22.4025 2.15254 22.3407 2.01182 22.2773 1.9345L21.6834 1.30976C21.6046 1.23089 21.5427 1.09172 21.5427 0.997389V0.638625C21.5427 0.451511 21.6834 0.310791 21.8551 0.310791H23.918C24.0896 0.310791 24.2304 0.451511 24.2304 0.623161V0.96646C24.2304 1.09172 24.1515 1.2479 24.0742 1.32522M24.1035 2.64739L23.9489 2.49275M23.5159 2.5546C23.7892 2.5546 24.0107 2.33305 24.0107 2.05975C24.0107 1.78646 23.7892 1.56491 23.5159 1.56491C23.2426 1.56491 23.0211 1.78646 23.0211 2.05975C23.0211 2.33305 23.2426 2.5546 23.5159 2.5546Z" stroke="white" stroke-width="0.231959" stroke-linecap="round" stroke-linejoin="round"/>
</g>
<g clip-path="url(#clip8_24_463)">
<path d="M28.145 0.193359C29.0628 0.193751 29.8071 0.938584 29.8071 1.85645C29.8067 2.77394 29.0625 3.51816 28.145 3.51855C27.8796 3.51855 27.6277 3.45562 27.4048 3.34473C27.3715 3.32818 27.3367 3.32444 27.3081 3.33203L26.9644 3.4248C26.7288 3.48782 26.5128 3.2717 26.5757 3.03613L26.6685 2.69238C26.676 2.66401 26.672 2.62972 26.6558 2.59668C26.5448 2.37384 26.4821 2.12188 26.4819 1.85645C26.4819 0.938343 27.2269 0.193359 28.145 0.193359ZM28.145 0.425781C27.355 0.425781 26.7144 1.06645 26.7144 1.85645C26.7145 2.08519 26.7684 2.30172 26.8638 2.49316C26.9018 2.56991 26.9162 2.66195 26.8921 2.75195L26.8003 3.09668C26.7839 3.15954 26.8409 3.21674 26.9038 3.2002L27.2485 3.1084C27.3386 3.08434 27.4306 3.09863 27.5073 3.13672C27.6989 3.23208 27.9161 3.28613 28.145 3.28613C28.9344 3.28574 29.5743 2.64584 29.5747 1.85645C29.5747 1.06669 28.9347 0.426172 28.145 0.425781ZM27.5269 1.70117C27.6121 1.70125 27.682 1.7702 27.6821 1.85547C27.6821 1.94083 27.6122 2.00969 27.5269 2.00977H27.5259C27.4405 2.00977 27.3716 1.94087 27.3716 1.85547C27.3717 1.77016 27.4405 1.70117 27.5259 1.70117H27.5269ZM28.144 1.70117C28.2293 1.70125 28.2992 1.7702 28.2993 1.85547C28.2993 1.94083 28.2294 2.00969 28.144 2.00977H28.1431C28.0577 2.00977 27.9888 1.94087 27.9888 1.85547C27.9889 1.77016 28.0577 1.70117 28.1431 1.70117H28.144ZM28.7632 1.70117C28.8484 1.70135 28.9174 1.77027 28.9175 1.85547C28.9175 1.94076 28.8484 2.00959 28.7632 2.00977H28.7612C28.676 2.00957 28.6069 1.94075 28.6069 1.85547C28.607 1.77028 28.6761 1.70137 28.7612 1.70117H28.7632Z" fill="white"/>
</g>
<g clip-path="url(#clip9_24_463)">
<path d="M16.4233 7.57735C16.3048 7.66832 16.2371 7.77396 16.2371 7.88663C16.2371 8.22824 16.8602 8.50518 17.6288 8.50518C18.3975 8.50518 19.0206 8.22824 19.0206 7.88663C19.0206 7.77396 18.9528 7.66832 18.8344 7.57735M17.6288 6.26292V7.03611M17.2422 6.64951H18.0154M18.5566 6.68388C18.5566 7.21529 18.1412 7.64607 17.6288 7.88663C17.1164 7.64607 16.701 7.21529 16.701 6.68388C16.701 6.15247 17.1164 5.72168 17.6288 5.72168C18.1412 5.72168 18.5566 6.15247 18.5566 6.68388Z" stroke="white" stroke-width="0.231959" stroke-linecap="round" stroke-linejoin="round"/>
</g>
<g clip-path="url(#clip10_24_463)">
<path fill-rule="evenodd" clip-rule="evenodd" d="M23.8919 5.95349C23.8919 6.05602 23.8512 6.15436 23.7787 6.22686C23.7062 6.29936 23.6079 6.34009 23.5053 6.34009C23.4028 6.34009 23.3045 6.29936 23.232 6.22686C23.1595 6.15436 23.1187 6.05602 23.1187 5.95349C23.1187 5.85096 23.1595 5.75263 23.232 5.68013C23.3045 5.60763 23.4028 5.56689 23.5053 5.56689C23.6079 5.56689 23.7062 5.60763 23.7787 5.68013C23.8512 5.75263 23.8919 5.85096 23.8919 5.95349ZM23.7373 5.95349C23.7373 6.01501 23.7128 6.07401 23.6693 6.11751C23.6258 6.16101 23.5668 6.18545 23.5053 6.18545C23.4438 6.18545 23.3848 6.16101 23.3413 6.11751C23.2978 6.07401 23.2734 6.01501 23.2734 5.95349C23.2734 5.89197 23.2978 5.83297 23.3413 5.78947C23.3848 5.74597 23.4438 5.72153 23.5053 5.72153C23.5668 5.72153 23.6258 5.74597 23.6693 5.78947C23.7128 5.83297 23.7373 5.89197 23.7373 5.95349ZM23.0658 6.22968C22.9553 6.17695 22.841 6.17625 22.7471 6.18738C22.4888 6.218 22.2962 6.36723 22.1698 6.49898C22.0657 6.60738 21.9886 6.72421 21.952 6.77965L21.9515 6.78043C21.9438 6.79202 21.9388 6.7996 21.9355 6.80439C21.9014 6.85472 21.8883 6.91645 21.8993 6.97629C21.9102 7.03612 21.9442 7.08927 21.9939 7.12429C22.0436 7.1593 22.1051 7.17339 22.1651 7.16351C22.2251 7.15363 22.2789 7.12057 22.3148 7.07146C22.324 7.05831 22.3341 7.04331 22.3443 7.02785L22.3447 7.02723C22.3802 6.97372 22.4252 6.9063 22.488 6.8378C22.4419 6.96561 22.3983 7.08831 22.3893 7.11932C22.3793 7.15424 22.3771 7.19093 22.3829 7.22679C22.3864 7.24883 22.3921 7.267 22.3963 7.2789C22.4048 7.30287 22.4158 7.32421 22.4243 7.33991C22.442 7.37238 22.4653 7.40842 22.4891 7.44305C22.5376 7.5138 22.6022 7.59994 22.6654 7.68197C22.7213 7.75465 22.7781 7.82695 22.8247 7.8861L22.8435 7.90991C22.8686 7.94177 22.8892 7.96813 22.9044 7.98777L22.9097 7.99473C22.9097 7.99473 22.9138 8.0112 22.9164 8.02218C22.9251 8.05976 22.9353 8.10932 22.9463 8.16476L22.9679 8.27586L22.9681 8.27702C22.9826 8.3521 22.997 8.42718 23.0082 8.47782C23.0145 8.50784 23.0267 8.53631 23.0441 8.56159C23.0615 8.58686 23.0837 8.60844 23.1095 8.62507C23.1352 8.6417 23.1641 8.65306 23.1942 8.65848C23.2244 8.6639 23.2554 8.66328 23.2854 8.65665C23.3153 8.65003 23.3436 8.63753 23.3687 8.61988C23.3938 8.60223 23.4151 8.57978 23.4315 8.55383C23.4478 8.52788 23.4589 8.49894 23.464 8.46869C23.4691 8.43845 23.4681 8.40749 23.4612 8.37762C23.4514 8.33331 23.4387 8.26805 23.4247 8.19476C23.4173 8.15594 23.4094 8.11512 23.4014 8.07491C23.3912 8.02216 23.3801 7.96958 23.3682 7.91718C23.3632 7.89534 23.3577 7.87363 23.3516 7.85208L23.3515 7.85153C23.3438 7.82372 23.333 7.79689 23.3192 7.77159C23.3056 7.74931 23.2905 7.72793 23.2741 7.70756L23.272 7.70478C23.2551 7.68282 23.2329 7.65452 23.2081 7.62298L23.1892 7.59916L23.1891 7.59893C23.1406 7.5374 23.0923 7.47568 23.0443 7.41375L23.1984 7.09635C23.291 7.1614 23.4 7.19907 23.5131 7.20506C23.7044 7.21535 23.8716 7.13146 23.9345 7.09991L23.9365 7.0989C23.9438 7.09519 23.9487 7.09272 23.9522 7.09117C23.9798 7.07818 24.0045 7.05988 24.025 7.03733C24.0455 7.01478 24.0613 6.98841 24.0716 6.95974C24.0819 6.93107 24.0864 6.90065 24.085 6.87022C24.0835 6.83979 24.0761 6.80995 24.0631 6.7824C24.0501 6.75484 24.0318 6.73012 24.0092 6.70964C23.9867 6.68916 23.9603 6.67332 23.9316 6.66303C23.903 6.65274 23.8725 6.64819 23.8421 6.64966C23.8117 6.65112 23.7818 6.65856 23.7543 6.67156C23.7454 6.67568 23.7367 6.67988 23.728 6.68416C23.6565 6.71872 23.5982 6.74509 23.5378 6.74184C23.5124 6.74045 23.4843 6.73311 23.4512 6.70651C23.4152 6.67767 23.3641 6.61852 23.3118 6.49844C23.261 6.382 23.1823 6.28519 23.0658 6.22968ZM22.9097 7.99473C22.9088 7.99133 22.9104 7.99744 22.9097 7.99473V7.99473ZM22.7654 6.34094C22.8454 6.33143 22.9262 6.33445 22.9993 6.36924C23.0743 6.40496 23.1302 6.46898 23.17 6.56022C23.2293 6.6963 23.2937 6.77842 23.3544 6.82713C23.4142 6.87506 23.4737 6.89323 23.5295 6.89625C23.6331 6.90182 23.7246 6.85759 23.7895 6.82612L23.7951 6.82349L23.8202 6.81143C23.8387 6.80319 23.8597 6.8025 23.8786 6.80953C23.8976 6.81655 23.913 6.83073 23.9217 6.84901C23.9303 6.86729 23.9314 6.88823 23.9248 6.90734C23.9182 6.92645 23.9044 6.9422 23.8863 6.95122L23.8678 6.96035L23.8672 6.96066C23.805 6.99189 23.6695 7.05862 23.5212 7.05066C23.435 7.04602 23.3441 7.0171 23.2577 6.94782C23.2461 6.93857 23.235 6.92884 23.2243 6.91867C23.2154 6.91036 23.2048 6.90424 23.1931 6.90082C23.1815 6.89739 23.1692 6.89675 23.1573 6.89895C23.1453 6.90115 23.1341 6.90612 23.1244 6.91347C23.1148 6.92082 23.107 6.93033 23.1017 6.94125L22.8843 7.38916C22.878 7.40207 22.8755 7.41646 22.8769 7.43072C22.8784 7.44499 22.8838 7.45858 22.8925 7.46996L22.9105 7.49339C22.9652 7.56452 23.021 7.63535 23.0676 7.69458L23.0678 7.69496L23.0866 7.7187C23.1115 7.7504 23.1332 7.77793 23.1494 7.79911L23.1502 7.80004C23.164 7.81805 23.1786 7.83723 23.185 7.84836C23.1933 7.86305 23.1992 7.88192 23.2031 7.89522C23.2077 7.9113 23.2127 7.93079 23.2176 7.9522C23.2276 7.99504 23.2386 8.04885 23.2497 8.10483C23.2576 8.14473 23.2654 8.18517 23.2729 8.2239L23.2731 8.22514C23.287 8.29705 23.2999 8.36439 23.3102 8.41102C23.314 8.43079 23.3099 8.45127 23.2989 8.46809C23.2878 8.48492 23.2706 8.49677 23.2509 8.50112C23.2313 8.50547 23.2107 8.50198 23.1936 8.49139C23.1765 8.4808 23.1641 8.46395 23.1592 8.44442C23.1485 8.3961 23.1345 8.32303 23.1197 8.24664V8.24648L23.098 8.13476C23.0869 8.07909 23.0764 8.02744 23.0671 7.98723C23.0633 7.97084 23.0592 7.95455 23.0546 7.93836C23.052 7.92944 23.0478 7.92106 23.0423 7.91362L23.0269 7.89344C23.0065 7.86695 22.9858 7.84056 22.9651 7.81427L22.9464 7.79053C22.8932 7.72322 22.8403 7.65562 22.7879 7.58772C22.7251 7.50607 22.6626 7.42272 22.6167 7.35576C22.5964 7.32676 22.5775 7.29677 22.5601 7.26592C22.5531 7.25334 22.5471 7.24029 22.5419 7.22687C22.5391 7.21907 22.537 7.21102 22.5357 7.20282C22.5334 7.18932 22.5341 7.17549 22.5378 7.16231C22.5473 7.12999 22.6095 6.95633 22.6675 6.79597L22.7241 6.63978C22.7293 6.62534 22.7302 6.60966 22.7265 6.59474C22.7228 6.57983 22.7147 6.56636 22.7033 6.55604C22.6919 6.54573 22.6777 6.53904 22.6625 6.53684C22.6473 6.53464 22.6318 6.53702 22.6179 6.54367C22.5326 6.58465 22.4576 6.64573 22.3929 6.71308C22.3114 6.79813 22.2553 6.88241 22.2166 6.94063L22.2159 6.94164C22.2052 6.95787 22.1963 6.97117 22.1883 6.98246C22.1765 6.99923 22.1585 7.01061 22.1383 7.01411C22.1181 7.01761 22.0974 7.01295 22.0806 7.00113C22.0638 6.98932 22.0524 6.97134 22.0489 6.95113C22.0454 6.93092 22.0501 6.91015 22.0619 6.89339C22.0668 6.88651 22.0731 6.87692 22.0799 6.86656L22.0806 6.86555C22.1168 6.81066 22.1875 6.7038 22.2814 6.60607C22.3959 6.48669 22.5575 6.36568 22.7654 6.34094Z" fill="white"/>
<path fill-rule="evenodd" clip-rule="evenodd" d="M22.4664 7.56012C22.4581 7.54863 22.4469 7.53963 22.4338 7.5341C22.4208 7.52857 22.4065 7.52673 22.3925 7.52876C22.3785 7.53079 22.3653 7.53663 22.3544 7.54564C22.3435 7.55464 22.3353 7.56647 22.3306 7.57983L22.29 7.69643L21.9733 7.62205C21.9138 7.60907 21.8516 7.61999 21.8001 7.65246C21.7487 7.68492 21.712 7.73633 21.6981 7.79559C21.6841 7.85485 21.694 7.91721 21.7257 7.96922C21.7573 8.02123 21.8081 8.05871 21.8672 8.0736L22.3874 8.19592C22.4432 8.20904 22.5019 8.20101 22.5522 8.17338C22.6024 8.14575 22.6407 8.10048 22.6595 8.0463L22.6974 7.93744C22.7015 7.92572 22.7027 7.9132 22.7009 7.90092C22.6991 7.88865 22.6944 7.87699 22.6871 7.86692L22.4664 7.56012ZM22.4132 7.81303L22.4277 7.7712L22.5381 7.9246L22.5134 7.9955C22.5071 8.01354 22.4944 8.02861 22.4776 8.03782C22.4609 8.04703 22.4414 8.04972 22.4228 8.04537L21.9026 7.92313C21.8828 7.91829 21.8657 7.90583 21.855 7.88845C21.8444 7.87108 21.841 7.8502 21.8457 7.83036C21.8503 7.81051 21.8626 7.79331 21.8799 7.78249C21.8972 7.77168 21.918 7.76812 21.9379 7.77259L22.3225 7.8629C22.3411 7.86727 22.3607 7.86459 22.3774 7.85538C22.3942 7.84617 22.4069 7.83108 22.4132 7.81303Z" fill="white"/>
</g>
<g clip-path="url(#clip11_24_463)">
<path d="M29.6966 8.32178H29.5643V7.94899C29.5643 7.88448 29.512 7.8322 29.4475 7.8322C29.3967 7.8322 29.3536 7.86467 29.3375 7.90993V7.11035C29.491 7.06089 29.6024 6.91674 29.6024 6.747C29.6024 6.68529 29.5716 6.62767 29.5203 6.59339L28.1487 5.67757V5.61989H28.3954C28.403 5.61989 28.41 5.61579 28.4138 5.60917C28.4175 5.60255 28.4174 5.59443 28.4135 5.58791L28.359 5.49725L28.4135 5.40659C28.4174 5.40008 28.4175 5.39195 28.4138 5.38533C28.41 5.37871 28.403 5.37462 28.3954 5.37462H28.1487C28.1487 5.3101 28.0964 5.25781 28.0319 5.25781C27.9674 5.25781 27.9151 5.3101 27.9151 5.37461V5.68668L26.5572 6.59339C26.5059 6.62767 26.4751 6.68529 26.4751 6.747C26.4751 6.91674 26.5865 7.06089 26.74 7.11035V8.27498C26.74 8.33949 26.7923 8.39177 26.8568 8.39177C26.9076 8.39177 26.9507 8.3593 26.9667 8.31404V8.43857C26.9667 8.50308 27.019 8.55537 27.0835 8.55537H27.3327C27.3972 8.55537 27.4495 8.50308 27.4495 8.43857C27.4495 8.37406 27.3972 8.32177 27.3327 8.32177H27.2003V7.94898C27.2003 7.88448 27.1481 7.83219 27.0835 7.83219C27.0328 7.83219 26.9897 7.86467 26.9736 7.90992V7.11042C27.0019 7.10129 27.0288 7.08896 27.0538 7.07383C27.1113 7.10865 27.1787 7.12869 27.2508 7.12869C27.3205 7.12869 27.3859 7.10985 27.4422 7.07707C27.442 7.07758 27.5222 7.35484 27.5222 7.35484C27.5328 7.39306 27.5676 7.41951 27.6072 7.41951H27.6722L27.672 7.12729C27.68 7.12955 27.7628 7.11725 27.8353 7.07334C27.859 7.08768 27.8844 7.09951 27.911 7.10859V8.29826C27.911 8.35957 27.9559 8.41334 28.0168 8.42006C28.0888 8.42801 28.1498 8.37183 28.1498 8.30139L28.1508 8.46865C28.1508 8.5346 28.2042 8.58807 28.2702 8.58807H28.5218C28.5831 8.58807 28.6369 8.54316 28.6436 8.48224C28.6515 8.4102 28.5954 8.34924 28.5249 8.34924H28.3896V7.97123C28.3896 7.90993 28.3447 7.85616 28.2838 7.84943C28.2117 7.84149 28.1508 7.89767 28.1508 7.9681L28.1499 7.11263C28.1812 7.10315 28.2108 7.0899 28.2382 7.07332C28.2967 7.10879 28.3636 7.1238 28.3892 7.12711L28.3891 7.41949H28.4479C28.4876 7.41949 28.5224 7.39304 28.533 7.35482C28.533 7.35482 28.6291 7.07417 28.6297 7.07382C28.6873 7.10863 28.7547 7.12868 28.8267 7.12868C28.8987 7.12868 28.9662 7.10864 29.0237 7.07382C29.0487 7.08895 29.0756 7.10128 29.1039 7.11039V8.27496C29.1039 8.33946 29.1562 8.39176 29.2207 8.39176C29.2715 8.39176 29.3146 8.35928 29.3307 8.31403V8.43855C29.3307 8.50306 29.3829 8.55535 29.4475 8.55535H29.6966C29.7611 8.55535 29.8134 8.50305 29.8134 8.43855C29.8134 8.37406 29.7611 8.32178 29.6966 8.32178ZM29.2207 6.944C29.1119 6.944 29.0237 6.85579 29.0237 6.74701L28.0387 5.82623L28.6297 6.74701C28.6297 6.85581 28.5415 6.944 28.4327 6.944C28.3239 6.944 28.2357 6.8558 28.2357 6.74701L28.0387 5.82623L27.8418 6.74701C27.8418 6.85582 27.7535 6.944 27.6448 6.944C27.5359 6.944 27.4478 6.85578 27.4478 6.74701L28.0387 5.82623L27.0538 6.747C27.0538 6.8558 26.9656 6.94399 26.8568 6.94399C26.748 6.94399 26.6598 6.85576 26.6598 6.747L28.0387 5.82623L29.4177 6.74701C29.4177 6.85579 29.3295 6.944 29.2207 6.944Z" fill="white"/>
<path d="M28.6506 8.80411C28.6115 8.81882 28.5692 8.82691 28.5249 8.82691H28.2702C28.1759 8.82691 28.09 8.79013 28.026 8.73032C28.0018 8.7077 27.9806 8.68188 27.9633 8.65336C27.8752 8.63659 27.7983 8.5874 27.7458 8.51872V8.73032H27.5364C27.4751 8.73032 27.4213 8.77523 27.4146 8.83615C27.4066 8.90819 27.4628 8.96915 27.5332 8.96915H28.5373C28.5965 8.96915 28.6528 8.92133 28.659 8.86247C28.6612 8.84165 28.6579 8.82182 28.6506 8.80411Z" fill="white"/>
</g>
<g clip-path="url(#clip12_24_463)">
<path d="M2.43968 13.0152L3.04933 13.6248M0.618408 12.2607C0.618332 11.7517 0.977798 11.3136 1.47697 11.2142C1.97614 11.1149 2.476 11.382 2.67082 11.8522C2.86566 12.3224 2.70121 12.8647 2.27805 13.1475C1.85489 13.4303 1.29089 13.3749 0.930959 13.015C0.730862 12.815 0.618433 12.5436 0.618408 12.2607Z" stroke="white" stroke-width="0.260459" stroke-linecap="round" stroke-linejoin="round"/>
</g>
<g clip-path="url(#clip13_24_463)">
<path d="M6.49502 12.062V13.6084M6.49502 12.062L5.87646 12.062V13.6084H6.49502M6.49502 12.062L7.29846 11.1246C7.3747 11.0357 7.49464 10.9974 7.6083 11.0258L7.61565 11.0277C7.82314 11.0796 7.9166 11.3213 7.79798 11.4993L7.42286 12.062H8.12807C8.32324 12.062 8.46962 12.2405 8.43135 12.4319L8.24578 13.3597C8.21687 13.5043 8.08994 13.6084 7.94251 13.6084H6.49502" stroke="white" stroke-width="0.231959" stroke-linecap="round" stroke-linejoin="round"/>
</g>
<g clip-path="url(#clip14_24_463)">
<path d="M8.80086 22.7416C8.79294 22.6784 8.7813 22.6147 8.76626 22.5522C8.76626 22.5521 8.76628 22.5522 8.76626 22.5522C8.56294 21.7109 7.76119 21.1579 6.90127 21.2659C6.81133 21.2772 6.72209 21.2956 6.63605 21.3207C6.6359 21.3207 6.63574 21.3208 6.63558 21.3208C6.6349 21.321 6.63421 21.3212 6.63354 21.3215C6.25044 21.4336 5.91737 21.6794 5.6955 22.0138C5.47075 22.3526 5.37491 22.7616 5.4256 23.1654C5.45033 23.3624 5.50827 23.5511 5.59775 23.7264C5.59864 23.7283 5.59961 23.7302 5.60064 23.7321C5.75836 24.0385 6.0027 24.2873 6.30747 24.4515C6.55646 24.5857 6.83052 24.6546 7.11035 24.6546C7.18166 24.6546 7.25334 24.6502 7.32508 24.6412C7.34724 24.6384 7.37016 24.635 7.39527 24.6309C7.8289 24.5582 8.21285 24.3238 8.47639 23.9707C8.7407 23.6166 8.85592 23.1801 8.80086 22.7416ZM6.92301 21.4388C6.98759 21.4307 7.05177 21.4267 7.11534 21.4267C7.75385 21.4267 8.32678 21.8261 8.54625 22.426C8.31544 22.3455 8.0755 22.3015 7.83005 22.2946C7.78769 22.1589 7.66105 22.0615 7.51255 22.0615C7.48716 22.0615 7.46189 22.0645 7.43733 22.0702C7.28729 21.8317 7.09405 21.6195 6.87013 21.4465C6.88772 21.4436 6.90535 21.441 6.92301 21.4388ZM7.67097 22.3942C7.67097 22.4601 7.63131 22.5181 7.56961 22.542C7.55163 22.549 7.53244 22.5526 7.51255 22.5526C7.43422 22.5526 7.36846 22.4967 7.35611 22.4191C7.3548 22.4111 7.35413 22.4027 7.35413 22.3942C7.35413 22.3348 7.38698 22.2808 7.44011 22.2533C7.46244 22.2417 7.48681 22.2358 7.51255 22.2358C7.59675 22.2358 7.66619 22.3015 7.67066 22.3854C7.6707 22.3861 7.67075 22.3869 7.67081 22.3876C7.67098 22.3898 7.67097 22.392 7.67097 22.3942ZM7.32693 24.4651C7.31896 24.4662 7.31113 24.4673 7.30346 24.4682C6.68301 24.5461 6.07438 24.2338 5.77481 23.6883C5.94739 23.3477 6.20478 23.0564 6.52148 22.8439C6.56144 22.8171 6.5721 22.763 6.54529 22.723C6.51847 22.6831 6.46434 22.6724 6.42438 22.6992C6.12039 22.9032 5.86715 23.1744 5.68393 23.4906C5.64219 23.3793 5.61353 23.2632 5.59852 23.1437C5.50621 22.4083 5.94527 21.7235 6.64635 21.4998C6.90087 21.6713 7.11935 21.8954 7.28336 22.153C7.22512 22.2082 7.18856 22.283 7.18133 22.3644C7.09343 22.3861 7.00651 22.4128 6.92212 22.4442C6.877 22.461 6.85403 22.5111 6.87079 22.5562C6.88384 22.5914 6.9171 22.6131 6.95248 22.6131C6.96256 22.6131 6.97282 22.6113 6.98282 22.6076C7.05735 22.5799 7.13399 22.5561 7.21153 22.5364C7.26501 22.6507 7.38022 22.7269 7.51255 22.7269C7.52232 22.7269 7.53201 22.7265 7.54163 22.7256C7.57387 22.8374 7.59763 22.9522 7.61213 23.068C7.67379 23.5585 7.57516 24.0406 7.32693 24.4651ZM7.55155 24.4162C7.63994 24.2397 7.70595 24.0535 7.74844 23.8603C7.8071 23.5935 7.81943 23.3197 7.78507 23.0463C7.76891 22.9173 7.74215 22.7895 7.7056 22.6652C7.77204 22.6182 7.81871 22.5488 7.83684 22.4693C8.10218 22.4781 8.36052 22.5338 8.60644 22.6355C8.6154 22.6779 8.62261 22.7207 8.62793 22.7633C8.7223 23.5148 8.2588 24.2065 7.55155 24.4162Z" fill="white"/>
<path d="M6.81078 22.5823C6.78943 22.5391 6.73715 22.5215 6.69401 22.5429C6.67972 22.5499 6.66552 22.5572 6.65141 22.5645C6.60873 22.5867 6.59215 22.6394 6.61439 22.682C6.62992 22.7119 6.66029 22.7289 6.69174 22.7289C6.70531 22.7289 6.71907 22.7258 6.73193 22.7191C6.745 22.7123 6.75814 22.7056 6.77138 22.699C6.81451 22.6777 6.83214 22.6254 6.81078 22.5823Z" fill="white"/>
</g>
<g clip-path="url(#clip15_24_463)">
<path d="M1.85587 17.0722C1.65125 17.0722 1.48474 17.2387 1.48474 17.4433C1.48474 17.6479 1.65125 17.8144 1.85587 17.8144C2.06049 17.8144 2.22701 17.6479 2.22701 17.4433C2.22701 17.2387 2.0605 17.0722 1.85587 17.0722ZM1.85587 17.6289C1.75337 17.6289 1.6703 17.5458 1.6703 17.4433C1.6703 17.3408 1.75337 17.2577 1.85587 17.2577C1.95837 17.2577 2.04144 17.3408 2.04144 17.4433C2.04144 17.5458 1.95837 17.6289 1.85587 17.6289Z" fill="white"/>
<path d="M3.69825 18.6734L3.35235 17.8086L3.51639 17.3164C3.53526 17.2598 3.52579 17.1976 3.49091 17.1492C3.45608 17.1009 3.40004 17.0722 3.34041 17.0722H2.59814C2.53851 17.0722 2.48247 17.1009 2.44758 17.1492C2.4127 17.1976 2.40324 17.2598 2.4221 17.3164L2.58614 17.8086L2.33921 18.426L2.22144 17.955C2.20078 17.8724 2.12661 17.8144 2.04144 17.8144H1.85587H1.6703C1.58513 17.8144 1.51096 17.8724 1.4903 17.955L1.4548 18.0969L1.29621 17.2245C1.28019 17.1363 1.2033 17.0722 1.11361 17.0722H0.371342C0.281654 17.0722 0.204825 17.1363 0.188805 17.2246L0.00323839 18.2452C-0.00659811 18.2993 0.00806604 18.355 0.0433238 18.3973C0.0785815 18.4395 0.130787 18.4639 0.185775 18.4639H0.30435L0.371959 19.3137C0.379628 19.4101 0.460103 19.4845 0.556902 19.4845H0.928036C1.02484 19.4845 1.10538 19.4101 1.11305 19.3137L1.1806 18.4639H1.29917C1.3228 18.4639 1.34532 18.4574 1.36678 18.4489L1.30468 18.6973C1.29083 18.7527 1.30326 18.8115 1.33845 18.8565C1.37364 18.9015 1.42759 18.9278 1.48474 18.9278V19.299C1.48474 19.4015 1.56781 19.4845 1.6703 19.4845H2.04144C2.14393 19.4845 2.22701 19.4015 2.22701 19.299V18.9278C2.25991 18.9278 2.29041 18.9171 2.31824 18.901C2.34651 18.9179 2.37868 18.9278 2.41257 18.9278H2.59814V19.299C2.59814 19.4015 2.68121 19.4845 2.78371 19.4845H3.15484C3.25734 19.4845 3.34041 19.4015 3.34041 19.299V18.9278H3.52597C3.58758 18.9278 3.64511 18.8973 3.67963 18.8463C3.71414 18.7953 3.72113 18.7305 3.69825 18.6734ZM1.00919 18.2783L0.928036 19.299H0.556902L0.475753 18.2783H0.185768L0.371335 17.2577H1.1136L1.29917 18.2783H1.00919ZM2.04144 18.7423V19.299H1.6703V18.7423H1.48474L1.6703 18H2.04144L2.22701 18.7423H2.04144ZM3.15484 18.7423V19.299H2.78371V18.7423H2.41257L2.78371 17.8144L2.59814 17.2577H3.34041L3.15484 17.8144L3.52597 18.7423H3.15484Z" fill="white"/>
<path d="M2.96927 15.7732C2.66228 15.7732 2.41257 16.0229 2.41257 16.3299C2.41257 16.6369 2.66228 16.8866 2.96927 16.8866C3.27626 16.8866 3.52597 16.6369 3.52597 16.3299C3.52597 16.0229 3.27626 15.7732 2.96927 15.7732ZM2.96927 16.701C2.76429 16.701 2.59814 16.5349 2.59814 16.3299C2.59814 16.1249 2.76429 15.9588 2.96927 15.9588C3.17426 15.9588 3.34041 16.1249 3.34041 16.3299C3.34041 16.5349 3.17427 16.701 2.96927 16.701Z" fill="white"/>
<path d="M0.742469 15.7732C0.435544 15.7732 0.185768 16.0229 0.185768 16.3299C0.185768 16.6369 0.435544 16.8866 0.742469 16.8866C1.04946 16.8866 1.29917 16.6369 1.29917 16.3299C1.29917 16.0229 1.04946 15.7732 0.742469 15.7732ZM0.742469 16.701C0.537483 16.701 0.371335 16.5349 0.371335 16.3299C0.371335 16.1249 0.537483 15.9588 0.742469 15.9588C0.947455 15.9588 1.1136 16.1249 1.1136 16.3299C1.1136 16.5349 0.947463 16.701 0.742469 16.701Z" fill="white"/>
</g>
<g clip-path="url(#clip16_24_463)">
<path d="M8.80629 18.6822V18.2928C8.80629 18.2556 8.78886 18.2205 8.75919 18.1979L8.38559 17.9145C8.20175 17.775 7.97343 17.6982 7.74267 17.6982H7.44216C7.37639 17.6982 7.32308 17.7515 7.32308 17.8172C7.32308 17.8566 7.31657 17.8945 7.30473 17.9299L7.0949 17.7888L7.11453 17.7596C7.15123 17.705 7.13676 17.631 7.08218 17.5943C7.02761 17.5576 6.95362 17.5721 6.91691 17.6267L6.74474 17.8826C6.70803 17.9372 6.72251 18.0112 6.77708 18.0479C6.79748 18.0616 6.82058 18.0682 6.84344 18.0682C6.88174 18.0682 6.91937 18.0497 6.94236 18.0155L6.96198 17.9864L7.15763 18.118C7.10236 18.1532 7.03685 18.1737 6.96659 18.1737H6.67061C6.66771 18.1105 6.61571 18.0601 6.5518 18.0601H6.24852C6.19197 18.0601 6.14202 18.0207 6.1287 17.9659L6.08878 17.7179C6.07834 17.6529 6.01718 17.6088 5.95229 17.6192C5.94869 17.6198 5.94517 17.6206 5.9417 17.6215C5.91015 17.5661 5.86132 17.5218 5.80256 17.496V16.3734C5.80256 16.1734 5.63987 16.0107 5.43991 16.0107C5.37414 16.0107 5.32083 16.0641 5.32083 16.1298C5.32083 16.1956 5.37414 16.2489 5.43991 16.2489C5.50855 16.2489 5.5644 16.3047 5.5644 16.3734V17.496C5.45974 17.542 5.38643 17.6466 5.38643 17.7681V18.7028C5.30878 18.7568 5.25781 18.8467 5.25781 18.9483C5.25781 19.1131 5.39192 19.2472 5.55676 19.2472H8.6702C8.83504 19.2472 8.96915 19.1131 8.96915 18.9483C8.96915 18.8324 8.90287 18.7318 8.80629 18.6822ZM5.62461 17.7681C5.62461 17.7356 5.65103 17.7092 5.68349 17.7092C5.71596 17.7092 5.74237 17.7356 5.74237 17.7681V17.9247C5.74237 18.1934 5.9609 18.4119 6.22951 18.4119H6.96659C7.2537 18.4119 7.49395 18.2074 7.54925 17.9363H7.74266C7.92175 17.9363 8.09894 17.9959 8.24162 18.1042L8.56812 18.3519V18.6493H5.62461V17.7681ZM8.6702 19.009H5.55676C5.52325 19.009 5.49598 18.9818 5.49598 18.9483C5.49598 18.9147 5.52325 18.8875 5.55676 18.8875H8.6702C8.70372 18.8875 8.73099 18.9147 8.73099 18.9483C8.73099 18.9818 8.70372 19.009 8.6702 19.009Z" fill="white"/>
</g>
<g clip-path="url(#clip17_24_463)">
<path d="M3.04288 21.7229C2.99804 21.6771 2.92461 21.6764 2.87887 21.7213C2.83313 21.7661 2.8324 21.8395 2.87724 21.8853L2.96006 21.8041L3.04288 21.7229ZM2.86819 23.897C2.82294 23.9423 2.82302 24.0158 2.86836 24.061C2.9137 24.1063 2.98713 24.1062 3.03238 24.0608L2.95028 23.9789L2.86819 23.897ZM0.692051 24.0737C0.737791 24.1186 0.811221 24.1178 0.856063 24.0721C0.900904 24.0264 0.900176 23.9529 0.854436 23.9081L0.773244 23.9909L0.692051 24.0737ZM0.845279 21.8741C0.890617 21.8288 0.89069 21.7554 0.845443 21.7101C0.800195 21.6647 0.726761 21.6647 0.681423 21.7099L0.763351 21.792L0.845279 21.8741ZM2.59854 22.191C2.55225 22.1467 2.47883 22.1483 2.43456 22.1946C2.39028 22.2409 2.39191 22.3143 2.4382 22.3586L2.51837 22.2748L2.59854 22.191ZM2.43308 23.4138C2.3864 23.4577 2.38411 23.5311 2.42797 23.5778C2.47183 23.6245 2.54523 23.6268 2.59191 23.5829L2.51249 23.4984L2.43308 23.4138ZM1.12778 23.5905C1.17494 23.6338 1.24831 23.6308 1.29166 23.5836C1.335 23.5364 1.33192 23.4631 1.28476 23.4197L1.20627 23.5051L1.12778 23.5905ZM1.27958 22.3527C1.32635 22.3089 1.32879 22.2355 1.28502 22.1888C1.24125 22.142 1.16786 22.1396 1.12109 22.1833L1.20034 22.268L1.27958 22.3527ZM2.11187 22.647L2.04323 22.7405L2.04324 22.7405L2.11187 22.647ZM2.11187 23.1261L2.04324 23.0326L2.04323 23.0326L2.11187 23.1261ZM2.00086 23.2026L1.93891 23.1046L1.93888 23.1046L2.00086 23.2026ZM1.8998 23.2615L1.84413 23.1598L1.84412 23.1598L1.8998 23.2615ZM1.63054 23.3331L1.69549 23.237L1.69547 23.237L1.63054 23.3331ZM1.55168 23.0283L1.66742 23.0209L1.66742 23.0209L1.55168 23.0283ZM1.55168 22.7448L1.66742 22.7522L1.66742 22.7522L1.55168 22.7448ZM1.63054 22.44L1.69547 22.5361L1.69548 22.5361L1.63054 22.44ZM1.8998 22.5116L1.84412 22.6133L1.84413 22.6133L1.8998 22.5116ZM2.00086 22.5705L1.93889 22.6685L1.93891 22.6686L2.00086 22.5705ZM2.96006 21.8041L2.87724 21.8853C3.13029 22.1434 3.28613 22.4967 3.28613 22.8865H3.40211H3.51809C3.51809 22.4335 3.33672 22.0226 3.04288 21.7229L2.96006 21.8041ZM3.40211 22.8865H3.28613C3.28613 23.2811 3.12656 23.6381 2.86819 23.897L2.95028 23.9789L3.03238 24.0608C3.33238 23.7602 3.51809 23.345 3.51809 22.8865H3.40211ZM0.773244 23.9909L0.854436 23.9081C0.589476 23.6483 0.425306 23.2867 0.425306 22.8865H0.309326H0.193347C0.193347 23.3516 0.384426 23.7721 0.692051 24.0737L0.773244 23.9909ZM0.309326 22.8865H0.425306C0.425306 22.491 0.585702 22.1331 0.845279 21.8741L0.763351 21.792L0.681423 21.7099C0.380029 22.0107 0.193347 22.4269 0.193347 22.8865H0.309326ZM2.51837 22.2748L2.4382 22.3586C2.58119 22.4954 2.66761 22.6807 2.66761 22.8838H2.78359H2.89957C2.89957 22.6126 2.78366 22.3681 2.59854 22.191L2.51837 22.2748ZM2.78359 22.8838H2.66761C2.66761 23.0893 2.57913 23.2766 2.43308 23.4138L2.51249 23.4984L2.59191 23.5829C2.78089 23.4053 2.89957 23.1582 2.89957 22.8838H2.78359ZM1.20627 23.5051L1.28476 23.4197C1.13493 23.282 1.0439 23.0922 1.0439 22.8838H0.92792H0.811941C0.811941 23.1622 0.934055 23.4124 1.12778 23.5905L1.20627 23.5051ZM0.92792 22.8838H1.0439C1.0439 22.6778 1.13284 22.49 1.27958 22.3527L1.20034 22.268L1.12109 22.1833C0.931243 22.361 0.811941 22.6087 0.811941 22.8838H0.92792ZM2.11187 22.647L2.04324 22.7405C2.11598 22.7939 2.1579 22.8252 2.1838 22.8524C2.2046 22.8742 2.20368 22.8814 2.20368 22.8866H2.31966H2.43564C2.43564 22.8047 2.40009 22.743 2.35163 22.6923C2.30827 22.6468 2.24629 22.6018 2.18051 22.5535L2.11187 22.647ZM2.31966 22.8866H2.20368C2.20368 22.8917 2.2046 22.8989 2.1838 22.9207C2.1579 22.9479 2.11598 22.9792 2.04324 23.0326L2.11187 23.1261L2.18051 23.2196C2.24629 23.1713 2.30827 23.1263 2.35163 23.0809C2.40009 23.0301 2.43564 22.9684 2.43564 22.8866H2.31966ZM2.11187 23.1261L2.04323 23.0326C2.0063 23.0597 1.97071 23.0845 1.93891 23.1046L2.00086 23.2026L2.0628 23.3007C2.10072 23.2767 2.141 23.2486 2.18051 23.2196L2.11187 23.1261ZM2.00086 23.2026L1.93888 23.1046C1.91102 23.1222 1.87866 23.1409 1.84413 23.1598L1.8998 23.2615L1.95548 23.3633C1.99267 23.3429 2.02955 23.3217 2.06284 23.3006L2.00086 23.2026ZM1.8998 23.2615L1.84412 23.1598C1.77075 23.2 1.73027 23.2215 1.70091 23.231C1.68827 23.2351 1.68491 23.2344 1.68707 23.2345C1.68838 23.2346 1.69035 23.2349 1.69248 23.2357C1.69457 23.2364 1.69562 23.2371 1.69549 23.237L1.63054 23.3331L1.5656 23.4292C1.63588 23.4767 1.70904 23.4722 1.77227 23.4518C1.82751 23.4339 1.89067 23.3988 1.95549 23.3633L1.8998 23.2615ZM1.63054 23.3331L1.69547 23.237C1.6953 23.2369 1.69553 23.2371 1.6958 23.2374C1.69604 23.2376 1.69569 23.2373 1.69489 23.2359C1.693 23.2325 1.68932 23.2242 1.68547 23.2063C1.67716 23.1677 1.67329 23.1123 1.66742 23.0209L1.55168 23.0283L1.43594 23.0357C1.44133 23.1196 1.4459 23.1957 1.45871 23.2552C1.4723 23.3183 1.49941 23.3845 1.56561 23.4292L1.63054 23.3331ZM1.55168 23.0283L1.66742 23.0209C1.66433 22.9728 1.66245 22.9268 1.66245 22.8866H1.54647H1.43049C1.43049 22.9334 1.43266 22.9847 1.43594 23.0357L1.55168 23.0283ZM1.54647 22.8866H1.66245C1.66245 22.8463 1.66433 22.8003 1.66742 22.7522L1.55168 22.7448L1.43594 22.7374C1.43266 22.7884 1.43049 22.8397 1.43049 22.8866H1.54647ZM1.55168 22.7448L1.66742 22.7522C1.67329 22.6609 1.67716 22.6054 1.68547 22.5668C1.68932 22.5489 1.693 22.5406 1.69488 22.5372C1.69569 22.5358 1.69604 22.5355 1.6958 22.5358C1.69553 22.5361 1.6953 22.5362 1.69547 22.5361L1.63054 22.44L1.56562 22.3439C1.49941 22.3886 1.4723 22.4548 1.45871 22.518C1.4459 22.5774 1.44133 22.6535 1.43594 22.7374L1.55168 22.7448ZM1.63054 22.44L1.69548 22.5361C1.69562 22.536 1.69457 22.5367 1.69248 22.5374C1.69034 22.5382 1.68838 22.5385 1.68707 22.5386C1.68491 22.5387 1.68828 22.538 1.70091 22.5421C1.73027 22.5516 1.77075 22.5731 1.84412 22.6133L1.8998 22.5116L1.95549 22.4098C1.89067 22.3744 1.8275 22.3392 1.77227 22.3214C1.70904 22.3009 1.63589 22.2964 1.56561 22.3439L1.63054 22.44ZM1.8998 22.5116L1.84413 22.6133C1.87864 22.6322 1.91102 22.6509 1.93889 22.6685L2.00086 22.5705L2.06283 22.4725C2.02955 22.4514 1.99268 22.4302 1.95547 22.4098L1.8998 22.5116ZM2.00086 22.5705L1.93891 22.6686C1.97071 22.6886 2.0063 22.7134 2.04323 22.7405L2.11187 22.647L2.18051 22.5535C2.141 22.5245 2.10072 22.4964 2.06281 22.4725L2.00086 22.5705Z" fill="white"/>
</g>
<g clip-path="url(#clip18_24_463)">
<path d="M2.75253 29.2578L2.47418 27.9897L3.01541 27.4485C3.24737 27.2165 3.32469 26.9073 3.24737 26.7526C3.09273 26.6753 2.78345 26.7526 2.5515 26.9846L2.01026 27.5258L0.742218 27.2475C0.664898 27.232 0.603042 27.2629 0.572115 27.3248L0.525723 27.4021C0.494795 27.4794 0.510259 27.5568 0.572115 27.6031L1.3917 28.1444L1.08242 28.6083H0.618506L0.463867 28.7629L0.927785 29.0722L1.23706 29.5361L1.3917 29.3815V28.9176L1.85562 28.6083L2.39686 29.4279C2.44325 29.4897 2.52057 29.5052 2.59789 29.4743L2.67521 29.4433C2.73706 29.397 2.76799 29.3351 2.75253 29.2578Z" stroke="white" stroke-width="0.206186" stroke-linecap="round" stroke-linejoin="round"/>
</g>
<g clip-path="url(#clip19_24_463)">
<path d="M8.55874 27.8717H8.0528V27.3658C8.0528 26.975 7.73531 26.6575 7.34448 26.6575C7.2886 26.6575 7.2433 26.7028 7.2433 26.7587V27.2646H6.73735C6.34659 27.2646 6.02904 27.5821 6.02904 27.9729C6.02904 28.0288 6.07434 28.0741 6.13023 28.0741H6.63617V28.2519L5.6559 29.2322C5.53755 29.3506 5.53755 29.5431 5.6559 29.6615C5.77428 29.7798 5.96687 29.7798 6.08521 29.6615L6.76288 28.9838C6.89095 29.1677 7.10387 29.2884 7.34448 29.2884C7.40036 29.2884 7.44566 29.2431 7.44566 29.1872V28.6812H7.95161C8.34217 28.6812 8.65992 28.3635 8.65992 27.9729C8.65993 27.917 8.61462 27.8717 8.55874 27.8717ZM7.44567 27.3658V26.87C7.67347 26.9162 7.85042 27.119 7.85042 27.3658V27.8717H7.63071C7.59992 27.7849 7.53068 27.7168 7.44566 27.6867V27.3658H7.44567ZM5.94211 29.5184C5.90266 29.5579 5.83846 29.5579 5.79901 29.5184C5.75956 29.4789 5.75956 29.4147 5.79901 29.3753L6.63617 28.5381V28.5801C6.63617 28.6538 6.64753 28.725 6.66856 28.792L5.94211 29.5184ZM7.24329 29.0758C7.01265 29.0288 6.83854 28.8244 6.83854 28.58V28.0741H7.05826C7.08824 28.1587 7.15649 28.2284 7.2433 28.2591C7.24329 28.2891 7.24329 29.043 7.24329 29.0758ZM7.24329 27.6867C7.15755 27.7171 7.08866 27.7859 7.05825 27.8717H6.73735H6.24152C6.28777 27.644 6.49048 27.467 6.73735 27.467H7.24329V27.6867ZM7.34448 28.0741C7.28869 28.0741 7.2433 28.0287 7.2433 27.9729C7.2433 27.9171 7.28869 27.8717 7.34448 27.8717C7.40028 27.8717 7.44567 27.9171 7.44567 27.9729C7.44567 28.0287 7.40029 28.0741 7.34448 28.0741ZM7.95161 28.4789H7.44567V28.2591C7.52906 28.2296 7.59948 28.1622 7.63071 28.0741H7.95161H8.44739C8.40038 28.3048 8.19594 28.4789 7.95161 28.4789Z" fill="white"/>
</g>
<g clip-path="url(#clip20_24_463)">
<path d="M13.2207 23.0195C13.3485 22.9291 13.4935 22.9006 13.623 22.9473C13.783 23.0051 13.8789 23.163 13.8789 23.3564C13.8788 23.495 13.7978 23.6203 13.7158 23.7148C13.6304 23.8132 13.5246 23.8997 13.4414 23.9609C13.383 24.0039 13.3175 24.0575 13.2217 24.0576C13.1255 24.0576 13.0595 24.004 13.001 23.9609C12.9177 23.8997 12.813 23.8132 12.7275 23.7148C12.6455 23.6203 12.5646 23.4951 12.5645 23.3564C12.5645 23.1629 12.6602 23.005 12.8203 22.9473C12.9494 22.9008 13.0932 22.9297 13.2207 23.0195ZM12.0615 23.6982C12.1255 23.6984 12.1777 23.7505 12.1777 23.8145C12.1777 23.8784 12.1254 23.9305 12.0615 23.9307H10.9795C10.9154 23.9307 10.8633 23.8785 10.8633 23.8145C10.8633 23.7504 10.9154 23.6982 10.9795 23.6982H12.0615ZM13.5439 23.166C13.4918 23.1472 13.4017 23.1545 13.3027 23.252C13.2576 23.2964 13.1848 23.2964 13.1396 23.252C13.0408 23.1547 12.9505 23.1472 12.8984 23.166C12.849 23.1841 12.7959 23.2399 12.7959 23.3564C12.796 23.4086 12.8298 23.48 12.9023 23.5635C12.9717 23.6433 13.0619 23.7169 13.1387 23.7734C13.1744 23.7997 13.192 23.8128 13.2061 23.8203C13.2154 23.8253 13.2185 23.8252 13.2217 23.8252C13.2247 23.8252 13.2272 23.8252 13.2363 23.8203C13.2504 23.8128 13.2686 23.8 13.3047 23.7734C13.3813 23.717 13.4708 23.6431 13.54 23.5635C13.6126 23.48 13.6463 23.4086 13.6465 23.3564C13.6465 23.2395 13.5936 23.1839 13.5439 23.166ZM12.0615 23.0801C12.1255 23.0802 12.1777 23.1323 12.1777 23.1963C12.1775 23.2601 12.1253 23.3124 12.0615 23.3125H10.9795C10.9156 23.3125 10.8635 23.2602 10.8633 23.1963C10.8633 23.1322 10.9154 23.0801 10.9795 23.0801H12.0615ZM13.7627 22.4609C13.8266 22.4611 13.8788 22.5133 13.8789 22.5771C13.8789 22.6411 13.8266 22.6932 13.7627 22.6934H10.9795C10.9154 22.6934 10.8633 22.6412 10.8633 22.5771C10.8634 22.5132 10.9155 22.4609 10.9795 22.4609H13.7627ZM13.7627 21.8428C13.8266 21.8429 13.8789 21.895 13.8789 21.959C13.8788 22.0228 13.8266 22.0751 13.7627 22.0752H10.9795C10.9155 22.0752 10.8634 22.0229 10.8633 21.959C10.8633 21.8949 10.9154 21.8428 10.9795 21.8428H13.7627Z" fill="white"/>
</g>
<g clip-path="url(#clip21_24_463)">
<path d="M19.1526 23.8353V22.0279C19.1526 21.8521 19.0095 21.709 18.8337 21.709H16.4239C16.248 21.709 16.1049 21.8521 16.1049 22.0279V23.8353H15.9277V24.0479H16.4947V23.8353H16.3176V22.0279C16.3176 21.9693 16.3653 21.9216 16.4239 21.9216H16.8491V22.6786C16.8263 22.7045 16.8137 22.7374 16.8137 22.7721C16.8137 22.8503 16.8773 22.9139 16.9554 22.9139C17.0336 22.9139 17.0972 22.8503 17.0972 22.7721C17.0972 22.7363 17.0837 22.7037 17.0618 22.6787V21.9216H17.3453V22.6786C17.3224 22.7045 17.3098 22.7374 17.3098 22.7721C17.3098 22.8503 17.3734 22.9139 17.4516 22.9139C17.5297 22.9139 17.5933 22.8503 17.5933 22.7721C17.5933 22.7363 17.5799 22.7037 17.5579 22.6787V21.9216H18.0895V23.8353H17.9123V24.0479H19.3298V23.8353H19.1526ZM18.94 23.8353H18.3021V23.6226H18.94V23.8353ZM18.94 23.41H18.3021V23.1974H18.94V23.41ZM18.94 22.9848H18.3021V22.7721H18.94V22.9848ZM18.94 22.5595H18.3021V22.3469H18.94V22.5595ZM18.94 22.1342H18.3021V21.9216H18.8337C18.8923 21.9216 18.94 21.9693 18.94 22.0279V22.1342Z" fill="white"/>
</g>
<g clip-path="url(#clip22_24_463)">
<path d="M22.5001 21.92C22.5001 22.0738 22.439 22.2213 22.3303 22.33C22.2215 22.4388 22.074 22.4999 21.9202 22.4999C21.7664 22.4999 21.6189 22.4388 21.5102 22.33C21.4014 22.2213 21.3403 22.0738 21.3403 21.92C21.3403 21.7662 21.4014 21.6187 21.5102 21.5099C21.6189 21.4012 21.7664 21.3401 21.9202 21.3401C22.074 21.3401 22.2215 21.4012 22.3303 21.5099C22.439 21.6187 22.5001 21.7662 22.5001 21.92ZM21.5336 21.92C21.5336 22.0225 21.5744 22.1208 21.6469 22.1934C21.7194 22.2659 21.8177 22.3066 21.9202 22.3066C22.0228 22.3066 22.1211 22.2659 22.1936 22.1934C22.2661 22.1208 22.3068 22.0225 22.3068 21.92C22.3068 21.8175 22.2661 21.7191 22.1936 21.6466C22.1211 21.5741 22.0228 21.5334 21.9202 21.5334C21.8177 21.5334 21.7194 21.5741 21.6469 21.6466C21.5744 21.7191 21.5336 21.8175 21.5336 21.92Z" fill="white"/>
<path d="M23.08 22.4999H23.1767C23.2704 22.4999 23.361 22.5339 23.4315 22.5957C23.502 22.6575 23.5477 22.7429 23.56 22.8358L24.1611 22.5687C24.1906 22.5556 24.2228 22.55 24.2549 22.5526C24.287 22.5551 24.318 22.5656 24.345 22.5831C24.3721 22.6006 24.3943 22.6247 24.4097 22.653C24.425 22.6813 24.4331 22.713 24.4331 22.7452V24.1876C24.4331 24.2198 24.425 24.2514 24.4096 24.2797C24.3943 24.308 24.3721 24.332 24.3451 24.3495C24.3181 24.3671 24.2871 24.3776 24.2551 24.3801C24.223 24.3826 24.1908 24.3771 24.1613 24.3641L23.56 24.0969C23.5477 24.1899 23.502 24.2752 23.4315 24.337C23.361 24.3988 23.2704 24.4329 23.1767 24.4329H21.7269C21.6244 24.4329 21.5261 24.3921 21.4536 24.3196C21.3811 24.2471 21.3403 24.1488 21.3403 24.0463V22.8865C21.3403 22.7839 21.3811 22.6856 21.4536 22.6131C21.5261 22.5406 21.6244 22.4999 21.7269 22.4999H23.08ZM24.2398 24.1874V22.7454L23.5633 23.046V23.8868L24.2398 24.1874ZM21.5336 22.8865V24.0463C21.5336 24.0975 21.554 24.1467 21.5902 24.183C21.6265 24.2192 21.6757 24.2396 21.7269 24.2396H23.1767C23.2279 24.2396 23.2771 24.2192 23.3134 24.183C23.3496 24.1467 23.37 24.0975 23.37 24.0463V22.8865C23.37 22.8352 23.3496 22.786 23.3134 22.7498C23.2771 22.7135 23.2279 22.6932 23.1767 22.6932H21.7269C21.6757 22.6932 21.6265 22.7135 21.5902 22.7498C21.554 22.786 21.5336 22.8352 21.5336 22.8865Z" fill="white"/>
<path d="M23.08 22.4999C23.2338 22.4999 23.3813 22.4388 23.4901 22.33C23.5988 22.2213 23.6599 22.0738 23.6599 21.92C23.6599 21.7662 23.5988 21.6187 23.4901 21.5099C23.3813 21.4012 23.2338 21.3401 23.08 21.3401C22.9262 21.3401 22.7787 21.4012 22.67 21.5099C22.5612 21.6187 22.5001 21.7662 22.5001 21.92C22.5001 22.0738 22.5612 22.2213 22.67 22.33C22.7787 22.4388 22.9262 22.4999 23.08 22.4999ZM22.6934 21.92C22.6934 21.8175 22.7342 21.7191 22.8067 21.6466C22.8792 21.5741 22.9775 21.5334 23.08 21.5334C23.1826 21.5334 23.2809 21.5741 23.3534 21.6466C23.4259 21.7191 23.4666 21.8175 23.4666 21.92C23.4666 22.0225 23.4259 22.1208 23.3534 22.1934C23.2809 22.2659 23.1826 22.3066 23.08 22.3066C22.9775 22.3066 22.8792 22.2659 22.8067 22.1934C22.7342 22.1208 22.6934 22.0225 22.6934 21.92Z" fill="white"/>
</g>
<g clip-path="url(#clip23_24_463)">
<path d="M10.9322 26.6348L13.6029 29.3054C13.6536 29.3561 13.682 29.4248 13.682 29.4965C13.682 29.5682 13.6536 29.6369 13.6029 29.6876C13.5522 29.7382 13.4835 29.7667 13.4118 29.7667C13.3402 29.7667 13.2714 29.7382 13.2207 29.6876L12.5684 29.0239C12.5257 28.9806 12.5017 28.9222 12.5017 28.8614V28.8213C12.5017 28.7905 12.4956 28.7601 12.4837 28.7318C12.4719 28.7034 12.4545 28.6777 12.4327 28.6561L12.3484 28.5784C12.3198 28.552 12.2851 28.5332 12.2473 28.5238C12.2096 28.5144 12.1701 28.5146 12.1324 28.5244C12.0731 28.5399 12.0107 28.5396 11.9515 28.5236C11.8923 28.5075 11.8383 28.4762 11.7949 28.4329L11.1757 27.8136C10.8083 27.4462 10.6731 26.8914 10.9322 26.6348Z" stroke="white" stroke-width="0.218314" stroke-linejoin="round"/>
<path d="M13.415 26.5205L12.8551 27.0805C12.812 27.1236 12.7778 27.1747 12.7545 27.231C12.7311 27.2873 12.7191 27.3476 12.7191 27.4085V27.5163C12.7191 27.5315 12.7161 27.5466 12.7103 27.5607C12.7045 27.5748 12.6959 27.5875 12.6851 27.5983L12.6032 27.6803M12.8351 27.9123L12.9171 27.8303C12.9279 27.8195 12.9407 27.8109 12.9548 27.8051C12.9688 27.7993 12.9839 27.7963 12.9992 27.7963H13.1069C13.1678 27.7963 13.2281 27.7843 13.2844 27.761C13.3407 27.7376 13.3919 27.7035 13.435 27.6604L13.9949 27.1004M13.705 26.8105L13.1251 27.3904M11.9653 28.9561L11.2424 29.683C11.1881 29.7373 11.1143 29.7679 11.0374 29.7679C10.9606 29.7679 10.8868 29.7373 10.8325 29.683C10.7781 29.6286 10.7476 29.5549 10.7476 29.478C10.7476 29.4011 10.7781 29.3274 10.8325 29.273L11.4434 28.6661" stroke="white" stroke-width="0.218314" stroke-linecap="round" stroke-linejoin="round"/>
</g>
<g clip-path="url(#clip24_24_463)">
<path d="M19.3685 29.3042H19.1366V27.6805C19.1673 27.6805 19.1968 27.6683 19.2186 27.6466C19.2403 27.6248 19.2525 27.5953 19.2525 27.5645C19.2525 27.5338 19.2403 27.5043 19.2186 27.4825C19.1968 27.4608 19.1673 27.4486 19.1366 27.4486H18.4407V26.9846C18.4715 26.9846 18.501 26.9724 18.5227 26.9507C18.5445 26.9289 18.5567 26.8994 18.5567 26.8687C18.5567 26.8379 18.5445 26.8084 18.5227 26.7867C18.501 26.7649 18.4715 26.7527 18.4407 26.7527H16.3531C16.3223 26.7527 16.2928 26.7649 16.2711 26.7867C16.2493 26.8084 16.2371 26.8379 16.2371 26.8687C16.2371 26.8994 16.2493 26.9289 16.2711 26.9507C16.2928 26.9724 16.3223 26.9846 16.3531 26.9846V29.3042H16.1211C16.0903 29.3042 16.0608 29.3165 16.0391 29.3382C16.0173 29.36 16.0051 29.3895 16.0051 29.4202C16.0051 29.451 16.0173 29.4805 16.0391 29.5022C16.0608 29.524 16.0903 29.5362 16.1211 29.5362H19.3685C19.3993 29.5362 19.4288 29.524 19.4505 29.5022C19.4723 29.4805 19.4845 29.451 19.4845 29.4202C19.4845 29.3895 19.4723 29.36 19.4505 29.3382C19.4288 29.3165 19.3993 29.3042 19.3685 29.3042ZM18.9046 27.6805V29.3042H18.4407V27.6805H18.9046ZM16.585 26.9846H18.2087V29.3042H17.8608V28.6084C17.8608 28.5776 17.8486 28.5481 17.8268 28.5263C17.8051 28.5046 17.7756 28.4924 17.7448 28.4924H17.0489C17.0182 28.4924 16.9887 28.5046 16.9669 28.5263C16.9452 28.5481 16.933 28.5776 16.933 28.6084V29.3042H16.585V26.9846ZM17.6288 29.3042H17.1649V28.7243H17.6288V29.3042ZM16.817 27.4486C16.817 27.4178 16.8292 27.3883 16.851 27.3666C16.8727 27.3448 16.9022 27.3326 16.933 27.3326H17.1649C17.1957 27.3326 17.2252 27.3448 17.2469 27.3666C17.2687 27.3883 17.2809 27.4178 17.2809 27.4486C17.2809 27.4793 17.2687 27.5088 17.2469 27.5306C17.2252 27.5523 17.1957 27.5645 17.1649 27.5645H16.933C16.9022 27.5645 16.8727 27.5523 16.851 27.5306C16.8292 27.5088 16.817 27.4793 16.817 27.4486ZM17.5129 27.4486C17.5129 27.4178 17.5251 27.3883 17.5468 27.3666C17.5686 27.3448 17.5981 27.3326 17.6288 27.3326H17.8608C17.8916 27.3326 17.9211 27.3448 17.9428 27.3666C17.9646 27.3883 17.9768 27.4178 17.9768 27.4486C17.9768 27.4793 17.9646 27.5088 17.9428 27.5306C17.9211 27.5523 17.8916 27.5645 17.8608 27.5645H17.6288C17.5981 27.5645 17.5686 27.5523 17.5468 27.5306C17.5251 27.5088 17.5129 27.4793 17.5129 27.4486ZM16.817 28.0285C16.817 27.9977 16.8292 27.9682 16.851 27.9464C16.8727 27.9247 16.9022 27.9125 16.933 27.9125H17.1649C17.1957 27.9125 17.2252 27.9247 17.2469 27.9464C17.2687 27.9682 17.2809 27.9977 17.2809 28.0285C17.2809 28.0592 17.2687 28.0887 17.2469 28.1105C17.2252 28.1322 17.1957 28.1444 17.1649 28.1444H16.933C16.9022 28.1444 16.8727 28.1322 16.851 28.1105C16.8292 28.0887 16.817 28.0592 16.817 28.0285ZM17.5129 28.0285C17.5129 27.9977 17.5251 27.9682 17.5468 27.9464C17.5686 27.9247 17.5981 27.9125 17.6288 27.9125H17.8608C17.8916 27.9125 17.9211 27.9247 17.9428 27.9464C17.9646 27.9682 17.9768 27.9977 17.9768 28.0285C17.9768 28.0592 17.9646 28.0887 17.9428 28.1105C17.9211 28.1322 17.8916 28.1444 17.8608 28.1444H17.6288C17.5981 28.1444 17.5686 28.1322 17.5468 28.1105C17.5251 28.0887 17.5129 28.0592 17.5129 28.0285Z" fill="white"/>
</g>
<g clip-path="url(#clip25_24_463)">
<path d="M22.8867 27.4484C22.8867 27.4484 23.0149 26.727 23.7382 26.6008C23.8644 26.5787 23.9692 26.6853 23.9692 26.8133V28.6864C23.9692 28.7718 23.8996 28.8398 23.8146 28.8493C23.0239 28.9371 22.8867 29.6907 22.8867 29.6907M22.8867 27.4484V29.6907M22.8867 27.4484C22.6036 27.199 22.2362 27.0613 21.8557 27.0618C21.8272 27.0618 21.7988 27.0626 21.7707 27.0641C21.5969 27.0732 21.51 27.0779 21.4252 27.1674C21.3403 27.257 21.3403 27.3672 21.3403 27.588V28.8654C21.3403 29.0559 21.3403 29.151 21.3745 29.2043C21.3902 29.2316 21.4128 29.2543 21.4401 29.27C21.4934 29.3041 21.6142 29.3041 21.8557 29.3041C22.235 29.3031 22.6016 29.4406 22.8867 29.6907M22.8867 29.6907C23.1718 29.4406 23.5384 29.3032 23.9177 29.3042C24.1592 29.3042 24.28 29.3042 24.3334 29.2702C24.3654 29.2496 24.3784 29.2365 24.3989 29.2045C24.4331 29.1511 24.4331 29.056 24.4331 28.8655V27.5882C24.4331 27.3674 24.4331 27.2571 24.3482 27.1676C24.2633 27.078 24.1429 27.0711 23.9692 27.0618" stroke="white" stroke-width="0.173969" stroke-linecap="round" stroke-linejoin="round"/>
</g>
<g clip-path="url(#clip26_24_463)">
<path d="M21.5475 12.3657H22.2681L22.732 12.8296L23.1959 11.9017L23.5052 12.3657H24.2258M22.8868 11.628C22.6193 11.0218 21.9961 10.9739 21.7054 11.2321C21.4688 11.4378 21.3559 11.9528 21.5708 12.4213C21.9435 13.227 22.8868 13.6584 22.8868 13.6584C22.8868 13.6584 23.8301 13.2347 24.2028 12.429C24.4177 11.9651 24.3049 11.4517 24.0683 11.2399C23.7775 10.9739 23.1543 11.0218 22.8868 11.628Z" stroke="white" stroke-width="0.21637" stroke-linecap="round" stroke-linejoin="round"/>
</g>
<g clip-path="url(#clip27_24_463)">
<path d="M27.3463 13.3829H27.6851M27.4542 11.9241L27.6238 11.0954M28.4117 11.6674L28.5814 10.8388M26.6504 12.1396H29.6852V13.7917C29.6852 13.862 29.6573 13.9294 29.6076 13.9791C29.5579 14.0288 29.4904 14.0568 29.4201 14.0568H26.9152C26.8449 14.0568 26.7775 14.0288 26.7278 13.9791C26.6781 13.9294 26.6501 13.862 26.6501 13.7917L26.6504 12.1396ZM26.6501 12.1396L29.581 11.3541L29.4538 10.8796C29.4448 10.8459 29.4293 10.8144 29.4081 10.7867C29.3869 10.7591 29.3605 10.7359 29.3303 10.7184C29.3002 10.701 29.2669 10.6897 29.2323 10.6851C29.1978 10.6806 29.1627 10.6829 29.1291 10.6919L26.7103 11.3403C26.6425 11.3585 26.5846 11.4029 26.5495 11.4638C26.5143 11.5246 26.5048 11.5969 26.5229 11.6648L26.6501 12.1396Z" stroke="white" stroke-width="0.185567" stroke-linecap="round" stroke-linejoin="round"/>
</g>
<g clip-path="url(#clip28_24_463)">
<path d="M29.2268 22.5774H29.0721M28.6082 23.0413C28.6082 23.2975 28.4005 23.5052 28.1443 23.5052C27.8881 23.5052 27.6804 23.2975 27.6804 23.0413C27.6804 22.7851 27.8881 22.5774 28.1443 22.5774C28.4005 22.5774 28.6082 22.7851 28.6082 23.0413ZM27.8007 24.2784H28.4879C28.9705 24.2784 29.2119 24.2784 29.3853 24.1647C29.4601 24.1157 29.5245 24.0525 29.5749 23.9785C29.6907 23.8084 29.6907 23.5714 29.6907 23.0976C29.6907 22.6237 29.6907 22.3867 29.5749 22.2166C29.5245 22.1427 29.4601 22.0794 29.3853 22.0304C29.2739 21.9573 29.1344 21.9311 28.9209 21.9218C28.819 21.9218 28.7313 21.8461 28.7114 21.7479C28.6961 21.6759 28.6565 21.6115 28.5992 21.5654C28.5419 21.5193 28.4705 21.4944 28.397 21.4949H27.8916C27.7388 21.4949 27.6072 21.6008 27.5772 21.7479C27.5573 21.8461 27.4696 21.9218 27.3677 21.9218C27.1543 21.9311 27.0148 21.9574 26.9033 22.0304C26.8286 22.0794 26.7642 22.1427 26.7139 22.2166C26.5979 22.3867 26.5979 22.6236 26.5979 23.0976C26.5979 23.5715 26.5979 23.8083 26.7137 23.9785C26.7638 24.0521 26.8282 24.1154 26.9033 24.1647C27.0767 24.2784 27.3181 24.2784 27.8007 24.2784Z" stroke="white" stroke-width="0.231959" stroke-linecap="round"/>
</g>
<g clip-path="url(#clip29_24_463)">
<path d="M24.7352 18.9134C24.7214 18.8815 24.6899 18.8609 24.6552 18.8609H23.8655C23.9512 18.7693 24.0242 18.6658 24.0811 18.5544C24.178 18.3648 24.2271 18.1599 24.2271 17.9455C24.2271 17.8973 24.1881 17.8583 24.1399 17.8583H21.6334C21.5852 17.8583 21.5462 17.8973 21.5462 17.9455C21.5462 17.9817 21.5477 18.0176 21.5505 18.0533H21.333C21.2745 18.0533 21.2196 18.076 21.1786 18.1172C21.1373 18.1585 21.1146 18.2133 21.1146 18.2716C21.1146 18.5008 21.301 18.6872 21.5301 18.6872H21.7701C21.8111 18.7487 21.8573 18.8068 21.9078 18.8609H21.1182C21.0834 18.8609 21.052 18.8816 21.0382 18.9134C21.0244 18.9453 21.0308 18.9823 21.0546 19.0077C21.2203 19.1845 21.4543 19.2859 21.6966 19.2859H24.0768C24.3191 19.2859 24.5531 19.1845 24.7188 19.0077C24.7425 18.9824 24.749 18.9453 24.7352 18.9134ZM21.2889 18.2716C21.2889 18.2599 21.2935 18.2488 21.302 18.2404C21.3102 18.2322 21.3212 18.2276 21.3329 18.2276H21.5758C21.5968 18.3257 21.6289 18.421 21.6719 18.5128H21.53C21.3971 18.5128 21.2889 18.4046 21.2889 18.2716ZM21.7237 18.0326H24.0496C24.0258 18.3594 23.8685 18.6563 23.6089 18.8609H22.1644C21.9049 18.6563 21.7475 18.3594 21.7237 18.0326ZM24.0768 19.1116H21.6966C21.5851 19.1116 21.4759 19.0848 21.3779 19.0353H24.3955C24.2975 19.0848 24.1882 19.1116 24.0768 19.1116Z" fill="white"/>
<path d="M22.3036 16.92L22.7487 17.131C22.8824 17.1944 22.9687 17.3256 22.974 17.4735C22.9756 17.5206 23.0143 17.5576 23.061 17.5576C23.0621 17.5576 23.0631 17.5576 23.0642 17.5576C23.1123 17.5559 23.1499 17.5155 23.1482 17.4674C23.1407 17.2541 23.0162 17.0649 22.8234 16.9735L22.3783 16.7625C22.226 16.6903 22.1608 16.5077 22.233 16.3555C22.268 16.2817 22.3296 16.226 22.4064 16.1985C22.4833 16.1711 22.5663 16.1752 22.64 16.2102C22.6836 16.2308 22.7355 16.2123 22.7561 16.1688C22.7768 16.1253 22.7582 16.0733 22.7147 16.0527C22.5989 15.9978 22.4686 15.9913 22.3478 16.0343C22.2271 16.0774 22.1304 16.165 22.0755 16.2808C21.9621 16.5199 22.0645 16.8067 22.3036 16.92Z" fill="white"/>
<path d="M23.052 16.2315C23.1733 16.1145 23.3671 16.1179 23.4841 16.2392C23.601 16.3603 23.5977 16.5538 23.4769 16.6709L23.163 16.965C23.1279 16.998 23.1261 17.0531 23.159 17.0883C23.1762 17.1066 23.1994 17.1158 23.2226 17.1158C23.244 17.1158 23.2654 17.108 23.2822 17.0922L23.5966 16.7976C23.5969 16.7973 23.5972 16.797 23.5975 16.7967C23.7879 16.6129 23.7934 16.3085 23.6096 16.1181C23.4258 15.9277 23.1214 15.9223 22.931 16.1061C22.8963 16.1395 22.8953 16.1947 22.9288 16.2293C22.9622 16.2639 23.0174 16.2649 23.052 16.2315Z" fill="white"/>
<path d="M22.7855 17.4749C22.8258 17.4486 22.8372 17.3946 22.811 17.3543C22.7847 17.3139 22.7307 17.3025 22.6904 17.3288C22.5886 17.395 22.5386 17.519 22.566 17.6373L22.5753 17.6774C22.5846 17.7177 22.6204 17.745 22.6601 17.745C22.6666 17.745 22.6732 17.7442 22.6798 17.7427C22.7267 17.7319 22.756 17.6851 22.7451 17.6381L22.7358 17.5981C22.7249 17.5508 22.7449 17.5013 22.7855 17.4749Z" fill="white"/>
</g>
<g clip-path="url(#clip30_24_463)">
<path d="M28.7243 19.1366H27.5645M28.7243 19.1366C28.8518 19.1366 28.9562 19.0322 28.9562 18.9046V17.3969C28.9562 17.2693 28.8518 17.1649 28.7243 17.1649H27.5645C27.4369 17.1649 27.3325 17.2693 27.3325 17.3969V18.9046C27.3325 19.0322 27.4369 19.1366 27.5645 19.1366M28.7243 19.1366V19.3685M27.5645 19.1366V19.3685M27.3325 17.8608H28.9562M27.6805 15.8892H28.6083M27.7964 15.8892H28.4923V17.1649H27.7964V15.8892Z" stroke="white" stroke-width="0.185567" stroke-miterlimit="10" stroke-linecap="round" stroke-linejoin="round"/>
</g>
<g clip-path="url(#clip31_24_463)">
<path d="M29.0521 26.6496C28.83 26.522 28.5665 26.4875 28.319 26.5536C28.0715 26.6196 27.8603 26.7809 27.7313 27.0022L27.6961 27.0632C27.6884 27.0764 27.6834 27.091 27.6814 27.1061C27.6794 27.1212 27.6804 27.1366 27.6844 27.1514C27.6883 27.1661 27.6951 27.1799 27.7044 27.192C27.7137 27.2041 27.7253 27.2143 27.7385 27.2219L28.3527 27.5749L27.9749 28.2353C27.6385 28.2791 27.3532 28.4974 27.1723 28.7906C27.2585 28.7712 27.3488 28.7853 27.4249 28.83C27.5935 28.6041 27.8378 28.4594 28.0997 28.4594C28.3616 28.4594 28.6058 28.6041 28.7742 28.8303C28.8504 28.7855 28.9408 28.7714 29.027 28.7908C28.8491 28.5021 28.5701 28.2863 28.2407 28.2376L28.5536 27.6902L29.2124 28.0688C29.2389 28.084 29.2705 28.0881 29.3001 28.0802C29.3297 28.0723 29.3549 28.053 29.3703 28.0265L29.4058 27.9653C29.4694 27.8558 29.5107 27.7348 29.5273 27.6092C29.5439 27.4837 29.5355 27.3561 29.5026 27.2338C29.4697 27.1115 29.4129 26.997 29.3356 26.8967C29.2582 26.7965 29.162 26.7125 29.0521 26.6496ZM27.9563 27.0797C28.041 26.9533 28.1627 26.8562 28.3047 26.8017C28.4467 26.7472 28.6021 26.7379 28.7496 26.7751C28.6694 26.8159 28.5928 26.8632 28.5204 26.9166C28.4038 27.0048 28.3135 27.1045 28.2201 27.2314L27.9563 27.0797ZM28.6601 27.1017C28.7246 27.053 28.8 27.008 28.8971 26.9607C28.9097 27.0535 28.9125 27.133 28.9027 27.2107C28.8897 27.3128 28.8545 27.4193 28.7802 27.5531L28.4226 27.3474C28.5014 27.243 28.5726 27.1676 28.6601 27.1015M29.2268 27.8094L28.9813 27.6684C29.0672 27.5146 29.1152 27.3791 29.1328 27.2395C29.1421 27.1662 29.1423 27.0936 29.1368 27.0191C29.2268 27.128 29.2832 27.2606 29.2992 27.4009C29.3151 27.5412 29.29 27.6832 29.2268 27.8094ZM27.359 29.0938C27.3511 29.0699 27.3356 29.0493 27.315 29.035C27.2943 29.0207 27.2695 29.0135 27.2444 29.0145C27.2192 29.0154 27.1951 29.0246 27.1756 29.0405C27.1561 29.0564 27.1424 29.0782 27.1363 29.1026C27.1071 29.2214 27.0531 29.2835 26.9939 29.3195C26.9306 29.3578 26.8483 29.3735 26.7525 29.3735C26.7217 29.3735 26.6922 29.3857 26.6704 29.4075C26.6487 29.4292 26.6365 29.4587 26.6365 29.4895C26.6365 29.5203 26.6487 29.5498 26.6704 29.5715C26.6922 29.5933 26.7217 29.6055 26.7525 29.6055C26.8694 29.6055 26.9997 29.5869 27.1138 29.518C27.1704 29.4837 27.2203 29.4389 27.2614 29.3823C27.4843 29.6329 27.883 29.6315 28.0999 29.3779C28.3205 29.6361 28.7299 29.6331 28.9503 29.3687C29.0107 29.4421 29.0865 29.5014 29.1724 29.5423C29.2582 29.5832 29.352 29.6048 29.4471 29.6055C29.4779 29.6055 29.5074 29.5933 29.5291 29.5715C29.5509 29.5498 29.5631 29.5203 29.5631 29.4895C29.5631 29.4587 29.5509 29.4292 29.5291 29.4075C29.5074 29.3857 29.4779 29.3735 29.4471 29.3735C29.281 29.3735 29.1156 29.265 29.0611 29.0949C29.0536 29.0717 29.039 29.0514 29.0193 29.037C28.9996 29.0226 28.9758 29.0147 28.9514 29.0146C28.927 29.0145 28.9031 29.0221 28.8833 29.0363C28.8634 29.0505 28.8485 29.0706 28.8408 29.0938C28.7329 29.4188 28.3142 29.4132 28.2094 29.1077C28.2015 29.0849 28.1867 29.0651 28.1671 29.0512C28.1474 29.0372 28.1239 29.0297 28.0998 29.0297C28.0757 29.0297 28.0522 29.0372 28.0325 29.0512C28.0129 29.0651 27.9981 29.0849 27.9902 29.1077C27.8851 29.4132 27.4667 29.4188 27.359 29.0938Z" fill="white"/>
</g>
<path d="M40.0928 25.4419V5.63692H44.1361V14.4656C44.221 14.1571 44.4703 13.8062 44.8842 13.4126C45.2981 13.0191 45.8446 12.6787 46.5238 12.3916C47.2136 12.1044 47.9936 11.9608 48.8638 11.9608C50.1161 11.9608 51.2091 12.2639 52.143 12.8702C53.0875 13.4764 53.8198 14.306 54.3398 15.359C54.8704 16.4013 55.1357 17.5819 55.1357 18.9008C55.1357 20.2196 54.8704 21.4055 54.3398 22.4585C53.8198 23.5008 53.0875 24.3251 52.143 24.9314C51.2091 25.527 50.1161 25.8248 48.8638 25.8248C48.0891 25.8248 47.3675 25.6812 46.6989 25.394C46.041 25.1069 45.4838 24.7559 45.0275 24.3411C44.5818 23.9263 44.2687 23.5327 44.0883 23.1605V25.4419H40.0928ZM51.1561 18.9008C51.1561 18.1669 51.0022 17.5234 50.6944 16.9703C50.3867 16.4066 49.9728 15.9706 49.4528 15.6621C48.9328 15.343 48.3544 15.1835 47.7177 15.1835C47.0491 15.1835 46.4442 15.343 45.903 15.6621C45.3618 15.9812 44.932 16.4226 44.6136 16.9863C44.2952 17.5394 44.1361 18.1775 44.1361 18.9008C44.1361 19.624 44.2952 20.2675 44.6136 20.8312C44.932 21.3843 45.3618 21.8203 45.903 22.1394C46.4442 22.4479 47.0491 22.6021 47.7177 22.6021C48.3544 22.6021 48.9328 22.4479 49.4528 22.1394C49.9728 21.831 50.3867 21.4002 50.6944 20.8472C51.0022 20.2834 51.1561 19.6347 51.1561 18.9008Z" fill="white"/>
<path d="M57.7279 25.4419V12.3437H61.7553V25.4419H57.7279ZM59.7973 8.96147C59.1287 8.96147 58.561 8.72748 58.094 8.2595C57.6377 7.79152 57.4095 7.23313 57.4095 6.58434C57.4095 5.93554 57.643 5.37184 58.1099 4.89322C58.5769 4.4146 59.1393 4.17529 59.7973 4.17529C60.2324 4.17529 60.6304 4.28697 60.9912 4.51033C61.352 4.72304 61.6438 5.01022 61.8667 5.37184C62.0895 5.73346 62.201 6.13763 62.201 6.58434C62.201 7.23313 61.9622 7.79152 61.4846 8.2595C61.0177 8.72748 60.4553 8.96147 59.7973 8.96147Z" fill="white"/>
<path d="M69.2058 25.4419H65.1625V12.3437H69.2058V14.4656H69.1262C69.2005 14.2103 69.4022 13.8859 69.7311 13.4924C70.0707 13.0989 70.5377 12.7479 71.132 12.4394C71.7262 12.1204 72.4426 11.9608 73.2809 11.9608C73.8858 11.9608 74.4324 12.0512 74.9205 12.232C75.4193 12.4022 75.7748 12.5724 75.9871 12.7426L74.3952 16.061C74.2573 15.8908 73.9973 15.7153 73.6152 15.5345C73.2438 15.3537 72.7769 15.2633 72.2144 15.2633C71.5458 15.2633 70.9887 15.4494 70.543 15.8217C70.0973 16.1833 69.763 16.63 69.5401 17.1618C69.3173 17.683 69.2058 18.1722 69.2058 18.6296V25.4419Z" fill="white"/>
<path d="M77.4327 25.4419V5.63692H81.4759V14.4656C81.5608 14.1571 81.8102 13.8062 82.2241 13.4126C82.638 13.0191 83.1845 12.6787 83.8637 12.3916C84.5535 12.1044 85.3335 11.9608 86.2037 11.9608C87.456 11.9608 88.549 12.2639 89.4829 12.8702C90.4274 13.4764 91.1596 14.306 91.6797 15.359C92.2103 16.4013 92.4756 17.5819 92.4756 18.9008C92.4756 20.2196 92.2103 21.4055 91.6797 22.4585C91.1596 23.5008 90.4274 24.3251 89.4829 24.9314C88.549 25.527 87.456 25.8248 86.2037 25.8248C85.429 25.8248 84.7074 25.6812 84.0388 25.394C83.3808 25.1069 82.8237 24.7559 82.3674 24.3411C81.9217 23.9263 81.6086 23.5327 81.4282 23.1605V25.4419H77.4327ZM88.496 18.9008C88.496 18.1669 88.3421 17.5234 88.0343 16.9703C87.7266 16.4066 87.3127 15.9706 86.7927 15.6621C86.2727 15.343 85.6943 15.1835 85.0576 15.1835C84.389 15.1835 83.7841 15.343 83.2429 15.6621C82.7017 15.9812 82.2719 16.4226 81.9535 16.9863C81.6351 17.5394 81.4759 18.1775 81.4759 18.9008C81.4759 19.624 81.6351 20.2675 81.9535 20.8312C82.2719 21.3843 82.7017 21.8203 83.2429 22.1394C83.7841 22.4479 84.389 22.6021 85.0576 22.6021C85.6943 22.6021 86.2727 22.4479 86.7927 22.1394C87.3127 21.831 87.7266 21.4002 88.0343 20.8472C88.3421 20.2834 88.496 19.6347 88.496 18.9008Z" fill="white"/>
<path d="M101.26 25.8248C99.8698 25.8248 98.6282 25.527 97.5351 24.9314C96.4527 24.3357 95.6037 23.5221 94.9882 22.4904C94.3727 21.4481 94.0649 20.2622 94.0649 18.9327C94.0649 17.6032 94.3727 16.4173 94.9882 15.375C95.6037 14.322 96.4527 13.4924 97.5351 12.8861C98.6282 12.2693 99.8698 11.9608 101.26 11.9608C102.661 11.9608 103.897 12.2693 104.969 12.8861C106.041 13.4924 106.879 14.322 107.484 15.375C108.089 16.4173 108.392 17.6032 108.392 18.9327C108.392 20.2622 108.089 21.4481 107.484 22.4904C106.879 23.5221 106.041 24.3357 104.969 24.9314C103.897 25.527 102.661 25.8248 101.26 25.8248ZM101.26 22.4585C101.929 22.4585 102.507 22.3096 102.995 22.0118C103.494 21.7033 103.876 21.2832 104.141 20.7514C104.417 20.209 104.555 19.5974 104.555 18.9167C104.555 18.236 104.417 17.6245 104.141 17.082C103.876 16.5396 103.494 16.1142 102.995 15.8057C102.507 15.4866 101.929 15.3271 101.26 15.3271C100.591 15.3271 100.008 15.4866 99.509 15.8057C99.0209 16.1142 98.6388 16.5396 98.3629 17.082C98.087 17.6245 97.949 18.236 97.949 18.9167C97.949 19.5974 98.087 20.209 98.3629 20.7514C98.6388 21.2832 99.0209 21.7033 99.509 22.0118C100.008 22.3096 100.591 22.4585 101.26 22.4585Z" fill="white"/>
<path d="M115.196 25.4419H111.137V5.63692H115.196V25.4419Z" fill="white"/>
<path d="M128.913 25.4419V23.1605C128.817 23.3945 128.573 23.7242 128.18 24.1496C127.788 24.5751 127.257 24.9633 126.589 25.3143C125.931 25.6546 125.156 25.8248 124.264 25.8248C123.012 25.8248 121.903 25.527 120.937 24.9314C119.972 24.3251 119.213 23.5008 118.661 22.4585C118.12 21.4055 117.849 20.2196 117.849 18.9008C117.849 17.5819 118.12 16.4013 118.661 15.359C119.213 14.306 119.972 13.4764 120.937 12.8702C121.903 12.2639 123.012 11.9608 124.264 11.9608C125.135 11.9608 125.888 12.1097 126.525 12.4075C127.172 12.6947 127.692 13.035 128.085 13.4286C128.488 13.8115 128.748 14.1571 128.865 14.4656V12.3437H132.876V25.4419H128.913ZM121.813 18.9008C121.813 19.6347 121.977 20.2834 122.306 20.8472C122.635 21.4002 123.071 21.831 123.612 22.1394C124.153 22.4479 124.742 22.6021 125.379 22.6021C126.047 22.6021 126.642 22.4479 127.162 22.1394C127.682 21.8203 128.09 21.3843 128.387 20.8312C128.695 20.2675 128.849 19.624 128.849 18.9008C128.849 18.1775 128.695 17.5394 128.387 16.9863C128.09 16.4226 127.682 15.9812 127.162 15.6621C126.642 15.343 126.047 15.1835 125.379 15.1835C124.742 15.1835 124.153 15.343 123.612 15.6621C123.071 15.9706 122.635 16.4066 122.306 16.9703C121.977 17.5234 121.813 18.1669 121.813 18.9008Z" fill="white"/>
<defs>
<clipPath id="clip0_24_463">
<rect width="3.71134" height="3.71134" fill="white"/>
</clipPath>
<clipPath id="clip1_24_463">
<rect width="3.71134" height="3.71134" fill="white" transform="translate(5.25781)"/>
</clipPath>
<clipPath id="clip2_24_463">
<rect width="3.71134" height="3.71134" fill="white" transform="translate(10.5154)"/>
</clipPath>
<clipPath id="clip3_24_463">
<rect width="3.71134" height="3.71134" fill="white" transform="translate(0 5.25781)"/>
</clipPath>
<clipPath id="clip4_24_463">
<rect width="3.71134" height="3.71134" fill="white" transform="translate(5.25781 5.25781)"/>
</clipPath>
<clipPath id="clip5_24_463">
<rect width="3.71134" height="3.71134" fill="white" transform="translate(10.5154 5.25781)"/>
</clipPath>
<clipPath id="clip6_24_463">
<rect width="3.71134" height="3.71134" fill="white" transform="translate(15.7732)"/>
</clipPath>
<clipPath id="clip7_24_463">
<rect width="3.71134" height="3.71134" fill="white" transform="translate(21.0308)"/>
</clipPath>
<clipPath id="clip8_24_463">
<rect width="3.71134" height="3.71134" fill="white" transform="translate(26.2886)"/>
</clipPath>
<clipPath id="clip9_24_463">
<rect width="3.71134" height="3.71134" fill="white" transform="translate(15.7732 5.25781)"/>
</clipPath>
<clipPath id="clip10_24_463">
<rect width="3.71134" height="3.71134" fill="white" transform="translate(21.031 5.25781)"/>
</clipPath>
<clipPath id="clip11_24_463">
<rect width="3.71134" height="3.71134" fill="white" transform="translate(26.2886 5.25781)"/>
</clipPath>
<clipPath id="clip12_24_463">
<rect width="3.71134" height="3.71134" fill="white" transform="translate(0 10.5154)"/>
</clipPath>
<clipPath id="clip13_24_463">
<rect width="3.71134" height="3.71134" fill="white" transform="translate(5.25781 10.5154)"/>
</clipPath>
<clipPath id="clip14_24_463">
<rect width="3.71134" height="3.71134" fill="white" transform="translate(5.25781 21.031)"/>
</clipPath>
<clipPath id="clip15_24_463">
<rect width="3.71134" height="3.71134" fill="white" transform="translate(0 15.7732)"/>
</clipPath>
<clipPath id="clip16_24_463">
<rect width="3.71134" height="3.71134" fill="white" transform="translate(5.25781 15.7732)"/>
</clipPath>
<clipPath id="clip17_24_463">
<rect width="3.71134" height="3.71134" fill="white" transform="translate(0 21.031)"/>
</clipPath>
<clipPath id="clip18_24_463">
<rect width="3.71134" height="3.71134" fill="white" transform="translate(0 26.2886)"/>
</clipPath>
<clipPath id="clip19_24_463">
<rect width="3.71134" height="3.71134" fill="white" transform="translate(5.25781 26.2886)"/>
</clipPath>
<clipPath id="clip20_24_463">
<rect width="3.71134" height="3.71134" fill="white" transform="translate(10.5154 21.031)"/>
</clipPath>
<clipPath id="clip21_24_463">
<rect width="3.71134" height="3.71134" fill="white" transform="translate(15.7732 21.031)"/>
</clipPath>
<clipPath id="clip22_24_463">
<rect width="3.71134" height="3.71134" fill="white" transform="translate(21.031 21.031)"/>
</clipPath>
<clipPath id="clip23_24_463">
<rect width="3.71134" height="3.71134" fill="white" transform="translate(10.5154 26.2886)"/>
</clipPath>
<clipPath id="clip24_24_463">
<rect width="3.71134" height="3.71134" fill="white" transform="translate(15.7732 26.2886)"/>
</clipPath>
<clipPath id="clip25_24_463">
<rect width="3.71134" height="3.71134" fill="white" transform="translate(21.031 26.2886)"/>
</clipPath>
<clipPath id="clip26_24_463">
<rect width="3.71134" height="3.71134" fill="white" transform="translate(21.031 10.5154)"/>
</clipPath>
<clipPath id="clip27_24_463">
<rect width="3.71134" height="3.71134" fill="white" transform="translate(26.2886 10.5154)"/>
</clipPath>
<clipPath id="clip28_24_463">
<rect width="3.71134" height="3.71134" fill="white" transform="translate(26.2886 21.031)"/>
</clipPath>
<clipPath id="clip29_24_463">
<rect width="3.71134" height="3.71134" fill="white" transform="translate(21.031 15.7732)"/>
</clipPath>
<clipPath id="clip30_24_463">
<rect width="3.71134" height="3.71134" fill="white" transform="translate(26.2886 15.7732)"/>
</clipPath>
<clipPath id="clip31_24_463">
<rect width="3.71134" height="3.71134" fill="white" transform="translate(26.2886 26.2886)"/>
</clipPath>
</defs>
</svg>
