<svg width="50" height="50" viewBox="0 0 50 50" fill="none" xmlns="http://www.w3.org/2000/svg">
<path d="M1.47266 28.0195L7.85547 21.7305L18.7227 19.8047L17.6484 25.4922L2.95703 30.0078L2.00781 29.5977L1.47266 28.0195Z" fill="#CA2C31"/>
<path d="M8.96094 23.3437L2.03125 29.6406L7.12891 32.125L14.8672 28.1758V26.3125L16.4492 22.0469L8.96094 23.3437Z" fill="#A02422"/>
<path d="M25.3594 34.4336L22.0117 35.8867L18.8516 42.5859C18.8516 42.5859 21.6328 48.7461 21.7578 48.7461C21.8828 48.7461 23.4648 48.8711 23.4648 48.8711L29.0898 42.582L30.5117 31.8398L25.3594 34.4336Z" fill="#A02422"/>
<path d="M22.0703 39.3906C22.0703 39.3906 23.9336 39.0117 25.2617 38.3789C26.5898 37.7461 28.2305 36.8008 28.2305 36.8008L27.6289 42.0469L21.75 48.7383C21.75 48.7383 21.5195 48.4531 20.543 46.3281C19.7656 44.6328 19.4961 44.0273 19.4961 44.0273L22.0703 39.3906Z" fill="#CA2C31"/>
<path d="M12.3355 31.508C12.3355 31.508 10.0934 31.3205 7.63632 34.426C5.39413 37.2619 4.34335 41.8791 3.9371 43.0666C3.53085 44.2541 2.5582 44.4963 2.88242 45.0393C3.20663 45.5823 4.60898 45.551 6.33945 45.3362C8.06992 45.1213 9.55429 44.5783 9.55429 44.5783C9.55429 44.5783 9.48007 44.7658 9.23007 45.1721C9.14023 45.3166 8.82773 45.5237 8.85117 45.7385C8.90585 46.2502 13.2887 46.2619 16.7887 42.6604C20.5699 38.7737 18.734 35.5862 18.734 35.5862L12.3355 31.508Z" fill="#F7D74D"/>
<path d="M13.0118 33.3164C13.0118 33.3164 10.5939 33.4453 8.59388 36.5508C6.59388 39.6562 5.66419 43.2539 5.8556 43.4961C6.0431 43.7383 9.76966 42.3906 10.6642 42.6602C11.2775 42.8477 10.9611 43.4687 11.1251 43.6328C11.2618 43.7695 12.879 44 15.4962 41.1641C18.1173 38.3281 17.4962 34.3437 17.4962 34.3437L13.0118 33.3164Z" fill="#FBF0B4"/>
<path d="M14.1993 29.0781C14.1993 29.0781 12.9845 30.1602 12.5509 30.7813C12.1173 31.4023 12.1173 31.457 12.1446 31.6445C12.172 31.832 12.6212 33.8906 14.4923 35.6953C16.7892 37.9102 18.84 38.207 19.1368 38.207C19.4337 38.207 21.4064 35.9922 21.4064 35.9922L14.1993 29.0781Z" fill="#858585"/>
<path d="M19.5703 35.6406C19.5703 35.6406 21.5391 36.9336 24.8398 35.8242C29.3516 34.3086 32.6602 30.918 36.7578 26.6367C40.7109 22.5039 44.0273 17.375 44.0273 17.375L41.7031 9.58984L19.5703 35.6406Z" fill="#437687"/>
<path d="M26.5586 31.3789L27.1016 29.6914L28.4609 29.8828C28.4609 29.8828 29.4961 30.3711 30.2578 30.7266C31.0195 31.082 32 31.3516 32 31.3516L30.0664 32.9844C30.0664 32.9844 29.0117 32.5859 28.2422 32.25C27.375 31.8711 26.5586 31.3789 26.5586 31.3789Z" fill="#3F545F"/>
<path d="M32.9374 6.30469C32.9374 6.30469 29.1796 8.48438 23.7929 13.582C18.9374 18.1758 15.3398 22.332 14.4687 25.8672C13.7421 28.8281 14.1288 30.625 15.7812 32.5664C17.5273 34.6211 19.5741 35.6406 19.5741 35.6406C19.5741 35.6406 21.1132 35.6641 27.5351 30.7227C35.5468 24.5547 41.9648 14.2266 41.9648 14.2266L32.9374 6.30469Z" fill="#8DAFBF"/>
<path d="M40.6948 16.3435C40.6948 16.3435 37.4253 14.949 35.0933 11.6951C32.7769 8.46462 32.9605 6.28103 32.9605 6.28103C32.9605 6.28103 34.898 4.7615 39.2534 3.02322C42.1831 1.85525 46.1714 1.25759 47.4839 2.23025C48.7964 3.2029 46.5855 8.08181 46.5855 8.08181L42.5581 15.8787L40.6948 16.3435Z" fill="#D83F22"/>
<path d="M26.6289 31.4063C26.6289 31.4063 23.8047 29.9648 22.0078 27.9141C18.6094 24.043 17.9062 19.793 17.9062 19.793L19.6133 17.7891C19.6133 17.7891 20.0391 22.3047 23.6836 26.207C26.0586 28.75 28.5391 29.9141 28.5391 29.9141C28.5391 29.9141 28.043 30.332 27.5117 30.7383C27.1719 31 26.6289 31.4063 26.6289 31.4063Z" fill="#6896A5"/>
<path d="M44.0273 17.375C44.0273 17.375 45.7227 15.332 47.3281 10.7266C49.5703 4.30469 47.6172 2.35938 47.6172 2.35938C47.6172 2.35938 46.957 5.41406 44.6641 9.66016C42.8242 13.0625 40.5977 16.3008 40.5977 16.3008C40.5977 16.3008 41.8242 16.8516 42.4883 17.043C43.3242 17.2852 44.0273 17.375 44.0273 17.375Z" fill="#A02422"/>
<path d="M15.5506 27.2111C16.0584 27.6955 16.828 27.1877 17.3319 26.0002C17.8397 24.8127 17.8319 24.1486 17.4413 23.8673C16.9569 23.5158 16.1444 24.2853 15.7889 24.9689C15.3983 25.7267 15.1678 26.8439 15.5506 27.2111Z" fill="#B3E1EE"/>
<path d="M33.1835 7.86328C33.1835 7.86328 30.2109 10 27.039 12.9063C24.1289 15.5742 22.1992 17.6602 21.9335 18.1445C21.6523 18.6641 21.6484 19.3984 21.8671 19.7734C22.0859 20.1484 22.5703 20.3438 23.0117 20.0156C23.4531 19.6836 26.5976 16.207 29.4375 13.7227C32.0351 11.4492 34.039 10.0078 34.039 10.0078C34.039 10.0078 34.8515 8.57031 34.7187 8.24219C34.5859 7.91016 33.1835 7.86328 33.1835 7.86328Z" fill="#B3E1EE"/>
<path d="M33.1836 7.86325C33.1836 7.86325 35.3789 6.17965 37.7695 4.99606C39.9922 3.8945 42.2031 2.97653 42.6016 3.7734C42.9805 4.53122 40.5039 5.56247 38.3242 6.95309C36.1445 8.34372 34.0469 10.0039 34.0469 10.0039C34.0469 10.0039 33.7266 9.41794 33.5195 8.87497C33.3882 8.54446 33.276 8.20666 33.1836 7.86325Z" fill="#ED6A65"/>
<path d="M34.9959 15.3319C32.8201 13.328 29.7928 13.867 28.3006 15.6483C26.7693 17.4842 26.8826 20.2889 28.6912 21.9764C30.3357 23.5076 33.3943 23.8553 35.2381 21.7069C36.8787 19.8006 36.7772 16.9686 34.9959 15.3319Z" fill="#E1E1E1"/>
<path d="M29.4254 16.3556C28.1324 17.6252 28.2027 20.1408 29.7418 21.2892C31.0855 22.2931 32.9918 22.2423 34.1871 21.0197C35.3824 19.797 35.3824 17.5744 34.2613 16.4259C32.9722 15.1095 30.9058 14.9025 29.4254 16.3556Z" fill="#3F545F"/>
<path d="M19.5309 30.0348C19.5309 30.0348 21.9489 27.5816 22.2145 27.8473C22.4801 28.1129 22.445 29.6012 21.2887 31.2574C20.1286 32.9137 17.5778 35.8629 15.5583 37.8512C13.5661 39.8082 10.7575 42.0465 10.4918 42.0074C10.2848 41.9762 9.44497 41.5582 9.10904 41.1519C8.78091 40.7496 9.76138 38.8473 10.1559 38.2184C10.5543 37.5894 19.5309 30.0348 19.5309 30.0348Z" fill="#A02524"/>
<path d="M8.29282 39.7851C8.26157 40.3476 9.12095 41.1679 9.12095 41.1679L22.2147 27.8515C22.2147 27.8515 21.6014 27.1601 19.7967 28.2812C17.9764 29.414 16.3827 30.7734 14.0311 33.0507C10.7538 36.2304 8.32407 39.2226 8.29282 39.7851Z" fill="#CA2C31"/>
<path d="M7.44484 14.4336C7.01124 14.8672 6.99171 15.5626 7.47609 15.961C7.90578 16.3165 8.605 16.086 8.86671 15.7657C9.12843 15.4454 9.09718 14.7501 8.74953 14.4063C8.40187 14.0586 7.71046 14.1719 7.44484 14.4336Z" fill="white"/>
<path opacity="0.5" d="M16.0237 13.9261C15.6955 14.2894 15.801 14.8284 16.1057 15.0277C16.4104 15.2269 16.8674 15.2074 17.0901 14.9339C17.2893 14.6878 17.3127 14.1956 17.008 13.8909C16.7424 13.6292 16.2346 13.6917 16.0237 13.9261Z" fill="white"/>
<path d="M21.6997 4.64466C21.6997 4.64466 22.1762 3.28529 22.4575 3.26966C22.7426 3.25404 23.1528 4.62904 23.1528 4.62904C23.1528 4.62904 24.563 4.64466 24.6567 4.85169C24.7778 5.11732 23.7544 6.00794 23.7544 6.00794C23.7544 6.00794 24.0864 7.33607 23.9301 7.49623C23.7544 7.67201 22.5395 6.97279 22.5395 6.97279C22.5395 6.97279 21.2895 7.84388 21.02 7.6056C20.7856 7.39857 21.2739 5.99232 21.2739 5.99232C21.2739 5.99232 20.102 5.13685 20.1645 4.89857C20.2544 4.56263 21.6997 4.64466 21.6997 4.64466Z" fill="white"/>
<path d="M37.8947 37.2387C38.3673 37.5004 38.9611 37.3519 39.1798 36.848C39.379 36.3988 39.0118 35.8637 38.6798 35.7191C38.3478 35.5746 37.7657 35.766 37.5548 36.1449C37.3478 36.5199 37.6095 37.0824 37.8947 37.2387Z" fill="white"/>
<path d="M44.605 25.719C44.3355 25.3011 43.7535 25.1643 43.3746 25.5003C43.0074 25.8284 43.0972 26.344 43.3043 26.6057C43.5113 26.8675 44.066 26.9651 44.4019 26.7503C44.7379 26.5354 44.7691 25.969 44.605 25.719Z" fill="white"/>
</svg>
